<?xml version="1.0" encoding="utf-8"?>
<!-- Generator: Adobe Illustrator 18.0.0, SVG Export Plug-In . SVG Version: 6.00 Build 0)  -->
<!DOCTYPE svg PUBLIC "-//W3C//DTD SVG 1.1//EN" "http://www.w3.org/Graphics/SVG/1.1/DTD/svg11.dtd">
<svg version="1.1" id="Layer_1" xmlns="http://www.w3.org/2000/svg" xmlns:xlink="http://www.w3.org/1999/xlink" x="0px" y="0px"
	 viewBox="0 0 443.4 295.5" enable-background="new 0 0 443.4 295.5" xml:space="preserve">
<g>
	<path fill-rule="evenodd" clip-rule="evenodd" fill="#594118" d="M168.8,66c-8.4-0.3-16.7-1.9-25.8-3.7c-13.1-2.5-27.4-7.2-38.8-1
		c5-3,10-5,17.7-4c12.7,1.6,27.7,5.8,40.5,7.4C164.6,64.9,166.6,65.6,168.8,66z"/>
	<path fill-rule="evenodd" clip-rule="evenodd" fill="#594118" d="M100.9,76.4c4.7-6.2,12.8-9.1,18.8-14.1c0.6-0.1,0.6,0.3,0.7,0.7
		C113.5,67.1,107.2,71.7,100.9,76.4z"/>
	<path fill-rule="evenodd" clip-rule="evenodd" fill="#594118" d="M125,63c-5.1,4.1-11.1,7.5-16.1,11.7c0.4,0.4,1,0.7,0.3,1.3
		c-0.4,0-0.9,0-1.3,0c0.1-1.5,1.4-2.9,2.3-3.7C114.7,68.7,119.9,65.8,125,63z"/>
	<path fill-rule="evenodd" clip-rule="evenodd" fill="#594118" d="M115.9,63.6c-7.3,3.2-16,10.5-24.1,15.1c3.1-3.8,7.8-5.4,11.7-8
		C107.3,68.1,110.5,64,115.9,63.6z"/>
	<path fill-rule="evenodd" clip-rule="evenodd" fill="#594118" d="M134.7,63.6c-3,5.5-12.3,7.9-13.1,13.4c-1.1-0.2-1,0.6-1.7,0
		C122.6,71.8,129.6,67.8,134.7,63.6z"/>
	<path fill-rule="evenodd" clip-rule="evenodd" fill="#594118" d="M111.9,78.4c5.6-5.2,11.5-10.1,18.1-14.4
		c-4.5,4.6-11.8,9.5-15.4,13.1C114.4,77.2,113.3,79.9,111.9,78.4z"/>
	<path fill-rule="evenodd" clip-rule="evenodd" fill="#594118" d="M144.1,64c-3.1,4.9-7.6,8.4-12.1,12.1c0,0.3,0.4,0.3,0.7,0.3
		c-0.5,1-1.4,1.5-2.7,1.7c2.3-4.6,7.2-6.6,10.4-10.4c-0.2-0.3-0.8-0.3-0.7-1C142.1,66.7,141.5,64.5,144.1,64z"/>
	<path fill-rule="evenodd" clip-rule="evenodd" fill="#594118" d="M54.6,64.3c0.7,1.2-1.3,2.5-2.3,3C52.6,65.9,53.9,65.4,54.6,64.3z
		"/>
	<path fill-rule="evenodd" clip-rule="evenodd" fill="#594118" d="M138,77.7c1-0.1,1.4-1.9,2.3-1c-1.5,1-2.5,2.4-4.7,2.7
		c3.4-4.8,8.8-8.7,13.1-12.4c0.8-0.7,1.6-1.1,2.7-1.3C147.6,70.3,141.8,73,138,77.7z"/>
	<path fill-rule="evenodd" clip-rule="evenodd" fill="#594118" d="M174.2,73.3c-0.8-0.1-1.3-0.5-2.3-0.3c-7.7,3.4-14.1,8-20.8,12.4
		c5.7-5.8,13.3-9.7,21.1-13.4C173.4,71.9,174.1,72.3,174.2,73.3z"/>
	<path fill-rule="evenodd" clip-rule="evenodd" fill="#594118" d="M174.9,75c-3.3,2.5-7.2,4.4-10.4,7
		C166.1,79.6,170.6,76.2,174.9,75z"/>
	<path fill-rule="evenodd" clip-rule="evenodd" fill="#594118" d="M226.4,77.4c0.6-0.4,0.9-1.1,2-1
		C228.5,77.4,227.4,77.4,226.4,77.4z"/>
	<path fill-rule="evenodd" clip-rule="evenodd" fill="#594118" d="M243.8,77c1.2,3.3-6.7,4.8-6.4,8.4c-1.1-0.2-1.3,0.7-2,0
		c1.7-3,4.9-4.5,7.4-6.7c-0.5-1-1.4,1-2,0C241.5,77.8,243,77.7,243.8,77z"/>
	<path fill-rule="evenodd" clip-rule="evenodd" fill="#594118" d="M252.2,78.4c0.6,0.7-1,1.9-2,2.7c-2,1.6-5.1,3.4-7,5.4
		c0,0.8,0.6,1-0.3,1.3c-2-1.7,1.8-3.8,3.3-5C248.3,81.1,250.7,79.6,252.2,78.4z"/>
	<path fill-rule="evenodd" clip-rule="evenodd" fill="#594118" d="M240.5,78.7c-0.2,1.1-1.5,0.9-2.3,1.3
		C238.6,79.2,239.5,79,240.5,78.7z"/>
	<path fill-rule="evenodd" clip-rule="evenodd" fill="#594118" d="M60.3,79.7c-0.8,0.8-1.6,2.1-3,1.3C58.1,80.2,59.1,79.1,60.3,79.7
		z"/>
	<path fill-rule="evenodd" clip-rule="evenodd" fill="#594118" d="M230.1,80c-0.1,0.9-0.9,1.1-1.7,1.3
		C228.4,80.3,229.3,80.2,230.1,80z"/>
	<path fill-rule="evenodd" clip-rule="evenodd" fill="#594118" d="M256.9,80.4c-1.2,3.4-7.2,4.6-8.4,8.4
		C247.7,84.9,254.4,83,256.9,80.4z"/>
	<path fill-rule="evenodd" clip-rule="evenodd" fill="#594118" d="M88.8,80.7c0.4,0.1,0.7,0.4,0.7,1c-5.2,3.9-11.8,10.8-16.1,16.4
		c-1.3,1.7-2.8,4.2-2.7,6c-1.8-3.3,1.9-5.6,4-8.4c4-5.1,9.1-10.5,13.4-14.7c0.4,0.1,0.2,0.7,0.7,0.7C88.8,81.4,88.8,81,88.8,80.7z"
		/>
	<path fill-rule="evenodd" clip-rule="evenodd" fill="#594118" d="M60.7,81.4c0.9,0.7-1.2,1.2-1.3,2C57.8,83.2,60.3,81.9,60.7,81.4z
		"/>
	<path fill-rule="evenodd" clip-rule="evenodd" fill="#594118" d="M97.2,83.1c0.5-0.1,0.6,0.3,1,0.3c-5.8,6.5-11.1,13.7-16.7,20.4
		c0.2,0.3,0.8,0.3,0.7,1c-0.8,0.3-0.9,1.3-2.3,1C84.4,97.1,91.6,90.9,97.2,83.1z"/>
	<path fill-rule="evenodd" clip-rule="evenodd" fill="#594118" d="M92.1,83.7c0.4,0.1,0.3,0.6,0.3,1c-5.8,7.6-11.1,15.7-17.7,22.4
		c0.2,0.9,1.1,0.9,0,1.7c-1.9-1.4,0.8-3.3,1.7-4.4c3.2-4.1,7.3-9.1,10.7-13.1c0.7-3.1,3.1-4.5,4-7.4C91.6,84.1,92.1,84.1,92.1,83.7z
		"/>
	<path fill-rule="evenodd" clip-rule="evenodd" fill="#594118" d="M160.5,83.7c-1.5,2.2-4.2,3.2-6.7,4.4
		C155.6,86.3,158.2,85.1,160.5,83.7z"/>
	<path fill-rule="evenodd" clip-rule="evenodd" fill="#594118" d="M240.2,83.7c0.2,1.1-1.5,0.2-1.7,1
		C237.4,84.1,239.2,83.4,240.2,83.7z"/>
	<path fill-rule="evenodd" clip-rule="evenodd" fill="#594118" d="M101.9,84.4c-4.9,8.2-13.4,15.9-16.7,23.4
		c-2.7-2.1,2.5-4.2,2.7-6.7c2.1-2,4.2-4.1,5.4-7c1.4,0.1,1-1.4,2-1.7c0.3-1.2,0-0.8,0.3-2C98.1,88.9,98.8,85.4,101.9,84.4z"/>
	<path fill-rule="evenodd" clip-rule="evenodd" fill="#594118" d="M184.2,84.7c-0.8,0.9-1.5,1.8-3,2C182.1,85.9,182.8,85,184.2,84.7
		z"/>
	<path fill-rule="evenodd" clip-rule="evenodd" fill="#594118" d="M31.9,88.1c0.6,1,0.3,3.9-0.7,4.4C31.4,90.6,31.1,89.7,31.9,88.1z
		"/>
	<path fill-rule="evenodd" clip-rule="evenodd" fill="#594118" d="M106.5,88.1c0.7,3.9-4.2,7.9-5.4,12.1c3.9-2.8,6.2-7.2,10.4-9.7
		c-3.7,4-7.4,8-11.1,12.1c-1.2-4.1,3.3-8,4.7-11.7c-2.4,2-4.3,4.6-6.4,7C99.8,94.3,104.1,91.3,106.5,88.1z"/>
	<path fill-rule="evenodd" clip-rule="evenodd" fill="#594118" d="M112.6,88.7c0.5-0.1,0.6,0.3,1,0.3c-0.5,5.5-3.9,8.1-5,13.1
		c1.4-1,4-3.5,5.4-5.7c-0.7,2.4-3,6.1-6.4,7c0.5-5.5,3.5-8.3,5-12.7c0.2-0.7-0.5-0.6-1-0.7C111.7,89.4,112.2,89.2,112.6,88.7z"/>
	<path fill-rule="evenodd" clip-rule="evenodd" fill="#594118" d="M35.2,89.7c1.7,0.6-0.4,6.6,0,8C34,95.7,35.8,91.8,35.2,89.7z"/>
	<path fill-rule="evenodd" clip-rule="evenodd" fill="#594118" d="M172.9,91.4c0.9,2-4,3.8-5.7,5.4
		C166.9,94.2,171.6,93.7,172.9,91.4z"/>
	<path fill-rule="evenodd" clip-rule="evenodd" fill="#594118" d="M158.8,96.4c3-1.6,5.7-3.4,9-4.7c-9.8,6.4-19.2,12.8-27.8,20.4
		c-1.5,1.3-2,3.7-4.4,4c2.1-3.3,5-5.7,7.4-8.7c-2.6,0.8-6.2,3.4-9.4,4.7c0,8.5-3.5,15.2-2.7,23.4c0.8,0.4,1-1.3,1.3-0.3
		c-2.3,3.5-2.5-2.7-2.3-4.7c0.4-5.1,2.9-12,2.7-17.1c-1.5,1.1-1.6,3.5-2.7,5c-0.5-1.4,0.9-3.8,1.7-5c-0.4-1-1.2,0.4-2,0
		c5.2-2.8,10.4-5.5,15.7-8c-0.1,0.9-1.4,0.6-1.7,1.3c2.7,0.2,4.5-3.6,7.4-4.4c1.8-3.8,6.9-6.8,11.4-9
		C161.7,94.9,159.7,95.2,158.8,96.4z"/>
	<path fill-rule="evenodd" clip-rule="evenodd" fill="#594118" d="M190.3,92.8c0.4,0.1,0.3,0.6,0.3,1c-1.6,0.1-2.7,0.6-3.3,1.7
		C186.2,93.8,189.4,93.6,190.3,92.8z"/>
	<path fill-rule="evenodd" clip-rule="evenodd" fill="#594118" d="M31.2,93.1c1.4,1,0.3,4.6,0.7,6.7C30.5,98.8,31.5,95.2,31.2,93.1z
		"/>
	<path fill-rule="evenodd" clip-rule="evenodd" fill="#594118" d="M195.3,94.1c0.8,0.5-0.5,1.7-1.3,1.7
		C193.8,94.6,195,94.8,195.3,94.1z"/>
	<path fill-rule="evenodd" clip-rule="evenodd" fill="#594118" d="M277.3,95.1c0.1,1.1-1.3,0.7-1.3,1.7
		C275,96.1,276.6,95.2,277.3,95.1z"/>
	<path fill-rule="evenodd" clip-rule="evenodd" fill="#594118" d="M337.9,100.8c-2.5,1.8-6,2.5-8.4,4.4
		C330.2,102.9,334.9,101.8,337.9,100.8z"/>
	<path fill-rule="evenodd" clip-rule="evenodd" fill="#594118" d="M38.6,101.5c1.1,2-4.7,5.8-3.3,8
		C32.7,108.2,37.6,103.7,38.6,101.5z"/>
	<path fill-rule="evenodd" clip-rule="evenodd" fill="#594118" d="M306.1,102.1c-1.3,1.3-3.3,1.9-5.4,2.3
		C302,103.1,304.1,102.7,306.1,102.1z"/>
	<path fill-rule="evenodd" clip-rule="evenodd" fill="#594118" d="M58.7,102.5c0.5-0.1,0.6,0.3,1,0.3c-1.1,6-3.1,10.7-3.7,16.4
		C54.5,113.3,58.9,108.8,58.7,102.5z"/>
	<path fill-rule="evenodd" clip-rule="evenodd" fill="#594118" d="M40.2,102.8c0.3,0,0.7,0,1,0c0,2.6-2.7,7.9-0.7,9
		c0.1,1.5-1.2,0-1.7,0C39.5,108.9,39.9,105.9,40.2,102.8z"/>
	<path fill-rule="evenodd" clip-rule="evenodd" fill="#594118" d="M160.8,104.2c-0.6,1.8-3.8,3.8-6.4,4.7
		C156.3,107.1,158.7,105.8,160.8,104.2z"/>
	<path fill-rule="evenodd" clip-rule="evenodd" fill="#594118" d="M63.7,104.5c0.3,0,0.7,0,1,0c-0.7,5.9-3.9,12-3,17.4
		c-1.9-0.9-0.8-3.8-0.3-6C62.1,112.2,63.1,108.6,63.7,104.5z"/>
	<path fill-rule="evenodd" clip-rule="evenodd" fill="#594118" d="M112.2,104.5c0.4-0.1,0.6,0.1,0.7,0.3c-1.8,6.5-3.1,11.7-4,18.8
		c0.7,1.1,1-1,2-0.7c-0.8,0.6-0.9,2-2.3,2C108.1,118,110.5,110.8,112.2,104.5z"/>
	<path fill-rule="evenodd" clip-rule="evenodd" fill="#594118" d="M172.5,104.5c-6,5.9-13.5,11.9-17.4,18.8c-1.4-2.1,1.5-3.8,2.7-5
		c4-4.3,9.1-9.3,13.1-13.7C171.4,104.5,172,104.5,172.5,104.5z"/>
	<path fill-rule="evenodd" clip-rule="evenodd" fill="#594118" d="M328.6,104.5c0.6,0.2,0,0.6,0,1c-5.5,1.6-9.3,4.8-14.7,6.4
		C318.2,108.8,323.8,107.1,328.6,104.5z"/>
	<path fill-rule="evenodd" clip-rule="evenodd" fill="#594118" d="M53,113.2c-1.3-1.5,0.2-4,0-7c-1.1,0-0.8,1.4-2,1.3
		C54.2,102.4,54,109.8,53,113.2z"/>
	<path fill-rule="evenodd" clip-rule="evenodd" fill="#594118" d="M356.4,106.8c-5.5,3.9-11.9,6.6-17.7,10c-2.9,1.7-5.4,3.7-8.4,5
		c1.2-2.1,3.8-2.9,5.7-4c2.1-1.2,4-2.4,6-3.7c4.3-2.7,9.1-4.6,13.1-7.4C355.5,106.8,355.9,106.8,356.4,106.8z"/>
	<path fill-rule="evenodd" clip-rule="evenodd" fill="#594118" d="M92.8,107.8c0,6.1-4.1,11-4.7,17.7c-0.2,0.5,1.6,0.5,1.3,0
		c1,0.6-0.6,1.4-1.3,1.3C87,119.9,91,114.2,92.8,107.8z"/>
	<path fill-rule="evenodd" clip-rule="evenodd" fill="#594118" d="M364.7,109.2c1.6,0.7-1,1.8-2,2
		C363,110.1,364.4,110.2,364.7,109.2z"/>
	<path fill-rule="evenodd" clip-rule="evenodd" fill="#594118" d="M121.3,109.5c0.3,0,0.7,0,1,0c-0.7,5.3-2.7,10.8-2,16.4
		c0.8,0.1,1-0.5,1.3-1c0.8,0.7-0.3,2.4-1.3,2.3C117.6,120.9,120,116.1,121.3,109.5z"/>
	<path fill-rule="evenodd" clip-rule="evenodd" fill="#594118" d="M231.5,109.8c0.9,1-1,2.1-2,2.3
		C229.8,111.1,231,110.8,231.5,109.8z"/>
	<path fill-rule="evenodd" clip-rule="evenodd" fill="#594118" d="M68.7,110.8c0.7,0.7-0.6,2.3-1,3
		C66.8,112.9,68.4,111.6,68.7,110.8z"/>
	<path fill-rule="evenodd" clip-rule="evenodd" fill="#594118" d="M187.3,111.9c0.3,0,0.7,0,1,0c-1.4,8.1-4.9,14.1-6,22.4
		c-0.1,1.3,0.5-0.1,1,0.7c-4.2,2.6-0.2-7.2,0.3-9c1.2-4.4,2-9.1,3.7-11.7C187.1,113.5,186.8,112.7,187.3,111.9z"/>
	<path fill-rule="evenodd" clip-rule="evenodd" fill="#594118" d="M149.4,112.2c-1.2,5.3-3.5,12.4-4.4,19.1
		C144.8,124.6,146.6,116.9,149.4,112.2z"/>
	<path fill-rule="evenodd" clip-rule="evenodd" fill="#594118" d="M231.8,112.9c0.4-0.1,0.6,0.1,0.7,0.3c-2.9,3-6,6.9-8.7,9
		C225.4,118.1,229.6,116.4,231.8,112.9z"/>
	<path fill-rule="evenodd" clip-rule="evenodd" fill="#594118" d="M357.7,112.9c-3.8,2.5-8.8,3.9-13.1,6c-0.1,0.7,1.2,0.2,1.7,0.3
		c-0.7,0.8-2,0.9-3.3,1C345.3,116.5,352.9,115.2,357.7,112.9z"/>
	<path fill-rule="evenodd" clip-rule="evenodd" fill="#594118" d="M140.4,113.5c0.4-0.1,0.6,0.1,0.7,0.3c-0.5,8.7-3.1,15.2-4.7,22.8
		c1,0.4,1.2,0.9,0.3,1.7c-2-3.2,0.4-7.6,1.3-11.4C139.2,122.4,139.9,117,140.4,113.5z"/>
	<path fill-rule="evenodd" clip-rule="evenodd" fill="#594118" d="M378.5,113.9c-0.3,0.6,0,1.8-1,1.7
		C377.4,114.6,377.4,113.7,378.5,113.9z"/>
	<path fill-rule="evenodd" clip-rule="evenodd" fill="#594118" d="M200.3,114.5c0.5-0.1,0.6,0.3,1,0.3c-3,9-8.2,20.3-8.4,28.8
		c-2.2-1.9-0.2-5,0.3-7c1.8-7.1,4.7-14.2,6.7-21.1C200.2,115.3,200.3,115,200.3,114.5z"/>
	<path fill-rule="evenodd" clip-rule="evenodd" fill="#594118" d="M314.5,116.2c0.6,0.5-0.6,2.1-1.7,2
		C312.7,116.9,314.3,117.2,314.5,116.2z"/>
	<path fill-rule="evenodd" clip-rule="evenodd" fill="#594118" d="M322.2,116.2c-0.9,1.7-4.7,1.8-4,4c-0.7,0-0.9-2.2-1.7-1
		C316.9,118.4,320.2,117.3,322.2,116.2z"/>
	<path fill-rule="evenodd" clip-rule="evenodd" fill="#594118" d="M373.1,116.5c0.4,0.1,0.7,0.4,0.7,1c-4.1,2.8-8.8,5-13.4,7.4
		c-0.2-2.6,3.6-2.6,5.7-3.7C368.6,119.9,371,117.8,373.1,116.5z"/>
	<path fill-rule="evenodd" clip-rule="evenodd" fill="#594118" d="M375.8,117.5c0.5-0.1,0.6,0.3,1,0.3c-2.1,2.7-6,3.6-9,5.4
		c-0.1,0.7,1.2,0.2,1.7,0.3c-1.1,0.7-2,0.9-4,1.3C367.3,120.9,373.2,120.9,375.8,117.5z"/>
	<path fill-rule="evenodd" clip-rule="evenodd" fill="#594118" d="M159.5,117.9c0.6,5.3-3.8,13.1-2,20.8
		C154.5,132.3,157.6,123.5,159.5,117.9z"/>
	<path fill-rule="evenodd" clip-rule="evenodd" fill="#594118" d="M22.5,118.2c-5.2,3.2-12.1,4.7-16.1,9c0,0.3,0.4,0.3,0.7,0.3
		c-0.4,1.3-0.9,0.1-1.3-0.3C9.7,122.6,16,120.3,22.5,118.2z"/>
	<path fill-rule="evenodd" clip-rule="evenodd" fill="#594118" d="M286.7,118.5c-0.1,1.4-2.3,0.6-2.7,1.7
		C283.2,119.3,285.9,119,286.7,118.5z"/>
	<path fill-rule="evenodd" clip-rule="evenodd" fill="#594118" d="M236.8,120.9C232.4,122.5,236.3,115.9,236.8,120.9L236.8,120.9z"
		/>
	<path fill-rule="evenodd" clip-rule="evenodd" fill="#594118" d="M268,119.6c-0.6,1.3-2.1,1.7-3.7,2
		C265.1,120.6,266.6,118.9,268,119.6z"/>
	<path fill-rule="evenodd" clip-rule="evenodd" fill="#594118" d="M315.2,119.2c0.8,1.3-4.7,4-7,5
		C310.2,122.3,313.1,121.1,315.2,119.2z"/>
	<path fill-rule="evenodd" clip-rule="evenodd" fill="#594118" d="M162.1,120.2c-0.1,1-2.3,3-1,3.3c0,0.7-0.8,0.7-1.7,0.7
		C159.8,122.3,160.6,121,162.1,120.2z"/>
	<path fill-rule="evenodd" clip-rule="evenodd" fill="#594118" d="M123.3,120.9c0.5,0.9-0.1,3.4-1.3,3.7
		C122.3,123.3,122.8,122.1,123.3,120.9z"/>
	<path fill-rule="evenodd" clip-rule="evenodd" fill="#594118" d="M336.9,121.9c0.4,0.1,0.7,0.4,0.7,1c-3.6,6.9-11,12.3-13.4,19.8
		c-1.9,5.8-2.7,11.5-4.4,18.4c-0.8-6.4,3.3-13.6,4.4-20.4C328.7,134.6,332.8,128.2,336.9,121.9z"/>
	<path fill-rule="evenodd" clip-rule="evenodd" fill="#594118" d="M279,128.6c0.4,0.1,0.3,0.6,0.3,1c-4.6,3.9-9,8-13.1,12.4
		C268.7,137,275.3,133.4,279,128.6z"/>
	<path fill-rule="evenodd" clip-rule="evenodd" fill="#594118" d="M53.3,129.6c-5,3.2-13,6.4-19.1,9.7c0.2,0.3,0.8,0.3,0.7,1
		c-0.8,0.1-1.3-0.1-1.7-0.3c0.7-1.9,2.9-2.5,4.7-3.3C42.6,134.3,48.2,130.9,53.3,129.6z"/>
	<path fill-rule="evenodd" clip-rule="evenodd" fill="#594118" d="M283.7,129.6c-0.8,3.5-5.5,6.1-8,9
		C276.8,135.4,281.7,133.1,283.7,129.6z"/>
	<path fill-rule="evenodd" clip-rule="evenodd" fill="#594118" d="M429.4,164.8c-7.4-12.3-14-25.5-27.8-31.5c-0.2-0.3-0.3-0.5-0.3-1
		c0.3-0.2,0.5-0.4,1-0.3C414.9,139.3,423.6,150.6,429.4,164.8z"/>
	<path fill-rule="evenodd" clip-rule="evenodd" fill="#594118" d="M287.7,133.6c-0.1,6.4-3.4,12.7-5,18.8
		C283.5,146.6,286.4,140.1,287.7,133.6z"/>
	<path fill-rule="evenodd" clip-rule="evenodd" fill="#594118" d="M298.8,134.3c-2,5.2-3,11.5-5.7,16.1c1.7-5.3,3.5-10.4,4.7-16.1
		C298.1,134.3,298.4,134.3,298.8,134.3z"/>
	<path fill-rule="evenodd" clip-rule="evenodd" fill="#594118" d="M223.1,134.6c-0.9,1.2,0.3,2.4-1.3,2.7
		C222.4,136.7,221.6,134.5,223.1,134.6z"/>
	<path fill-rule="evenodd" clip-rule="evenodd" fill="#594118" d="M306.1,135c1.3,1.3-0.1,4.6-1,6.4
		C305.6,139.3,305.7,137,306.1,135z"/>
	<path fill-rule="evenodd" clip-rule="evenodd" fill="#594118" d="M208.7,135.6c1,2.4-1.8,8.3-0.7,11.1c0.5-0.3,1.3-0.3,1-1.3
		c1.2,0.4-0.2,2.6-1.3,2.7C206.1,144.5,208.2,138.2,208.7,135.6z"/>
	<path fill-rule="evenodd" clip-rule="evenodd" fill="#594118" d="M292.1,136.3c1,0.4,0.1,3.8-1,4.4
		C291.7,139.5,291.8,137.8,292.1,136.3z"/>
	<path fill-rule="evenodd" clip-rule="evenodd" fill="#594118" d="M314.5,136.3c0.6-0.1,0.7,0.3,0.3,0.3c-1.8,9.1-5.5,16.4-7.4,25.4
		c0.4-8.7,5.4-15.6,6.4-24.8C313.6,136.6,314.5,136.8,314.5,136.3z"/>
	<path fill-rule="evenodd" clip-rule="evenodd" fill="#594118" d="M321.9,137.3c0.4,0.1,0.8,0.6,0.3,0.7c-2.2,8-5.5,16.6-6.7,24.4
		c-0.5-7.7,4.3-15.6,5.7-24.1C321,137.6,321.8,137.8,321.9,137.3z"/>
	<path fill-rule="evenodd" clip-rule="evenodd" fill="#594118" d="M226.4,138c1.2-0.3,0.6,1.4,0.3,1.7
		C226.7,142.5,225.9,138.8,226.4,138z"/>
	<path fill-rule="evenodd" clip-rule="evenodd" fill="#594118" d="M27.5,138.3c0.7,0.1,0.7,0.9,1.3,1c-3.2,4.1-1.8,12.7,2.3,15.1
		C26.4,154.4,24,142.4,27.5,138.3z"/>
	<path fill-rule="evenodd" clip-rule="evenodd" fill="#594118" d="M72.7,138.6c0.4,0.1,0.7,0.4,0.7,1c-3.2,1.1-6.4,4-9.4,6.4
		c0.7,0.6,1,1.2,2,0.7c-0.2,1.2-2.6,0.7-3,0C64.9,142.6,69.4,141.2,72.7,138.6z"/>
	<path fill-rule="evenodd" clip-rule="evenodd" fill="#594118" d="M40.2,141.3c0,0.6,0,1.1,0,1.7c-1,0.2-1.5-0.3-1.3-1.3
		C39.5,141.7,39.6,141.2,40.2,141.3z"/>
	<path fill-rule="evenodd" clip-rule="evenodd" fill="#594118" d="M45.6,141.3c-1.2,0.9-3.2,1-5,1.3C42,141.6,43,141.5,45.6,141.3z"
		/>
	<path fill-rule="evenodd" clip-rule="evenodd" fill="#594118" d="M226.8,145c-0.6-0.8-1,1.5-1.3,2c-0.7-1.8,0-3,0-5
		c1-0.3,0.6,0.7,0.7,1.3c0.9-0.1,0.4-1.6,1.7-1.3c0,2.6-0.7,4.4-1,6.7C225.9,148,226.3,146.1,226.8,145z"/>
	<path fill-rule="evenodd" clip-rule="evenodd" fill="#594118" d="M280.7,144.7c1,1.4-1,2.7-0.7,4.7
		C279,147.8,280.6,146.1,280.7,144.7z"/>
	<path fill-rule="evenodd" clip-rule="evenodd" fill="#594118" d="M86.1,145.3c-1.2,2-4.3,1.9-5,4.4C80.5,147.3,83,145.1,86.1,145.3
		z"/>
	<path fill-rule="evenodd" clip-rule="evenodd" fill="#594118" d="M419.3,163.4c-3.7-6.7-6.8-14-13.4-17.7
		C413.4,147.1,417.3,156.6,419.3,163.4z"/>
	<path fill-rule="evenodd" clip-rule="evenodd" fill="#594118" d="M249.2,146c1.2,0.1,0.9,1.7,1,3c-0.6,1,0-1.9-0.7-2
		c-2.9,2.1-4.2,6.4-5.7,10c-1.5,3.8-2,8.1-4.7,10.7c2.5-6.8,5.1-16.1,9.4-22.1C248.9,145.6,249.1,145.7,249.2,146z"/>
	<path fill-rule="evenodd" clip-rule="evenodd" fill="#594118" d="M99.8,147.3c-0.8,1.7-5.7,0.5-8,1C93.1,146.6,98,148.5,99.8,147.3
		z"/>
	<path fill-rule="evenodd" clip-rule="evenodd" fill="#594118" d="M258.6,149.7c-0.4,1.7-0.1,2.8-0.3,4c-0.5-0.1-0.3-0.8-0.3-1.3
		c-3.4,4.2-3.4,11.8-6.4,16.4c-0.4-4.1,3.5-9.4,3.7-15.1C256.9,152.9,255.8,149.4,258.6,149.7z"/>
	<path fill-rule="evenodd" clip-rule="evenodd" fill="#594118" d="M279.7,153.7c0.4-0.1,0.6,0.1,0.7,0.3c-2.3,6.9-6.3,12.2-6.4,21.4
		c0.2,1.1,1.6,0.5,2.3,0.3c-0.3,1.2-1.7,1.5-2.7,1c-0.6-2.1-0.5-3.4-0.3-5.7c-0.2-0.6-2.1,1.1-3,0c1.3-6,2-15,6.7-15.4
		c-4.3,2.4-4.4,10.4-5.7,14.7c3.4,0,3.8-5.4,4.7-8C277.1,159.1,278.4,156.3,279.7,153.7z"/>
	<path fill-rule="evenodd" clip-rule="evenodd" fill="#594118" d="M351,155.7c0.5-0.1,0.6,0.3,1,0.3c-1.1,5-4,11.2-5,16.1
		c-0.3,1.6,0.9,3.7-1.3,4C346.7,168.6,349.3,162.6,351,155.7z"/>
	<path fill-rule="evenodd" clip-rule="evenodd" fill="#594118" d="M386.5,156.7c0.4,0.1,0.5,0.6,1,0.7c-0.9,6.8-2.1,13.3-4.7,18.4
		C383.8,170.6,386.8,164.4,386.5,156.7z"/>
	<path fill-rule="evenodd" clip-rule="evenodd" fill="#594118" d="M282,157.4c0.6-0.1,0.6,0.3,0.7,0.7c-2.7,5.7-4.3,14.1-4,21.8
		c0.8,1.1,1.8-1.3,2-0.7c0,1.3-0.8,1.8-2.3,1.7C276.7,173.8,279.3,163.3,282,157.4z"/>
	<path fill-rule="evenodd" clip-rule="evenodd" fill="#594118" d="M374.1,157.7c0.5-0.1,0.6,0.3,1,0.3c-1,2.2-1.3,5.2-2,7.7
		C372.2,162.8,373.9,160,374.1,157.7z"/>
	<path fill-rule="evenodd" clip-rule="evenodd" fill="#594118" d="M64.7,158.4c2.3,3.2,1.2,7.8,2.7,11.7c1.6-0.2-0.8-2.5,1.3-2.3
		c-0.5,1,0.3,3.4-1.3,3.3C65.5,168.1,64.8,162.1,64.7,158.4z"/>
	<path fill-rule="evenodd" clip-rule="evenodd" fill="#594118" d="M60.7,158.7c1.4,2.8,0.3,8,2.3,10c1,0.3,0.6-0.7,0.7-1.3
		c0.6,0.9,0.8,2.1,0,2.7C60.4,168.8,60,162.9,60.7,158.7z"/>
	<path fill-rule="evenodd" clip-rule="evenodd" fill="#594118" d="M353.7,159.1c0.5-0.1,0.6,0.3,1,0.3c-0.6,1.9-2.6,3.7-2,5.7
		C351,163.7,353.2,160.5,353.7,159.1z"/>
	<path fill-rule="evenodd" clip-rule="evenodd" fill="#594118" d="M68.4,160.4c2.8,2.8,1.7,9.4,4,12.7c0.8,0,1-0.6,1.7,0
		c0,0.6-0.4,0.7-0.3,1.3c-4.5-1.4-3.2-7.5-5-12.1c-0.3,0-0.3,0.4-0.3,0.7C66.9,162.6,69,162,68.4,160.4z"/>
	<path fill-rule="evenodd" clip-rule="evenodd" fill="#594118" d="M159.8,160.4c-4.9,3.5-12,4.7-17.4,7.7c1.3,0.4,4.6-0.1,6.4-0.3
		c-3.1,1.7-5.9,1-9.7,1.7c0.1-0.9,2.3-2.6,2.7-1c4-3.6,10.4-4.8,15.4-7.4c-0.1-0.5-0.4,0.1-1,0C157.3,160,157.6,161.1,159.8,160.4z"
		/>
	<path fill-rule="evenodd" clip-rule="evenodd" fill="#594118" d="M286.7,160.4c-2,5.7-4.1,14.4-3,21.1c0.7-0.1,0.7-0.9,1-1.3
		c0.4,0.6,0,3.1-1.3,3c-2.4-7.1,0.5-16.7,2.3-22.8C286,160.4,286.4,160.4,286.7,160.4z"/>
	<path fill-rule="evenodd" clip-rule="evenodd" fill="#594118" d="M355.4,161.1c0.2,3.8-0.9,9.4-3,11.1
		C353.9,168.7,355,163.8,355.4,161.1z"/>
	<path fill-rule="evenodd" clip-rule="evenodd" fill="#594118" d="M295.1,161.7c0.3,0,0.7,0,1,0c-1.1,6.7-2.1,15.3-2.7,21.4
		c0.3,1,0.5,0.4,1.3,0.3c-0.3,1-0.3,2.3-1.7,2.3C292,176.9,294.4,169.3,295.1,161.7z"/>
	<path fill-rule="evenodd" clip-rule="evenodd" fill="#594118" d="M300.8,161.7c-0.3,6-1.5,13.9-1.7,21.1c1-0.5,0.9-2,1.3-3
		c0.6,1.4-0.4,4-1.3,5c-2.1-3.5-0.1-11.5,0.3-17.4C299.6,165,298.9,162.6,300.8,161.7z"/>
	<path fill-rule="evenodd" clip-rule="evenodd" fill="#594118" d="M63.7,162.1c1.3-0.3,0.4,1.6,0.7,2.3
		C63.4,164.4,63.7,163,63.7,162.1z"/>
	<path fill-rule="evenodd" clip-rule="evenodd" fill="#594118" d="M305.1,162.4c0.3,0,0.7,0,1,0c0,7.7-1.8,13.6-1.7,21.4
		c0.9-1.6,1.6-3.3,2-5.4c0.7,1.6-0.7,6.6-2.7,7.7C302.6,177.5,305.5,169.9,305.1,162.4z"/>
	<path fill-rule="evenodd" clip-rule="evenodd" fill="#594118" d="M361,162.8c1.2,0.6,0.8,4.2,0.7,5c-0.4,0-0.9,0-1.3,0
		C360.1,166.8,361.6,165.1,361,162.8z"/>
	<path fill-rule="evenodd" clip-rule="evenodd" fill="#594118" d="M146.1,163.1c-4.8,1.9-9.4,4-15.7,4.4c0.7-2.4,4.2-2,6.4-3
		c0,1.1-1.5,0.7-2,1.3C138.4,166.2,142.1,163.6,146.1,163.1z"/>
	<path fill-rule="evenodd" clip-rule="evenodd" fill="#594118" d="M289.7,163.4c0.4-0.1,0.6,0.1,0.7,0.3c-1.2,6-1.9,15-1.7,20.4
		c-2.4-2.1-0.7-7.6-0.3-11.7c0.2-2.5,0.4-5.7,0.7-8C289.4,164.2,289.6,163.8,289.7,163.4z"/>
	<path fill-rule="evenodd" clip-rule="evenodd" fill="#594118" d="M310.5,163.4c0.5-0.1,0.6,0.3,1,0.3c0.3,6.6-0.3,13.5-0.3,19.1
		c2.1-3.9,2-10.1,4.4-13.7c-1.5,6.1-2.5,10.8-4,17.1C309,181.2,311.1,169.6,310.5,163.4z"/>
	<path fill-rule="evenodd" clip-rule="evenodd" fill="#594118" d="M414.3,165.1c1.5,4.3,1,10.2-0.3,14.7
		C414.6,175.8,414.7,168.8,414.3,165.1z"/>
	<path fill-rule="evenodd" clip-rule="evenodd" fill="#594118" d="M89.5,165.4c2.9,2,2,7.8,3.7,11.1c0.7,0.1,1.1-0.3,1-1
		c0.8,0.4,0.3,2.3-0.3,2.3c-2.9-1.3-2.9-7-3.7-9.4C88.9,170.1,89.1,166.5,89.5,165.4z"/>
	<path fill-rule="evenodd" clip-rule="evenodd" fill="#594118" d="M429.4,182.8c0.1,0.6,1-0.8,1-1.3c-0.5,3-2.2,7.6-4.4,10
		c0.6-6.1,3.9-12.4,5.7-18.4c-0.3-1.3-0.1-2.6,1.3-3C433.1,174.3,430.4,178.7,429.4,182.8z"/>
	<path fill-rule="evenodd" clip-rule="evenodd" fill="#594118" d="M417,170.5c0.4-0.1,0.6,0.1,0.7,0.3c-0.4,4.5-1.2,8.9-2,12.7
		c-0.8,3.6-1.3,7.7-4.4,9.7c-1-2.8,2-4.5,3-7.4C415.9,181.1,414.7,175.1,417,170.5z"/>
	<path fill-rule="evenodd" clip-rule="evenodd" fill="#594118" d="M406.3,191.2c0-1.4,0.8-1.9,1.3-2.7c2.5-4.6,1.4-12.7,5-16.1
		C410.2,178.8,410.9,188.9,406.3,191.2z"/>
	<path fill-rule="evenodd" clip-rule="evenodd" fill="#594118" d="M351,172.8c0.5-0.1,0.6,0.3,1,0.3c-0.1,3.9-0.1,7.6,2,9.4
		c2.4-1,2.3-4.6,4.7-5.7c0.5,2.3,0.2,5.4,1.3,7c-2-0.2-1.7-2.5-1.7-4.7c-2.3,0.6-2.1,3.7-4,4.7c-3.7-0.9-2.7-7.9-4-10
		C350.6,173.6,350.8,173.2,351,172.8z"/>
	<path fill-rule="evenodd" clip-rule="evenodd" fill="#594118" d="M103.5,173.8c0.9,1,0.8,2.8,0.7,4
		C102.9,177.5,103.8,175.1,103.5,173.8z"/>
	<path fill-rule="evenodd" clip-rule="evenodd" fill="#594118" d="M204.3,174.1c-3.5,2.7-8.7,3.6-13.4,5
		C195.1,177.2,199.3,175.2,204.3,174.1z"/>
	<path fill-rule="evenodd" clip-rule="evenodd" fill="#594118" d="M427.4,178.5c1.1-0.3,0.1,2.4-0.7,2.3
		C426.6,179.8,427.6,179.7,427.4,178.5z"/>
	<path fill-rule="evenodd" clip-rule="evenodd" fill="#594118" d="M413,180.5c0.2,0,0.4,0,0.7,0c-0.9,0.6-0.1,2.8-1.7,2.7
		C412.4,182.4,412.5,181.3,413,180.5z"/>
	<path fill-rule="evenodd" clip-rule="evenodd" fill="#594118" d="M401.6,181.2c1.4-0.1-0.1,1.6-0.3,2
		C400.3,182.7,401.8,182,401.6,181.2z"/>
	<path fill-rule="evenodd" clip-rule="evenodd" fill="#594118" d="M310.1,197.9c0.4,0.1,0.8,0.6,0.3,0.7c-2.7,2.7-5.6,5.1-8.4,7.7
		C303.3,203.3,307.5,200.5,310.1,197.9z"/>
	<path fill-rule="evenodd" clip-rule="evenodd" fill="#594118" d="M321.2,199.9c-3.4,4.3-8.4,7-11.7,11.4c1.2-4.7,7.5-7.3,10.4-11.4
		C320.3,199.9,320.8,199.9,321.2,199.9z"/>
	<path fill-rule="evenodd" clip-rule="evenodd" fill="#594118" d="M234.8,203.9c-1.5,1-0.5,2.8,0.3,4c-1.3-0.6-1.9-1.9-2-3.7
		C233.5,204,234,203.8,234.8,203.9z"/>
	<path fill-rule="evenodd" clip-rule="evenodd" fill="#594118" d="M240.8,206c0.4,0,0.9,0,1.3,0c1.1,1.4,1.4,5.3,1.3,6.7
		C241.8,211.2,242.7,207.2,240.8,206z"/>
	<path fill-rule="evenodd" clip-rule="evenodd" fill="#594118" d="M249.9,210c0.3,0,0.7,0,1,0c0.2,2.8,1.9,4.1,3,6
		C252.3,215.5,250,212.9,249.9,210z"/>
	<path fill-rule="evenodd" clip-rule="evenodd" fill="#594118" d="M397.9,210c0.3,0,0.7,0,1,0c-1.3,3.9-2.9,7.3-5.7,9.7
		C394.5,216.4,397.5,213.2,397.9,210z"/>
	<path fill-rule="evenodd" clip-rule="evenodd" fill="#594118" d="M268.3,213.7c0.2,2.8,1.2,4.8,2.3,6.7c-2.1-0.5-2.4-2.7-3.3-4.4
		c-0.8,0.3-0.9,1.4-1.3,2C265.9,217.1,266,213.4,268.3,213.7z"/>
	<path fill-rule="evenodd" clip-rule="evenodd" fill="#594118" d="M402.6,230.1c-4,2.7-10.4,3-15.1,5c0.8,1.2,3.2-0.6,3.7,0.3
		c-12.6,2.7-30.1,1.9-44.5-0.7c20.4,2.4,38.4,2.4,55.3-4.7C402.1,230.1,402.3,230.1,402.6,230.1z"/>
	<path fill-rule="evenodd" clip-rule="evenodd" fill="#594118" d="M8.1,90.8c0.8,0.1-0.6,0.7-1,0.7c-0.4,2.2,0.8,4.5,0.3,5.7
		c-2.4,0.2,0.5-6.2-2-6.4C9,78.3,18.2,71.4,28.2,65.3c0.3-0.7,0.5-1.5,1-2c8.3-6.1,24.6-8.7,35.5-5.7c2-0.9,6.6-2.2,8.4-0.3
		c-0.8,2-1,5.1,0.7,6.4c-2.7-0.1-2.1-3.6-1.7-6c-1.3-1.5-3.8,0-6-0.3c-0.2,1.4,1.8,0.6,1.3,2.3c1.3,0.2,1.3-0.9,2.7-0.7
		C60,69,44.8,73.9,38.9,88.1c0.2,1.6-0.3,5.3,0.7,7c0.4-0.1,0.6,0.1,0.7,0.3c8.4,0.1,12-5.7,17.1-10c3.1-2.7,5.8-3.3,7-6.7
		c1.1-0.2,1.1-1,2.3-0.3c-0.3-2,3.2-1,3.7-3.7c1.8,1,2.3-1.8,3.7-2.3c0.4-0.4,0.7-0.3,0.7,0.3c1.6-2.5,4.9-3.5,5.7-6
		C71.8,67.5,68,75.8,60.7,79c4.3-4.3,9.9-7.3,14.1-11.7C66.2,70.1,61.9,77,54.6,81c3.9-4.3,9.1-7.4,13.7-11c-2.2-0.7-4.2,1.6-7,1.3
		c0.8-3.6,4.1-4.6,6.4-6.7c-0.4,1.9-4.3,3.3-5.4,5.7c5.2-0.8,9.1-3,12.7-5.4c-0.1-0.6-1.5,0-1-1.3c7.9,1.3,15.2-2.3,22.4-4.4
		c-1.4,3.2-6.3,2.8-8.4,5.4c4.4-0.7,7-3.2,11.1-4.4c1.4-0.1,0,0.5,0,1c1.4,0,2.6-1.4,3.7-0.7c-1.5,2.5-5.7,2.3-7.4,3.7
		c2,0.5,5.7-1.8,8.7-2.3c-17.6,6.4-32.7,14.3-45.5,25.8c-1.7,1.5-2.9,4-5.4,4.7c1.8-3.3,5-5.2,7.7-7.7c-6.5,3-11.4,12.9-21.1,11.7
		c-0.3,1.6,1.3,1.4,2,2c5-1.1,8.3-3.7,13.1-5c-4.6,2.1-8.6,6.6-15.4,5.4c-1.3-1.8-1.4-4.8-3-6.4c4.2-16.3,16.6-24.3,28.1-33.2
		C55,57.2,44.9,59.4,37.2,62c-2.1,0.7-4.7,1.7-5.7,3.7c-3.7,0.5-8.3,4.2-9.7,7c-3.6,2.1-7.1,6-7.4,10.4c3.7-3.9,6-9.2,10.7-12.1
		c0-1.7,1.1-2.9,2.7-2c-1.8,2.8-5.2,4.2-6.4,7.7c-1.8-1.1-3.3,3.5-4.7,5c1.3,0,2.3-3,3.3-4.4c1.4,1.2-1.9,2.9-2,4.7
		c-0.1,1.4,1.6,1.1,2,2c3.2-3.7,5.4-8.4,8.7-12.1c-2.7,5.4-7.8,11.2-10.7,17.4c-1.1-1.5,1.5-2.2,1.3-4c-3.3,2.8-7.4,11.4-6.4,18.8
		c0.5,3.3,3.4,5.3,2,8c-1.3-1.1-1.7-3-3-4c-1.1,0.5,1.3,2,0,2.7c-1.6-0.4-1.5-2.7-2-4c-0.7-1.8-2.3-4.7-2.3-7.7
		c0.4,0.1,0.7,0.4,0.7,1c1.5-7.4,1-16.8,6-20.8c-2.9,2-6.6,6.2-7,11.7C7.7,91,7.8,90.8,8.1,90.8z M29.5,64.3
		c7.2-3.1,13.9-6.6,24.1-6.7C45.9,56.3,34.8,60.3,29.5,64.3z M60,57.6c-0.2-0.2-1.6-0.8-1.7,0C59.6,58.4,64.1,57.5,60,57.6z
		 M78.1,66c3.9,0.3,7.9-2.2,11.1-3.7C85.6,63.7,80.8,63.8,78.1,66z M48.6,74c4.3-2.7,8.2-5.8,11.7-9.4C55.6,66.9,52,70.3,48.6,74z
		 M73.4,67c1.4-0.5,3.6-0.2,3.7-2C75.1,64.9,74.2,65.9,73.4,67z M79.1,69.7c0.9,0.6-1.4,0.8-1.3,1.7c1.9-0.9,3.8-1.8,5.4-3
		C81.4,68.5,80.1,69.8,79.1,69.7z M82.8,70c1.1-0.3,2-0.7,2.7-1.3C84.3,68.9,83.1,69,82.8,70z M65.7,80c5.4-2.5,10.1-5.8,14.7-9
		C75.1,73.6,70.4,76.8,65.7,80z M10.1,82.4c2.2-3,6.6-5.4,7.4-8.7C15.2,76.3,10.9,80.5,10.1,82.4z M13.8,82.7
		c-0.5,2.2-3.6,3.5-2.3,6.4c0.4-2.1,2.9-3.8,2.7-5.4C13.3,84.8,14.8,82.7,13.8,82.7z M14.8,87.7c0.6,0.1,0.9-0.5,1,0
		c-1.7,1.9-3,5.9-2.7,8.7c0.5-5.1,4.3-8.7,4.4-13.1C16.8,85,15.1,85.7,14.8,87.7z M12.1,89.7c1.4-0.9,2.5-3.9,2.7-5
		C14.1,86.6,12.7,87.7,12.1,89.7z M11.8,94.1c1.5-0.6,1.9-3.9,2-4.7C13.1,91,12.2,92.3,11.8,94.1z M12.1,107.2
		c-1.5-2.2-0.2-6.8-2.3-9C9.3,102.3,10,104.9,12.1,107.2z"/>
	<path fill-rule="evenodd" clip-rule="evenodd" fill="#594118" d="M70,80.4C64.3,86.1,58.7,92,53.6,98.5c-1-0.5,0.6-1.2,0.3-2
		c4.2-4.6,9.1-9.8,13.4-14.1C68.2,81.6,68.3,79.7,70,80.4z"/>
	<path fill-rule="evenodd" clip-rule="evenodd" fill="#594118" d="M44.6,61c-2.2,2.4-5.9,3.3-8,5.7C37.1,65.3,41.3,61.8,44.6,61z"/>
	<path fill-rule="evenodd" clip-rule="evenodd" fill="#594118" d="M80.4,82.4c0.1-0.3-0.1-0.3-0.3-0.3c-6.8,4.8-12.2,11-17.7,17.1
		c-0.4,0.8,1,1.4,0,1.7c-1.4-0.7-0.1-2.1,0.3-3.3c-1.7,0.5-1.9,2.5-3.3,3.3c6-8.4,14.4-14.4,21.8-21.4c-4.2,0.5-7.5,3.6-10.7,6
		c-5.2,3.9-10.1,8.8-15.1,12.7c2.6-3.8,7-7.5,10.4-9.4c12.6-12,28-21.1,46.2-27.5C103,66,94.1,70.8,85.5,75.7
		c0.7-1.7,1.8-1.7,3.7-2.7c-3.4,0.1-6.8,3.3-9.7,5c4.1,0.3,1.2,3.8,0,6.7C79.2,84.7,79.8,82.6,80.4,82.4z"/>
	<path fill-rule="evenodd" clip-rule="evenodd" fill="#594118" d="M49.3,61.6c-0.2,2.4-2.7,2.4-3.3,4.4
		C45.8,64.6,47.8,62.5,49.3,61.6z"/>
	<path fill-rule="evenodd" clip-rule="evenodd" fill="#594118" d="M124.6,77c4.9-5,10.2-9.7,16.1-13.7c-2.9,5.1-10.3,7.6-12.7,12.1
		C127.2,75.2,125.9,77.8,124.6,77z"/>
	<path fill-rule="evenodd" clip-rule="evenodd" fill="#594118" d="M33.2,66c-0.2,1-3.2,2.1-4.7,3C29.4,67.3,31.6,67,33.2,66z"/>
	<path fill-rule="evenodd" clip-rule="evenodd" fill="#594118" d="M150.1,71c1.4-2.4,4.5-3,6.4-5c-0.3,1.8-3.4,4-5.4,5.4
		c-3.2,2.3-7.1,4.2-9.7,7c-0.6,0.6-0.2,1.9-1.7,1.7c0.5-3.8,7.5-5.9,9-8.7C149.1,71.8,150.1,69.6,150.1,71z"/>
	<path fill-rule="evenodd" clip-rule="evenodd" fill="#594118" d="M48.9,67.6c0.1,1.9-3.2,3.3-4.4,5C44.5,70.8,48,69.6,48.9,67.6z"
		/>
	<path fill-rule="evenodd" clip-rule="evenodd" fill="#594118" d="M167.2,68.3c0.5,0.9-1.8,0.3-2.3,1.7c0.5,1.2,0.5-0.8,1.3-0.3
		c0.1,1.7-2.4,0.7-2.7,2c-0.5-0.3-0.7-0.8-0.7-1.7c-1.9,0.4-2.5,1.9-4,2.7c0.2,0.9,1.9-0.8,2,0.7c-0.1,1.7-1.1,0.8-2,1.3
		c-4.4,2.5-9.7,5.1-14.7,8.7c-4.3,3.1-9.6,6.5-12.7,10.4c-3,3.8-7.8,10.2-6.4,16.1c0.5,1,1.4,1.7,2.7,1c-0.4,1.4,0.4,1.7,1,2
		c0.2,1.4-0.8-0.3-1.3,0.7c-0.3,5.5-1.4,10.2-2.3,15.1c0.1,1.1,1.3-0.9,1,0.7c-2.4,2-1.5-2.7-1.3-3.7c0.4-3.6,2-9.3,2-12.7
		c-1.5,1.9-2,4.6-2.3,7.7c-0.7-2.4,0.5-5.8,1.3-7.7c-5.9-7.7,3.1-14.6,4.4-20.1c-3,2.5-4.3,6.6-6.7,9.7c1.2-7.3,6.9-10.3,10.4-15.4
		c4.8-0.9,7.7-6,12.4-8c0.1-3.4,5.1-4.6,7.4-7c-0.4,2.3-3.2,2.2-4,4c4.1-1,9.1-5.1,12.1-7.4c2.2,1.1,2.9-1.5,5.7-1
		C166.8,67.8,166.8,69.3,167.2,68.3z M131,93.1c5.4-4.9,11.6-10.5,18.1-14.1c2.3-1.3,5.2-2.1,6.4-4.4
		C146.7,78.7,136.5,85.9,131,93.1z"/>
	<path fill-rule="evenodd" clip-rule="evenodd" fill="#594118" d="M158.8,68.3c-1,1.8-3.4,2.2-4.4,4
		C154.3,70.2,157.5,68.9,158.8,68.3z"/>
	<path fill-rule="evenodd" clip-rule="evenodd" fill="#594118" d="M179.2,79.7c-5.8-2.4-10.5,3.7-14.4,4.4c1.8-1.7,5-1.9,5.4-5
		c4.2,0.6,5.5-3.4,8.7-2.7c-0.8,0.6-2.1,0.8-2.7,1.7c2.2-0.1,3.2-1.5,5.7-1.3c-2-1.8-8.1-3.8-7.7-8c3.6,9.4,16.7,7.3,24.8,3.3
		c1.2,1.1,1.4-0.2,2.7,0.3c-2.8,2.7-7.3,3.3-11.1,4.7c-3.9,1.5-7.6,3.1-11.4,4.4c-8.2,4.4-16.4,8.9-23.1,14.7
		c1.5-2.5,4.5-4.6,7.7-6.7c2.2-1.5,5.9-2.8,7.4-4.4c0.3-0.3,0-1.4,0.3-1.7C173.7,81.5,177.1,81.4,179.2,79.7z"/>
	<path fill-rule="evenodd" clip-rule="evenodd" fill="#594118" d="M33.5,69c0.7,0.6-0.9,3.3,2.3,3.3c-2.6,3.7-5.5,7.3-7.7,11.4
		c0.2-4.4,5.9-6.2,5.7-12.1c-3.2,0.4-4.3,4.4-6,7c-1.9,2.8-4,5.5-6,7.7c0.5,0.5,1.7,0.4,2,1c-3.3,3.4-5.8,7.6-6,14.1
		c1.8-3.1,4.6-6.6,4.4-10.7c1.7-1.9,2.7-4.3,5-7c0.4,1.6-2.1,3.3-3,4.7c-0.1,0.8,1,0.4,1,1c-1.2,2.7-2.9,4.9-3.7,8
		c0.7-0.9,0.8-1.2,1.3,0c0.6-1.7,2.4-2.9,2.7-4.7c0.1-0.5-0.5-1.1-0.3-1.7c0.9-3.1,3.5-5,6-8c2.7-3.3,4.1-6.9,6.7-9.4
		c-2.5,6.4-9.7,11.1-12.4,18.4c0.9-0.5,0.6-2.1,2.3-1.7c-2.7,6.1-7.3,11.4-6.7,18.1c-1.6-0.2,0.1-3.7-1.3-4c1.2-2.3,1.9-4.5,2-6.4
		c-1.4,2.3-1.7,2.9-0.7-0.3c-0.4,0.8-2.5,2.9-1,3.3c-0.3,0.9-1,1.4-1.3,2.3c-0.3-0.9-1.8-1-1.3,0.7c-0.8-1.6,0.1-4.4,0.3-6
		c-1.6,0.6-0.9,3.6-2,4.7c-1.4-3.8,2.5-6.8,3-10.4c1.1-8.5,11.4-15,13.1-22.1c-0.1-1-1.4,1.4-1.7,0.3C30.4,67.8,33.9,72.1,33.5,69z
		 M19.1,91.4c1.3-0.7,2.5-3.3,2.3-4.4C20.9,88.7,19.4,89.4,19.1,91.4z"/>
	<path fill-rule="evenodd" clip-rule="evenodd" fill="#594118" d="M28.5,97.1c-2,2.2-0.5,6.7-1.7,9.7c0.1,1.3,1-0.2,1.3,0.7
		c-2.9,2.1-1.7-4.6-1-6.4c-1.4,1.2-2.8,3.3-4.4,5.4c-1.6-6.4,5.6-12.1,6.4-19.4c0.4,1.7,0.5,3.1,0.3,5.4c0.3,0.9,0.8-0.7,1-1
		c0.4,1.9-2.6,4.9-1,8C28.8,100.4,28.2,98.3,28.5,97.1z M23.5,104.8c1.7-3.3,4.3-7.5,4.7-11.1C26.2,96.8,23.9,101.3,23.5,104.8z"/>
	<path fill-rule="evenodd" clip-rule="evenodd" fill="#594118" d="M207,71.7c0.3-1,2.4-1.2,3.3-1.3c19.5-2.4,42.2,4.8,59.3,8.7
		c0,0.3-0.4,0.3-0.7,0.3c-16.3-3.6-37.5-10.1-56.9-8C210,71.5,208.1,71.9,207,71.7z"/>
	<path fill-rule="evenodd" clip-rule="evenodd" fill="#594118" d="M222.1,73c-0.8,0.5-2,0.7-3,1C219.8,73.4,220.8,72,222.1,73z"/>
	<path fill-rule="evenodd" clip-rule="evenodd" fill="#594118" d="M225.8,73c-1.5,3.3-6,3.6-8,6.4c-0.5,0.1-0.6-0.3-1-0.3
		c-0.9,2.1-3.4,2.6-5,4c-0.1,0.9,1.9-0.3,1.3,1c-1.1-0.2-1.2,0.6-2.3,0.3c1.1-4.4,6.9-4.2,8.7-8C221.4,77.6,223.1,73.3,225.8,73z"/>
	<path fill-rule="evenodd" clip-rule="evenodd" fill="#594118" d="M144.1,73.7c0,0.8-2.1,2.4-3.7,2.7
		C141,74.9,143.1,74.8,144.1,73.7z"/>
	<path fill-rule="evenodd" clip-rule="evenodd" fill="#594118" d="M41.9,74.3c0.4,1.2-1.7,2.8-3,3.3C39.6,76.3,41.3,75.8,41.9,74.3z
		"/>
	<path fill-rule="evenodd" clip-rule="evenodd" fill="#594118" d="M214,74.3c-4.6,2.3-10.1,2.6-14.7,5c0.6-1.9,3.4-1.7,5.7-2.3
		C207.9,76.2,210.4,74.7,214,74.3z"/>
	<path fill-rule="evenodd" clip-rule="evenodd" fill="#594118" d="M216.4,75c-2.2,2.3-5,3.9-8,5.4c-0.5,0.6,0.5,1.9-1.3,1.7
		C209.4,78.4,213.1,77.4,216.4,75z"/>
	<path fill-rule="evenodd" clip-rule="evenodd" fill="#594118" d="M227.1,82c-1.8,0.6-2.9,2.1-5,2.3c1.3-4.6,6.1-5.7,8.4-9.4
		c-0.3,3.4-5.2,5-7,8C224.2,83.6,225.3,81.6,227.1,82z"/>
	<path fill-rule="evenodd" clip-rule="evenodd" fill="#594118" d="M228.1,84.7c0.2-3.7,5.8-3.5,5.4-6.7c1.4-0.5,3-2.2,4.4-1.7
		c-2.5,2.7-5.7,4.8-8.4,7.4c-0.1,0.6,1.2,0,1.3-0.3C231.3,83.9,229.4,84.9,228.1,84.7z"/>
	<path fill-rule="evenodd" clip-rule="evenodd" fill="#594118" d="M200.3,76.4c-13.3,3.9-25.1,9.3-36.2,15.7
		C174,84.7,186.1,79.5,200.3,76.4z"/>
	<path fill-rule="evenodd" clip-rule="evenodd" fill="#594118" d="M86.5,79.4C80,86.5,72.1,95.1,65,102.8c0-2.8,2.9-4.2,4.7-6
		C75.2,91.3,80,84.1,86.1,79C86,79.6,86.4,79.7,86.5,79.4z"/>
	<path fill-rule="evenodd" clip-rule="evenodd" fill="#594118" d="M234.8,81c0.9,1.4-2.3,1.5-3,2.3C231,82.1,234.2,82,234.8,81z"/>
	<path fill-rule="evenodd" clip-rule="evenodd" fill="#594118" d="M277.7,95.1c0.3-1,1.8-2,2.7-1.3c0.4-1.5-1.3-1.8-2.7-2.3
		c0.2-1.1,1.5-0.6,0.7-2c0.5,0,0.9-0.1,1,0.3c0.1-1.4-2.6-2.8-2.3-5.4c-11.7,4-21.4,10-31.8,15.4c3.9-3,8.4-5.3,12.7-7.7
		c4.4-2.5,9.2-4.3,13.4-7c-1.5-1.2-3.7,2.4-5,0.3c-1.5,0.5-2.3,1.7-4.4,1.7c-0.1-0.7,0.2-0.9,0.3-1.3c-2.9,0.1-3.1,1.8-6.4,2
		c1-2.6,5.2-4.8,8-6.7c-1.2,2.5-3.9,3.5-6,5c2.4,0.4,3.4-1.5,6-2c0.6,0.6-0.2,0.6,0,1.7c1.7-0.5,2.6-1.9,4.4-2.3c0,0.6,0,1.1,0,1.7
		c0.9-0.4,1.8-0.9,2.7-1.3c1.3-0.3,0.7,1.3,1.7,1.3c1.7-0.4,3.4-1.9,5-1.3c2.5,10.4,17.1,10.6,30.8,10.7c-2.3,0.9-2.8,0.4-5.7,1
		c0.3,1.5,2.6-0.6,3.3,0.3c-2.1,2.1-8.9-0.5-12.1,1.3c-1-0.4-1.2-1.5-3-1c2.2-1.2,7.8-0.6,11.4-0.3c-7.7-1.3-15.4-1.6-21.8-5.4
		c0.8,1.9,3.7,4.6,7.4,4.7c-1,1.5-2.9-1-4,0.7C284.1,92.4,278.8,94.2,277.7,95.1z"/>
	<path fill-rule="evenodd" clip-rule="evenodd" fill="#594118" d="M163.1,81.7c0.9,0.7-1.9,2.3-2,2C161.4,83,162.3,82.6,163.1,81.7z
		"/>
	<path fill-rule="evenodd" clip-rule="evenodd" fill="#594118" d="M257.6,122.9c-1.4,2.3-4.5,2.7-7.7,4.7c-0.3-0.6,1-1.1,0-1.3
		c-4.2,0.7-8.2,4.5-12.7,6c0.4,1,1.2-0.4,2,0c-2.4,2.3-6.2,3.1-9.4,4.7c-0.1-0.7,0.2-0.9,0.3-1.3c-4.9,2.2-6.4-1.5-5.7-6.4
		c-0.7,1.3-1,3-1,5c-1-1.7-0.1-5.5,0.7-8c-0.1-1.4,0.5,0,1,0c8.3-14.3,21.1-24.6,36.5-32.5c3-1.5,6.1-3.5,9.4-4
		c-9.9,5.9-21.3,10.6-30.1,18.4c-6.1,5.4-10.4,12.4-15.1,19.1c0,2.5,0,4.9,0,7.4c8.5,1.1,14.5-6,21.8-8.4c1.7-3.7,9.5-7.5,15.7-11.1
		c8.7-5,17.9-11.4,29.8-12.7c3.6-0.4,5.6-1.1,8.4-1.7c6.3-4.3,16.4-3.8,24.4-5.7c0.3,0.6,1,0.2,0.3,1c16.1,4.2,32.4,6.1,45.2,13.7
		c-0.2,1.6-1.8,1.8-3,2.3c0-0.7,0.9-0.4,0.7-1.3c-5.6,0.8-10.7,4-16.4,5.7c5.3-2.6,10.3-5.6,17.7-6c-7-5-19.9-8.3-28.8-10
		c-1.8-0.4-5.1-1.4-6.7-1.3c-3.1,0.1-7.3,2.5-10.7,4c-10.3,4.5-21,10.2-31.5,13.4c13.8-5.7,26.4-12.4,40.5-17.7
		c-1.7-1.6-3.6,0.7-4.7-1c-17.1,5.4-32.6,12.5-47.6,20.1c1.1-2.1,3.9-3,6-4c12.4-5.8,26.6-12.1,40.5-16.4c-2.2-1.6-5.4-0.6-7,1
		c-2.9,0-7.5,1.2-10.4,1c-0.2-0.7,0.6-0.5,0.7-1c-3.7,0.2-5.8,1.9-8.7,2c-0.4,0.5-0.4,0.8,0.3,1c-4.5,0.5-9.6,3.1-13.4,5.4
		c0.9-1.9,3.5-2.1,5-3.3c-16.9,1.8-28.8,11.6-41.2,19.1c11.1-6.1,22.6-11.8,35.8-15.7c-0.1,1-1.6,0.7-2,1.3c3.9-0.4,8.3-1.4,11.7-3
		c0.4,1.7-4.1,1.3-4.7,3c-0.5-0.1,0.1-0.4,0-1c-9.6,2.6-18.7,5.6-27.1,9.7c-5.1,2.5-10.6,4.5-14.4,8.4
		C253.7,125.1,256.4,123.7,257.6,122.9z M279.3,110.8c1.1-0.6,3-0.4,3.3-1.7C281.7,109.6,279.1,110.3,279.3,110.8z M249.2,124.9
		c1.2-0.3,2-0.9,2.7-1.7C250.7,123.5,250,124.3,249.2,124.9z"/>
	<path fill-rule="evenodd" clip-rule="evenodd" fill="#594118" d="M127,91.4c-0.7,3.4-4.1,4.2-4,8.4c-1.3-0.4-0.4-2.3-0.3-3.3
		c-2.4,2.3-4.5,6.6-7.7,7c0.8-4.5,2.9-7.8,4.7-11.4c-0.5-1.5-0.7,0.4-2,0c0.6-0.9,1.2-1.7,2.7-1.7c-0.5,4.9-3.1,7.6-4.4,11.7
		C120.7,99.9,123,93.4,127,91.4z"/>
	<path fill-rule="evenodd" clip-rule="evenodd" fill="#594118" d="M178.5,90.8c-4.3,3.2-7.8,5.8-12.4,8
		C170.4,95.6,174.1,93.3,178.5,90.8z"/>
	<path fill-rule="evenodd" clip-rule="evenodd" fill="#594118" d="M168.8,98.5c-1.4,1.4-4.8,3.7-6.7,5.7c-0.8-0.7,1.1-1.6,1-2.7
		C165.3,102,166.4,98.7,168.8,98.5z"/>
	<path fill-rule="evenodd" clip-rule="evenodd" fill="#594118" d="M275.7,91.4c-10,5.7-20.3,10.9-27.8,19.1c-1-0.5,0.2-1.8,0.7-2.3
		c2.7-3.2,8.4-6.4,13.1-9.4C266.2,95.8,270.9,91.9,275.7,91.4z"/>
	<path fill-rule="evenodd" clip-rule="evenodd" fill="#594118" d="M117.6,92.8c-0.7,1.2-2.3,1.5-2.3,3.3
		C113.9,95.2,116.4,93.2,117.6,92.8z"/>
	<path fill-rule="evenodd" clip-rule="evenodd" fill="#594118" d="M183.9,93.4c-1.1,1.2-6.4,5.7-9,6.4
		C178,97.8,180.6,95.2,183.9,93.4z"/>
	<path fill-rule="evenodd" clip-rule="evenodd" fill="#594118" d="M186.2,95.4c-4.1,3.8-8.3,7.6-13.1,10.7c-3.2,5-7.3,9.2-10.4,14.4
		c-0.1-2.6,2.3-4.8,4-7c2.1-2.7,3.9-5.4,5.7-8C178.1,103.2,181.1,98.2,186.2,95.4z"/>
	<path fill-rule="evenodd" clip-rule="evenodd" fill="#594118" d="M200.3,95.4c-2.7,2.3-5.3,4.7-8.4,6.7
		C193.7,100,196.9,97.1,200.3,95.4z"/>
	<path fill-rule="evenodd" clip-rule="evenodd" fill="#594118" d="M289.7,95.4c-1.7,1.4-3.6,2.7-6,3.3c-1.3-2.5-2.9-4.1,0.3-0.7
		C286.4,97.7,287.4,95.9,289.7,95.4z"/>
	<path fill-rule="evenodd" clip-rule="evenodd" fill="#594118" d="M193.6,95.8c-3,2.7-6.6,5.9-10,8.7c-2.7,2.2-5.7,3.9-8.4,6
		c-3.9,3.1-5.8,8.2-8.7,12.4c1.1,1.4,2.2-2.5,2.7-0.7c-1.5,0.3-2.2,2.8-3.7,2c0.3-3.7,2.9-5.6,5-8.7c2.2-3.2,3.1-6.2,5.7-8.4
		c0.1,1.3-0.7,1.7-1,2.7C182.1,105.9,187.1,100.1,193.6,95.8z"/>
	<path fill-rule="evenodd" clip-rule="evenodd" fill="#594118" d="M175.9,96.4c-1.8,1.7-3.3,3.6-5,5.4c2,0.1,2.4-2.4,4-1.7
		c-7.3,3.9-12.9,9.9-19.4,15.4c0.8-1.8,2.8-3.4,4.4-4.7c4.7-3.9,9.2-8.5,13.7-12.4C173.9,97.5,174.7,95.6,175.9,96.4z"/>
	<path fill-rule="evenodd" clip-rule="evenodd" fill="#594118" d="M203.7,97.5c-4,4.4-8.8,7.9-13.4,11.7c0.1-1,3.2-3.7,4.4-3.7
		C197.1,102.2,200.3,99.8,203.7,97.5z"/>
	<path fill-rule="evenodd" clip-rule="evenodd" fill="#594118" d="M208,98.8c-2.3,4.7-8.8,8.2-13.1,12.1c-1.9,9.9-8.4,18.5-8,28.5
		c-1.5-0.9-1.2-2.1-1-3.7c0.9-7,6.7-15.5,7-22.8c0.1-0.7-1,0.1-1,0.3c-0.4-1.2,2.6-1.8,2.7-3.7c3.3,0.1,5.6-5.3,8.7-5.4
		C204.1,101.2,207,100.7,208,98.8z"/>
	<path fill-rule="evenodd" clip-rule="evenodd" fill="#594118" d="M214.4,99.8c-3.8,5.1-11.3,9.4-16.1,14.7
		c-0.3-0.1-0.6-0.3-0.7-0.7c-3.3,6.1-6.9,16.4-8.4,26.5c0.6,0.1,0.6-0.3,0.7-0.7c0.7,0.1,0.3,1.8-0.3,1.7c-2-0.9-0.5-2.5-0.3-3.7
		c0.9-8.9,4.8-20.1,9.4-26.8c0.3,1.2-0.5,1.3-0.3,2.3C203.9,108.9,208.8,104.1,214.4,99.8z"/>
	<path fill-rule="evenodd" clip-rule="evenodd" fill="#594118" d="M220.1,101.1c-3.4,4.6-8.9,10.1-13.7,13.4
		c-3,7.9-6.9,18.7-8.4,26.8c-0.3,1.6,0.6,3.6-1.3,4.4c1.9-10,4.5-19.1,7.4-28.1c-0.9-0.8-1.8,1.3-3,1.3c1-2.2,4.2-2.3,4.4-5.4
		c1.2,1.1,5.3-2.7,7-4.4C215.2,106.3,217.7,102.7,220.1,101.1z"/>
	<path fill-rule="evenodd" clip-rule="evenodd" fill="#594118" d="M227.8,102.1c-5.5,4.1-10.9,11.1-17.1,15.7
		c-0.2,1.1,0.6,1.2,0.3,2.3c-3.2,7.6-6.8,17.4-7,27.1c0.8,0.1,1-0.5,1.3-1c0.4,0.4-0.2,2.7-2,2c-0.7-8.6,4-20.3,6.7-29.1
		c-0.8-0.8-1.5,1.4-2.7,1.3c3-3.2,9-8.3,13.4-12.7C222.9,105.6,224.8,102.4,227.8,102.1z"/>
	<path fill-rule="evenodd" clip-rule="evenodd" fill="#594118" d="M191.6,102.1c-2.5,4.1-8,5.4-10.7,9.4c-1.5,2.2-2.1,4.9-3.7,7
		c-1.6,2.1-3.8,3.6-4.4,6.4c0.8-6.7,8-9.9,8.7-17.7c-1.3,1.4-2.3,3.1-3.7,4.4c1.2-2,2.1-4.4,4.7-5c0.1,1.4-0.3,2.1-0.7,3
		C184.4,107.6,188.4,104.4,191.6,102.1z"/>
	<path fill-rule="evenodd" clip-rule="evenodd" fill="#594118" d="M343.3,102.5c-8.6,4.2-17.1,8.5-25.8,12.7c3.8-2.7,8.1-4.9,12.4-7
		C334.1,106,338.5,103.9,343.3,102.5z"/>
	<path fill-rule="evenodd" clip-rule="evenodd" fill="#594118" d="M156.8,103.1c-3,4.2-7.4,7.1-11.1,10.7
		C147.6,111.1,153,106.2,156.8,103.1z"/>
	<path fill-rule="evenodd" clip-rule="evenodd" fill="#594118" d="M220.1,113.2c0.5,0.1,0,0.6-0.3,0.7c4.4-2.1,7.8-8,13.1-10.4
		c-4.2,3.5-7.7,7.8-12.4,10.7c-1.7,9.5-5.6,18.8-7,30.1c0,1.2,1.1-0.7,1,0.3c0,0.9-0.5,1.3-1.3,1.3c0-10.8,4.1-20.4,6.4-30.1
		c-6.3,1.9-9.1,11.8-9.7,19.4c-1.3-4,1.6-8.9,2.3-13.1c-0.1-0.7-0.9,0.5-1.3-0.3C213,119.4,217.4,117,220.1,113.2z"/>
	<path fill-rule="evenodd" clip-rule="evenodd" fill="#594118" d="M31.5,103.8c1.9,1.2,0.4,3.9,2,5c-1.7,0.8-1.4-3.3-2.3-4.4
		c-1,0.6-1.7,1.7-2.7,2.3C28.4,106.1,30.2,104.3,31.5,103.8z"/>
	<path fill-rule="evenodd" clip-rule="evenodd" fill="#594118" d="M97.2,123.6c0.9,0.6-1.1,1.1-1,2c-1.3-0.8-0.6-2.9-0.3-4.4
		c0.6-2.8,1.6-6.7,2.3-9c0.7-2,2-5.6,3-8c-0.1,6.9-4.1,12.9-5,20.1C96.7,124.3,97,124,97.2,123.6z"/>
	<path fill-rule="evenodd" clip-rule="evenodd" fill="#594118" d="M107.6,104.2c-2,7.7-4.7,11.7-5,20.1c0.6,0.1,0.6-0.3,0.7-0.7
		c0.5,0.8-0.2,1.4-0.7,2c-1.8-3,0-5.7,0.7-8.7C104.3,112.2,104.4,106.8,107.6,104.2z"/>
	<path fill-rule="evenodd" clip-rule="evenodd" fill="#594118" d="M45.9,106.2c-0.6,0-0.9,0.2-1,0.7c-0.7-0.3,0.6-1.4,0.7-2
		c2.4,1.3-0.7,4.7,1.3,6.7C45.1,112.2,45.7,107.9,45.9,106.2z"/>
	<path fill-rule="evenodd" clip-rule="evenodd" fill="#594118" d="M344.6,104.8c-6.6,4.6-15.7,7.3-21.8,11.4c0-1,2.2-2.2,3-2.7
		C331.4,110.5,338.4,107.4,344.6,104.8z"/>
	<path fill-rule="evenodd" clip-rule="evenodd" fill="#594118" d="M353,105.8c-8.9,5.2-19.4,10-28.5,14.1c0.1,0.5,0.8,0.3,1.3,0.3
		c-0.1,0.7-2.1,1.2-2.3,0.7c0.9-1.7,2.8-2.6,4.4-3.3C336.1,113.5,345.2,109.2,353,105.8z"/>
	<path fill-rule="evenodd" clip-rule="evenodd" fill="#594118" d="M235.8,106.5c-1.1,0.2-2.2,2.6-3.7,3.3
		C232.5,108,234.5,106.3,235.8,106.5z"/>
	<path fill-rule="evenodd" clip-rule="evenodd" fill="#594118" d="M78.1,110.5c0,5.5-1,8.5,1.7,12.4c5.2-0.1,2.9-7.6,6.4-9.4
		c-1,3.1-3,6.8-2.7,10c0.9,0.1,0.8-0.9,1.3-1.3c0.5,0.2-0.4,1.8-1,2c-1.1,0-1.1-0.9-1.3-1.7c-0.6,0.6-0.9,1.4-2,1.3
		c-4-0.9-3.6-7.9-3-12.4c-2.7,2.9-3.9,7.3-6.7,10c-3-2.1-0.5-8.8-0.3-12.1c0-0.8-0.9,0.1-0.7,0.7c-0.5-0.8,0.6-2.9,1.7-3.3
		c0.1,5.2-1.9,8.4-1.3,14.1C74.3,119,73.8,112.4,78.1,110.5z"/>
	<path fill-rule="evenodd" clip-rule="evenodd" fill="#594118" d="M114.2,126.3c-1.7-6.5,1.4-13.7,3-19.1c0.9,4.8-4,11.4-2.7,18.1
		c1.3-0.3,1.4-1.8,2-2.7C117.5,121.8,116.5,126.3,114.2,126.3z"/>
	<path fill-rule="evenodd" clip-rule="evenodd" fill="#594118" d="M292.7,108.2c-3.8,2-8.4,3.2-12.1,5.4
		C283,111.4,288.2,109.3,292.7,108.2z"/>
	<path fill-rule="evenodd" clip-rule="evenodd" fill="#594118" d="M154.4,109.2c-1,1.2-2.4,2.1-3.7,3
		C150.5,112.3,152.6,109.2,154.4,109.2z"/>
	<path fill-rule="evenodd" clip-rule="evenodd" fill="#594118" d="M189.3,109.2c0.3,1.2-1.8,1.9-2.7,2.3
		C186.9,110.1,188.8,110.4,189.3,109.2z"/>
	<path fill-rule="evenodd" clip-rule="evenodd" fill="#594118" d="M359.7,109.2c-1,1.6-2.5,1.4-4,2
		C356.8,110.2,357.8,109.3,359.7,109.2z"/>
	<path fill-rule="evenodd" clip-rule="evenodd" fill="#594118" d="M312.2,110.8c-8,5.4-16.2,8.9-24.8,12.7
		C295.3,119,304,115.2,312.2,110.8z"/>
	<path fill-rule="evenodd" clip-rule="evenodd" fill="#594118" d="M186.6,111.9c-2.3,0.4-1,2.5-2.7,3.7c-1.2,5-2.5,9.8-4.4,14.1
		c0.3,1.7-0.7,3.4-1.7,2.7c2.8-5,3.1-12.5,6.4-17.1C183.9,113.8,184.7,111,186.6,111.9z"/>
	<path fill-rule="evenodd" clip-rule="evenodd" fill="#594118" d="M177.5,111.9c-0.3,1.8-2.3,4.8-4.4,6
		C174.5,115.7,176.3,114.1,177.5,111.9z"/>
	<path fill-rule="evenodd" clip-rule="evenodd" fill="#594118" d="M349.3,119.2c-5.7,5.7-12.1,10.6-16.7,17.4c0.6-2.6,2.7-5.1,4.7-7
		c2.3-2.2,5-4.3,7.4-6.7c2.3-2.4,4.5-5.3,7.7-6.4C351.9,117.9,352.4,120.5,349.3,119.2z"/>
	<path fill-rule="evenodd" clip-rule="evenodd" fill="#594118" d="M352,117.9c5.2-2.1,10.6-4.1,16.1-6c0.6,0.9-1.5,0.6-0.3,1
		C362.5,113.7,357.3,117.4,352,117.9z"/>
	<path fill-rule="evenodd" clip-rule="evenodd" fill="#594118" d="M361.4,120.6c-0.6,0.1-1.9,1.2-2.3,0.3c0.6-1.1,2.3-1.1,3.3-1.7
		c-6.8,1.7-14.1,6-20.8,11.4c-4.7,3.7-7.7,8.2-11.4,13.7c-2.6,3.8-7,9.1-1.7,12.1c-2.2,0.9-3.2-2.3-4-4
		c6.4-14.9,17.4-25.3,31.8-32.1c-1.7,0-4.3,0.2-6.4,1c5.7-3.1,12.7-5,19.1-7.4c0.2-0.7-0.5-0.6-1-0.7c0.5-0.9,2.7-1.4,3.3-1
		c-0.3,1.6-2.2,1.6-3.3,2.3c1.3,0.7,4.1-1.5,5.4,0c0.4,1.5-1.1,1.1-1,2.3c-5.6,1.1-8.9,4.5-14.1,6
		C358.8,121.5,360.8,121.8,361.4,120.6z M367.1,117.9c0.5-0.9,3.5-1,2.7-2C369.2,116.6,366.2,116.8,367.1,117.9z"/>
	<path fill-rule="evenodd" clip-rule="evenodd" fill="#594118" d="M45.3,127.9c-4.9,2.2-9,3.9-13.4,7c-0.2,1.1,1.2,0.5,0.3,1.3
		c-4.8-1-8.9-4-14.1-4.4c-4.7-0.3-9.3,4-13.7,1.7c-3.2-2.9-5.3-5.5-4-11.7c0.8-3.7,3.3-6.5,6-7.7c2,2.2,9.1-4.7,8.7,0.3
		c-0.7-0.1,0.5-0.9-0.7-1c-3.4,0.2-6.5,2.4-9,2.3c-5,3.1-6.2,14.2-0.7,17.1c4.4,1.6,8.1-1.8,12.1-2c5.1-0.3,9.3,2.8,13.7,4.4
		C34.7,132.4,39.3,128.5,45.3,127.9z"/>
	<path fill-rule="evenodd" clip-rule="evenodd" fill="#594118" d="M228.8,112.5c-0.2,1.9-3.5,3.7-5,5.4c-2,9.4-4.7,17.2-6,27.8
		c-0.2,1.3,1.2-0.4,1,1.3c-0.3,0.1-0.6,0.3-0.7,0.7c-2.7-1.8-0.5-5.8,0-8c1.5-6.7,3-14,4.4-20.4c-1.6,0.1-1.4,1.9-3,2
		c1.2-2.5,4.6-4.1,5-6.4c1.6,0-0.7,0.8,0,2C225.3,114.9,227.6,114.2,228.8,112.5z"/>
	<path fill-rule="evenodd" clip-rule="evenodd" fill="#594118" d="M18.5,113.2c2.4-0.1,5.2,2.3,7.7,3.3c1.6-2,6.5,0.3,10,2.7
		c0.2,0.7-0.6,0.5-0.7,1c20,7.4,39.1,16.9,61.6,19.4c10,4.3,23.5,4.4,31.8,8c-1,0.6-2.7-1.1-3.7-0.7c0.1,1.3,0.9,2,2,2.3
		c1.1-1.8,3.2-0.3,5,0c0.6-0.9-2.3-1.1-2.7-1.3c11.7,1.9,23.1,7.1,35.5,9.4c-1.6,0.8,1.6,1.4,1,0.3c3.4,2.5,8.7,4,12.1,3.3
		c1.6,0.1-0.4,0.1,0,1c1.2,0.8,2.5,0.4,4,1.3c1.1,0.3,0.5-1.1,1.3-1c13.2,5.3,26.4,10.7,41.2,14.4c-10.8-4.8-23.1-8.1-34.8-12.1
		c36,9.6,69.9,25.1,112.5,28.1c9,0.6,17.6,2,26.8,3.3c-9.2,0.4-20.8-2.7-31.1-2.7c23.5,3.6,47.1,6.6,73,9.4
		c-5.5,0.9-13.7,2.2-20.8,0.7c0.4-1.2,1.6,0,2.3,0c2.6,0.1,5.1-0.7,9.7-0.3c-17-2.7-37.5-3.8-53.9-6.7c-4.4,2.3-7.2,6.2-11.7,8.4
		c2.6-3.3,6.5-5.3,9.4-8.4c-3.4-0.4-5.2-0.9-8.4-1c-4.6,4-9.3,7.9-13.4,12.4c-0.4-1.5,3.3-4.7,5.4-6c1.3-2.8,4.6-3.6,6-6.4
		c-0.6-1.5-1.4,1.3-1.7,1.3c-0.2,0-0.7-1-0.7-1c-4.2,2.1-6.8,8.1-10.4,11.4c1.9-4,5.8-8.9,9.7-12.1c-4-1.1-8,0.5-12.4-0.3
		c-0.1-0.5-1.1-0.3-0.7-1.3c-5.4,0.2-11.3-1.2-15.7-2.3c3.9,0.3,6,0.9,10.4,1c-5.5-1.4-11-2.8-16.4-4.4c-0.2-0.9,0.7-0.6,1-1
		c-9.2-2.2-24.9-3.1-35.5-4.7c-1.8,1.2-3.4,2.6-5.4,3.7c-0.6-1.6,2.5-2.4,3-4c-1-0.6-3.5,0.1-3.7-1.3c-5.7,6.3-15.7,10.9-27.5,11.7
		c-9.4,0.7-18.7-1.8-24.4-6.7c-1.8-0.3-3.3-0.9-4-2.3c-2.1-0.4-4.3-0.8-4.7-3c4.5,1.6,9.6,5.5,15.7,5.7c-1.2-2.5-6.8-1-9-3.3
		c1.8,0.7,4.2,0.7,6,1.3c-2.1-2.5-6.1-3.3-9-5c-11.9,4.1-28.1,3.1-38.2-2.3c-1.1-0.2-1.2,0.6-2.3,0.3c1.3-1.9-1.9-2.2-3.3-3.3
		c-0.3-0.2-0.3-1.2-0.7-1.7c-0.4-0.5-1.3-0.3-1.3-0.3c-1.2-1.3-0.5-2.4-2-2.7c-0.2,3.2,1.6,4.5,3,6c-2.6-0.3-3.6-2.2-4-4.7
		c-1.3,2.1-1.8,5.1-3.3,7c5.8,3,14.1,3.5,21.1,5.4c-5.8,0.1-12.3-2-18.1-3c0.9,2.2,3.7,1.9,5.7,2.3c12.9,3.2,29.9,6.1,42.5,10.4
		c-4.6-1.1-8.8-2-12.7-3c5.3,3.8,12.4,4.9,19.4,6.7c8.5,2.1,17.3,4.6,25.8,6.4c1.2,0.6,0.8-0.2,2-0.3c8.3,5.2,20.3,4.6,31.5,7.4
		c11.8,2.9,23.5,7,35.5,9.4c-0.1-1.2-2.2-5.6,0.7-6.7c-0.5,2.7-0.5,5.9,1,7.4c6,1.3,11.9,2.6,17.7,4c-0.2-1.5-1.7-3.6-1-6.4
		c1.9,0.9,0.8,4.8,2,6.4c3.3,1.4,3.5-1.7,4.7-3.3c1.2,0.9,0.7,3.8,2.3,4.7c2.1,1.2,5.8,1.3,9,2c8.1,1.9,17.9,4.4,26.1,6
		c5.9,1.2,11.7,1.2,16.1,3.3c-17.8-2.7-35.3-7-52.6-10.7c-19.5-4.2-40.3-8.8-58.3-14.1c-8.2-2.4-16-2.7-24.8-4.7
		c-3.8-0.9-7.4-2.6-11.1-3.7c-13.1-3.7-26.7-4.9-39.5-9.4c11.2,4.2,22.3,8.5,36.2,10c0.2,0.7-0.5,0.6-1,0.7c8.5,4,18.4,5.1,28.1,7
		c15,2.9,29.8,6.8,44.5,10.7c-3.5,0.8-9.1-1.8-14.1-3c-19.1-4.6-40-7.7-58.9-13.1c-0.3-0.8-0.7-1.5-1.3-2
		c-15.4-2.1-30-8.7-45.5-12.4c-21.5-5.1-42.6-10.6-64.3-16.4c-1.8-3-3.1-7.2-2.7-11.4c1.3,0.6,1.4,2,3.3,1c0.7,0.5-2.2,0.3-2,1.3
		c1.1,2.5,2.1,5,3.7,7c-1.5,0.6-1.6-3.1-3.3-3.3c0,2.2,1.1,3.4,1.7,5c3.1,0.5,6.1,1.3,9,2c0-2.2-1.4-3-1.3-5.4
		c-1.6,0.2,0.3,2.2-0.7,2.7c-4.5-0.1-5.1-8-3.3-10.4c0.1,4.2,0.1,8.4,2.7,10c1.9-2.5-0.7-8,1.7-10.4c-0.4,5.4,0.7,9.3,2,13.1
		c20.1,7.2,43.6,11.1,65,17.1c-2.4-1.8-6.7-1.6-7.7-4.7c-12.5-2.9-23.2-3.9-35.5-8c-0.1-0.9,0.1-1.4,1-1.3c-0.8-0.6-1.8-0.9-3-1
		c-0.9-3.6-2.5-6.5-3-10.4c-0.7,0.5-0.2,2.1-0.7,2.7c-1-1.1,0.3-2.8,0.3-4c2.6,1.7,1.8,6.7,3.7,9c1-2.8,3.7-5,3.7-8
		c0-2.3-2.5-4.2-2-7c-7.5,4.4-16.7,1.7-21.8-3.3c-5.9-2.5-8.3,3.1-12.7,3c-1.9,0-6.4-3.1-8.4-4.7c-2.7-2.2-4.3-5.1-8-5
		c-5.1,0.2-6,5.2-13.1,4.7c0.3,2.6,1,4.8,2.3,6.4c1.1,0,0.8-1.4,2-1.3c0.9,0.5,0.9,1.7,2.7,1.3c-2.2,0.4-2.9-0.4-4.7,1
		c-1.5-0.7-2.1-2.3-2.7-4c-0.7,0.8-0.2,2.9-1.7,3c-2.3-1.5-1.8-5.8-3.7-7.7c-1.3,0.6-0.1,3.7-1.7,4c-2.1-0.9-2.7-5.1-2.7-7
		c-1.7-1.6-2.9-3.6-3.3-6.4c-1.2,3.3-0.2,9.1,2.3,11.7c-5.6-1.5-2.3-11.8-4-15.4c1.1,1.1,0.3-0.9,1-1c1.6,2.8,1.2,8.6,4.4,7.7
		c0.5,0.4,0.3,1.5,0.3,2.3c3.9,3.2,6.5,4.8,11.1,4.4c4.5-0.5,7.5-5.8,13.4-4.7c5.6,1.1,9.6,9.3,14.4,9.4c3.3,0.1,8.1-4.8,13.1-3
		c3.8,1.4,6.1,5.8,11.4,6c2.9,0.1,5.7-2.5,8.7-3c0.5-1,0-1,0.3-2.3c0.9-0.1,1.1,0.5,1,1.3c4-2,6.7-5.1,10-7.7
		c-2.5,0.5-4.1,1.8-5.7,2.3c-0.1-0.5,0.3-0.6,0.3-1c-1.3,0.4-2.5,0.9-4.4,0.7c3.9-1.2,7.7-2.6,11.4-4c-0.1-0.5-1-0.1-1-0.7
		c0.3-1.4,1.6,0.1,2.7-0.7c-5.1-2.1-13.4,2.9-18.4,4c-1.3,0-0.1,1.7-0.7,1.7c-3-1.8,1.7-2.6,3.7-3.3c2.4-0.9,5.1-2.4,7-2.7
		c-3.4-0.7-9.7,1.4-14.1,1.3c3.7-1.5,9.2-1.2,13.7-2.7c-13.5-3.6-23.7-5.8-37.8-9c8.5,3.5,18.8,5.1,27.1,8.7
		c-15.2-4.4-28.2-7.9-44.5-12.1c1.9-0.6,4.6,0.7,6.7,1c-5-4-13.9-5.7-21.8-9.4c-6.7-3.1-13.7-4.7-19.1-8.4c-0.8,0.2-2.4-0.4-2.7,0.3
		c-0.8-0.1,0.3-1,1-0.7C21.8,114.7,19.8,114.3,18.5,113.2z M72.1,135.3c1.1,0.2,2.8,1.6,4,0.7C74.5,136.2,72.7,134,72.1,135.3z
		 M122.3,152.7c2.4-0.7,4.9-1.6,6.4-2.3C125.6,148.5,123.4,150.2,122.3,152.7z M132.3,150.4C128.6,148.7,129.6,150.8,132.3,150.4
		L132.3,150.4z M134,151.7c-8.1-1.9-13.9,3.7-20.1,6.4c0.3,2.4,1.7,3.9,3,4.4c-0.4,0.1-1-0.1-1,0.3c2.3,1.5,3.1,4.5,7,4.4
		c12.7,9.2,39.4,4.8,46.9-6c-4.8-1.5-11.3-1.2-15.4-3.3c-3.5,2.6-9.2,3.9-12.7,4.7c3.5-2.2,9-2.4,11.7-5.4
		c-4.8-1.1-7.4-0.7-11.7-1.3c-6.4,2.9-12.1,5.3-18.1,7.4c-0.1,1,0.9,1.7-0.3,2c-1.1-3.6,4.8-4.1,7.7-5.4c3.6-1.5,7.3-3.1,9.7-4.7
		c-0.8-0.3-2.2-1-1.3-2c4.1,1,9.1,3,13.4,2.7c-8.2-2.2-15.5-5.1-22.4-1.7c-4.4,2.2-8.6,5.8-12.7,6.7
		C122.8,157.5,128.4,154.6,134,151.7z M38.2,156.7c0.5-0.8,0.6-2,1-3c-1.1-0.3-1.4-1.3-2.7-1.3C37.1,153.8,36.8,156.2,38.2,156.7z
		 M43.9,160.7c1.1-1.5-0.6-4,0.3-5.4c-1.1-0.1-1.5-0.8-2.7-0.7C42.8,156.3,42,159.9,43.9,160.7z M110.2,160.1
		c0.1,1.2,0.4,2.2,0.7,3.3c0.9-0.6,2.9,0,3.7-0.7C114.1,160.4,112.5,157.9,110.2,160.1z M111.6,164.4c1.4,0.3-0.2,1.5,1,2
		c0.2-1.3,1.8-1.1,2-2.3C113.6,163.6,112.4,163.8,111.6,164.4z M113.2,167.4c1.5-0.5,3.5-0.5,4.4-1.7c-0.9-0.3-1.1-1.3-2-1.7
		C115.1,165.5,113.2,165.5,113.2,167.4z M173.9,166.1c0.5-1,2.4-0.5,2.3-2C175,164.1,173.2,165.3,173.9,166.1z M174.9,170.5
		c2-1.7,4.5-2.9,5.7-5.4C177.8,164.5,176,169.4,174.9,170.5z M181.9,165.1c-3.1,5.1-9.8,6.7-13.7,11.1c0.1,0.7,0.7,0.9,1,1.3
		c1.4,0.5,1.7-1.8,2.3-1c-0.2,0.5-0.5,0.8-0.7,1.3c0.6,0.2,1.4,0.2,1.7,0.7c4.5-2.6,9.5-4.8,13.7-7.7c-0.8-0.3-1.6-0.6-1.3-2
		c2.5,0.6,3.9,0.4,5.4-0.7c-6.2-3.1-13.7,7.5-18.4,8c4-3.8,9.6-6,13.7-9.7C184.2,166.2,183.4,165.3,181.9,165.1z M195.6,167.8
		c-2.7-0.2-4-1.8-6.7-2C190.2,167.2,193.8,168,195.6,167.8z M163.8,169.4c1.4-1,3.2-1.5,4-3C166.4,167.1,163.5,168.1,163.8,169.4z
		 M113.9,168.4c0.8,0.1,0.6,1.2,1.7,1c0.9-0.3,1.8-1.5,2.3-0.3c0.3-0.9,2-0.4,2-1.7C118.7,167.2,115.9,167.1,113.9,168.4z
		 M166.5,170.1c0.8-0.9,3.5-1.7,3-2.7C168.8,168.4,166.1,169.1,166.5,170.1z M190.3,170.1c0-0.3-0.6-0.4-0.7,0
		c1.5-0.9,5.2,1.3,6.4-0.7c-1.3-0.2-2.9-0.5-4.7-1C190.8,168.8,190.7,169.7,190.3,170.1z M116.3,171.1c1.7,1.5,4.3-0.5,4.7-2.3
		C118.9,169.1,117.5,170.1,116.3,171.1z M121.6,170.1c0.8,0.1,0.7-0.6,1.7-0.3C123.4,168.1,121.4,168.9,121.6,170.1z M149.1,172.5
		c-1.7,2-6.8-0.3-9.7,1c3.8,0.9,9.2,0.8,13.4,0.3c0.9-2.7,9.5-2.1,10-5c-0.1,0.3-1.5,0.9-1.3,0.3c0.2,0,0.4-0.3,0-0.3
		C157.8,171.1,154.5,171.8,149.1,172.5z M130,171.5c-1.2-0.6-2.7-0.8-4-1.3C126.2,171.7,128.6,171.7,130,171.5z M167.8,173.5
		c1.8-1,3.7-1.9,5-3.3C171,171,169.3,172.1,167.8,173.5z M196.6,171.1c1.7,0.3,3.6,1.2,5.4,0C200.3,170.9,197.6,169.2,196.6,171.1z
		 M166.5,173.1c1.4-0.7,2.9-1.3,3.7-2.7C168.8,171.2,167.4,172,166.5,173.1z M174.5,178.8c3.9,1.5,7.3-1.5,10.7-3.3
		c2.5-1.4,5.7-2.8,6.7-4.4C185.6,170.7,180.1,175.7,174.5,178.8z M202,172.5c2,0.3,3.6,1.1,5.7,1.3C207.2,171.6,203.5,171,202,172.5
		z M119.9,173.8c2.4,3,7.6,0.4,10-1.3C127.6,171.6,122.1,171.7,119.9,173.8z M155.8,173.1c1.7,0,3-0.3,3.7-1.3
		C158.3,172.3,156.7,172.4,155.8,173.1z M179.2,179.8c4.7,0.7,7.8-1.7,11.7-3.3c3-1.3,6.3-2.3,8-4.4
		C190.3,171.6,185.2,176.7,179.2,179.8z M135.3,173.1c0.4,0.1,0.5,0.4,0.7,0.7c-2.2-0.3-3.5-0.4-4.7,1.3c5,0.3,10.9-0.5,13.4,0.7
		c-2.3,0.3-3.4-0.3-5,0.3c2.2,1.1,6.5,0,8.4,1.3c-6.9,0.2-14.7-1.7-20.8-1c0.5-0.8,0.7-0.6,0.3-1.7c-1-0.1-3.1,0.8-3.7,1.3
		c7.4,2.8,18,6,27.8,3.3c-1.6,0.3-1.9-0.6-1.7-2c3.4,1.3,5.8-2.9,8.7-2c-0.9,0.2-1.6,0.7-2,1.3c2.6-0.4,5.9-1.9,6.4-3.3
		c-1.1,0.6-2.1,1.2-3.3,1.7c-0.8-0.5,0.7-1.1-0.7-1c-3.8,0.3-8.7,4.5-11.7,1.3c-0.3,0.4-2.5,0.6-2.3,0.3c0.4-0.5,1.6-0.1,1.7-1
		C142.5,174.5,137.2,174.4,135.3,173.1z M184.9,180.2c9.3,0.2,14.8-3.3,21.4-5.7C198.9,170.7,192.2,178,184.9,180.2z M206,176.1
		c-5.3,1.4-14,5.5-22.8,5.7C191.6,182,200.4,179.8,206,176.1z M202.3,179.5c3.1-0.5,5-2.1,7-3.7
		C206.5,176.5,204.6,178.2,202.3,179.5z M215,177.2c0.4-0.6,1.3-0.7,1.7-1.3C215.6,175.5,214.2,176.6,215,177.2z M164.8,177.5
		c1,0.5,4.1,1.9,4.7,0.7c-1.2-0.5-2.7-0.6-3-2C166.2,176.9,164.9,176.6,164.8,177.5z M152.4,178.5c1.4-0.4,3.4-0.2,4-1.3
		C155.3,176.7,153.5,177.9,152.4,178.5z M210,179.2c1.4-0.3,2.6-0.7,3.3-1.7C212,177.8,210.6,178.1,210,179.2z M218.7,180.2
		c3.1,2.3,6.4-2.1,8.7-0.3c-1,0.5-2.4,0.7-3,1.7c10.5,0.6,21.1,3,30.8,3.3c-11.6-2-20.7-5.3-32.1-7c1.2,1-2.2,2-3,1c1,0,1.7-0.3,2-1
		C219.1,176.9,219.6,178.8,218.7,180.2z M171.2,181.2c-3.2-0.5-5.4-2-8.4-2.7C164.7,180,168.6,181.4,171.2,181.2z M177.2,185.5
		c8.7-0.2,21.4-0.3,27.1-4c1.4-0.9,0.6,0,0.3-0.3c-1-1-0.1-0.8-1.7-0.3c-3.8,1.1-7.8,3.7-11.1,3c2.2-1.1,7-1.2,7.4-3
		C192.1,183.9,184.7,183.3,177.2,185.5z M191.3,190.9c10.2-1,18.9-3.5,23.4-10c-0.1-0.3-0.3-0.4-0.7-0.3
		C209.6,185.8,200,188.7,191.3,190.9z M180.2,183.5c-5.3,0.1-9.1-1.1-12.4-1.7C171.3,184.1,175.6,185.6,180.2,183.5z M180.9,181.8
		C177.7,180.7,178.3,183,180.9,181.8L180.9,181.8z M184.2,183.2c3.9-0.2-0.3-1-1.7,0.3C183.7,183.6,183.5,183.2,184.2,183.2z
		 M195,185.9c1.3,0.4,3.3-0.7,5.4-1.3c1.7-0.5,4.9-0.9,4.4-1.7C201.9,184.3,197.4,184.1,195,185.9z M197,186.9
		c4.2-0.4,6.2-1.1,9.4-2.7c0-0.6-0.3-0.9-0.7-1C202.8,185.9,200.8,184.9,197,186.9z M177.2,186.5c-0.5-0.1-4-1.4-2.7-0.7
		c5.6,2.5,14.9,2.2,20.1-0.3C189.7,185.4,182.4,187.1,177.2,186.5z M178.5,189.9c-2.9-2.5-6.6-3.2-11.1-3.7
		C171.2,187.2,174.2,190.6,178.5,189.9z M177.9,188.9c5.1,2.8,14.2,1.5,19.1-0.7c-1.9-0.4-4.5,0.9-4.7-0.7
		C190.1,189.6,183.4,188.5,177.9,188.9z M283,192.6c-6.5-1.6-14.5-2.5-19.8-4.4C268.2,191,277.1,191.8,283,192.6z M295.1,193.2
		c0.5,0,1.1,0.6-0.3-0.3c-6-0.3-11.9-2.4-17.4-2C282.6,191.4,289.9,193.4,295.1,193.2z M285,223.4c0,0.2,0,0.4,0,0.7
		c0.8-0.1,1.3,0.1,1.7,0.3c-0.1-0.7-0.6-1.2-1.3-1.3C285.3,223.2,285.3,223.4,285,223.4z"/>
	<path fill-rule="evenodd" clip-rule="evenodd" fill="#594118" d="M276.7,114.5c0.6,0,1.1,0,1.7,0c-0.5,0.6-1.4,0.8-2,1.3
		C275.3,115.6,277.3,115.6,276.7,114.5z"/>
	<path fill-rule="evenodd" clip-rule="evenodd" fill="#594118" d="M316.5,115.5c1.2,0.2-1.5,1.5-1,0c-7.7,3.1-14.1,5.9-21.8,9.4
		c6-4.5,14.6-6.4,21.4-10C315.8,114.8,316.2,116.4,316.5,115.5z"/>
	<path fill-rule="evenodd" clip-rule="evenodd" fill="#594118" d="M150.8,136c-2.5,0-1.7-4.5-1.3-6.7c0.8-4.4,2.8-10.7,4-14.1
		c0.3,0.2,0.6,0.4,0.7,0c-1.2,3.9-3.7,12.3-4.4,19.1C149.4,135.5,151.4,134.4,150.8,136z"/>
	<path fill-rule="evenodd" clip-rule="evenodd" fill="#594118" d="M348.3,115.2c-2.5,0.4-3.1,2.7-5.7,3
		C343.3,116.2,346.8,115.3,348.3,115.2z"/>
	<path fill-rule="evenodd" clip-rule="evenodd" fill="#594118" d="M20.8,115.9c-0.3,1.1-1.6,0.3-2.3,0.3c-5.3,0.6-10.7,4.5-14.4,7
		c0.4-2.3,4.5-3.8,7-5C13.9,116.8,17.5,115.2,20.8,115.9z"/>
	<path fill-rule="evenodd" clip-rule="evenodd" fill="#594118" d="M208,115.5c1,1.2-0.4,2.7-1,3.3c-2.1,8.2-5.3,17-5.7,25.8
		C200.5,136.3,204.7,122.7,208,115.5z"/>
	<path fill-rule="evenodd" clip-rule="evenodd" fill="#594118" d="M404.9,126.6c-0.8,0.4,1.1,0.9,1.3,1.3c0.9-0.1,0.9-1.1,1.7-1.3
		c10.3,5.5,18.1,13.6,24.4,23.1c-0.7-0.3-1.3-0.7-2-1c2.3,3.4,4.3,7.1,6.4,10.7c2.1-3.5-4-6-3.7-8.7c6.5,5.2,9.1,14.4,10.4,24.8
		c-0.9-0.6-0.8-2.2-1.3-3c-0.5,0,0.5,2.2-0.3,2.7c0.1,1,1.3,1,1.7,1.7c-1.3,10-6,16.6-13.1,20.8c0.3,4.8,1.4,8.7,1,14.1
		c-3,10.3-9.6,17-16.7,23.1c-11.5,4.4-23,10.7-38.2,10.7c-11,0-22-2.2-31.8-3.7c-7.4-1.1-14.5-3.7-21.1-4.7
		c-0.6-0.1-1.8-0.3-2.3,0.3c-15.4-4.1-32.1-6.3-46.9-10.4c-4.4-1-9.4-1.3-11.1-5c9.5,5.6,21.3,5.8,33.2,9c-7-3.1-15.8-4.3-23.1-7
		c2.8-0.8,5.6,0.9,8.4,1.7c8.5,2.4,17.1,4.9,26.1,7.4c6,1.7,12.4,2.3,18.8,3.7c10.1,2.2,19.9,4,30.8,6c3.1,0.6,6.1,0.7,9.4,0.7
		c7.8-0.1,18.9,2.3,24.4-1.3c12-3,24.6-8.2,31.8-17.1c0.6-0.6-0.3-1.1-0.7-1.7c0.4-1.4,1.7-1.9,2.3-3c0-1.1-1-1.3-0.7-2.7
		c-1.4,1.5-1.7,4.1-3,5.7c-1.4,0.1-1-1.4-2-1.7c-0.1,2.5-1.8,3.4-2,5.7c-1.4,0.4-1.3-0.7-2.3-0.7c-4.6,2.6-8.7,6.9-13.7,10
		c-4.4,2.8-11.9,3.6-17.7,4.4c-1.3,0.2-4-0.9-6.7-0.7c-10.5,0.8-19.7-0.2-30.8-1.7c-2-0.3-3.5-0.9-5.4-0.3
		c12.2-1.4,27.7,4.2,40.5,0.7c13.1,2.6,23.9-4.9,30.1-12.4c0.9,0.9,1.4-0.5,2.3-0.7c1-1.6,1.4-3.8,2.3-5.4c2.1,0.3,0.2,2.6,0.7,4.4
		c1.8-1.6,2.1-4.6,3-7c-7.5,4.6-17,11.3-28.1,12.7c-6.2,0.8-13.8,0.2-18.1-3.3c2.9-0.9,4.3-5,6.7-7.4c1.5-0.2,1.5,1.2,2.7,1.3
		c3.8-4.6,6.1-10.7,9-16.1c-1,0-2,0-3,0c-6.3,14.7-22.2,27.1-42.5,25.1c-4.2-0.4-9.2-4.1-10.7-8.4c0.5-1.5,1.6,1.6,2.3,2
		c1.6-1.9-0.3-3.3,1-5.4c-2,3.2-9,1.5-12.4,3.3c-4.7-0.3-3.1-7-7-8c-4.5,4.3-8.6,11.3-18.4,8.7c-2-0.5-3-2.6-5-3.7
		c-0.4-4.9,3.9-5,4.7-8.7c-0.1-0.9-1.1-0.9-1.3-1.7c-3.9,2.1-6.1,6-11.1,7c4-2.8,6.6-4.6,9.4-7.4c-6.2-1.4-8.9,6.2-13.7,8.4
		c-1.6-0.6,0.6-0.8,0.7-1.7c-4.5,0.4-8.2-1-8.7-4c-0.9-5,9.2-8.6,1.7-11.1c-1.1,0.3,0.4,0.7,0.3,1c-0.2,1.5-1.3-1.2-2.3-1
		c-3,0.1-3.7,2.6-6.4,3c0.2-0.3,0.5-0.9,0-1c-6.5,0-17.8,0.6-20.8-5.7c2.6,0.9,4.9,4.9,10,4.4c-1.3-1.6-1-7.7-4-8.7
		c-2,0-2.5,1.5-4.4,1.7c1.3-5.4-5.1-5.4-9-6.7c0.9,3.1,5.6,5.3,7.4,8.7c-3.5-3-7.1-6.1-9.7-9.4c-9.9-0.4-13.7,6.7-20.8,8
		c-2.7-0.7-8.2-5.8-3-7.4c0.1,1.3-0.6,1.9-0.3,3.3c0.5,1.5,1.9,2.1,3,3c7.9-1.6,10.8-8.2,20.4-8c5.1,1.7,11.8,1.8,13.7,6.7
		c0.8-0.4,1.6-0.8,2.7-1c4.2,1,2.6,7.7,6,9.4c8.3,3.7,18.4-6.5,21.1,2.3c-1.3,2.9-3.7,4.5-5,7.4c2,7.2,13.5,4.1,14.4-2
		c1.8-1,4.3-1.3,5.4-3c0.3,2.7,6,2.3,5.7,6.7c-1.9,1.7-4.9,7-1.3,9c1.1-0.6,1.5,0.6,3,0.7c8.5,0.2,9-12.5,20.1-10.7
		c2.6,1.3,3.2,4.6,3.7,8c8.2,1.2,9.7-7,13.1-11.7c-0.3,5.5-3.4,11.1-8.7,12.7c8.7,1.5,8.2-9.2,10.7-15.1c0.9,3.8-1.9,9.7-3.3,13.4
		c0.7,0.9,0.7-1.7,2-1.3c0.1,1.6-0.7,2.2-1,3.3c1.1-1,3.4-2.9,1.7-4.7c4.8-0.7,5.7-7.9,9.4-10.7c-0.8,1.9-2.4,5.3-4.4,8
		c-0.6,0.9-3.3,2.7-3.3,3.3c0,1.5,2.2,0.6,2,2c3.4-3.5,5-8.8,8.7-12.1c-1.6,3.8-5.3,7.7-7.7,12.4c0.3,0.9,2.1,0.4,2.7,1
		c3.5-3.7,6.1-10.2,9.7-12.7c-2.5,4.5-5.8,8.3-8.4,12.7c0.7,0.8,2.9,0.2,3.7,0c4.1-4.3,7-9.8,11.4-13.7c-2.7,5.3-6.7,9.1-10.4,13.4
		c8.1,0.2,9.6-9.1,14.4-13.4c0.5,1.9-2.2,4.1-3.7,6c-1.7,2.1-3.4,4.1-4.4,6.4c6.1-0.5,7.4-5.8,10.4-9.4c-0.3-0.2-2,1.1-2.3,2
		c-0.7-2,4-2.8,4.4-5.4c2.8-0.4,3.8-0.6,6.7-0.7c-0.3-1.1,0.5-1,0.7-1.7c-17.7-0.4-31.3-3.4-46.5-5.7c18.2,1.8,37.3,5.3,57.3,4.4
		c10.1-0.5,22.1,1,28.1-3.3c0-1,0.7-3.1,2.3-2.3c0,0.6-1.1,0.2-1,1c0.8-0.1,1.4-0.4,2-0.7c0.2-1.4,2-1.9,3-3
		c3.7-4.4,10.7-20.9,7.7-29.8c-2.3-6.9-8.1-14.6-13.1-21.1c-5.4-7.1-12-12.8-18.4-15.4c1.6-1.7-1.8-2.1-3-3c-0.3,2.1-3.2,1.5-5,2
		c2.5,1.8,4.2-1.6,6.7-0.7c-0.5,1.8-1.6,0.9-3.3,1.3c-0.4,1.2,1.3,0.5,1,1.7c-5.6,1.4-9.9,4.2-14.7,6.4c2.8-2.6,8.8-4.8,13.4-6.7
		c-5.6-0.7-11.8,3.5-17.1,5.4c0.7-1.3,3.8-2.1,6-3c2.3-0.9,4.7-2.2,7-2.7c-13.2-0.2-22.5,8.1-30.8,12.7c-0.6-1.8,3.1-2,3.7-3.7
		c-7.7,4.3-15.6,8.3-21.1,14.7c-0.9-0.1,0.5-0.6,0-1.3c-5.3,3.1-7,7-12.7,8.7c6-6.4,12.4-13,20.8-17.1c4.2-2.1,8.8-3.4,13.1-5.7
		c4.8-2.6,9.9-5.1,14.7-7.4c4.8-2.2,10.3-1.8,14.7-4.7c-2.1-2.5-4.2-0.1-7,0c-3.1,0.1-6.3-1.6-8.4-1.3c-2,0.3-3.3,2.7-5.4,2.3
		c0-1.6,1.9-1.3,2.7-2c0.1-1.1-0.1-1.9-0.3-2.7c1.5,0.4,2.3,0.3,3,1c1.1-0.7,0.8-0.9,2.3-1c-0.8-1.7-3.6-1.6-4-3.7
		c3.1,1.6,5.5,3.9,9.4,4.4c1.7,0.2,3.9-0.6,5.7-0.3c5,0.8,8.4,4.7,12.4,6.4C405.9,127.9,405.4,126.5,404.9,126.6z M424,195.9
		c1.1-0.1,3.6-1,4,0.3c-0.7,0.9-2.2,0.9-2.7,2c1.5-0.2,2.4-0.9,3.3-1.7c0.1-1.2-1.4-0.9-1-2.3c0.5-0.8,1.2-1.3,1.7-2
		c0,0.9,0.1,1.9-0.3,2.3c2.1-3.3,6-6.7,5.4-11.7c-1.8,2.9-2.5,6.9-5.4,8.7c-0.1-0.5,0.1-1.2-0.3-1.3
		C427.4,192.4,425.9,194.3,424,195.9z M384.8,122.2c-0.9-0.3-1.6-0.6-2-1.3c0,0.5-0.9,0.3-0.7,1
		C383.5,121.4,384.2,123.2,384.8,122.2z M387.8,121.6c-0.9-0.2-2.7-1.1-3.3-0.3C385.5,121.2,387.2,122.3,387.8,121.6z M397.2,122.6
		c-2.5-1.8-6.1-0.9-8-1.3C390.6,122.7,395.6,122.4,397.2,122.6z M433.7,159.7c0.9,0.2-0.2-1.6,0.7-1.3c1,5.6,0.5,13.2,0,18.4
		c0.5-3.7,4.3-5.7,3.3-9.7c0,0.4-0.1,0.8-0.7,0.7c-0.2-2.4,0-2.4,0.3-4.4c-6.3-11.8-12.3-23.9-23.1-31.1c-0.3,0.1-0.7,0-0.7,0.3
		C421,139.7,427.4,150.5,433.7,159.7z M439.7,176.8c0.3-0.9-0.5-0.9-0.3-1.7c0.5-1,0.5-5.8,0-5.7c0.5,3.2-0.9,6.2,0,8.7
		C439.5,177.7,439.3,176.9,439.7,176.8z M433.7,182.5c0.4-1.4,1.9-1.7,2.7-2.7c-0.7-0.4,1.7-5,0.7-6.7
		C436.1,176.1,433.7,179.6,433.7,182.5z M437.7,181.2c-0.4-1.3,1-2.3,0-3C437.6,178.8,436.9,180.6,437.7,181.2z M433.7,190.2
		c1-0.3,2.4-2,2-2.7C435.1,188.5,434.2,189.2,433.7,190.2z M431.4,193.9c0.2-0.9,1.4-0.8,1.3-2C431.7,191.8,431,193.7,431.4,193.9z
		 M423.3,212.6c-1.3,2.9-4.2,5-2.3,8.7c1.7-3.7,3.5-7.2,4-12.1c2.4,0.2,1.5-2.7,3-3.3c-0.2-2,0.4-4.9-2-4.7
		C425.1,205.5,424.9,209.2,423.3,212.6z M420,210c0.3-3,2.7-5.8,3.3-7.4C420.8,202.6,419.9,208.1,420,210z M383.1,204.6
		c0.6,0,0.2-0.9,0.7-1c1.2,0.6,1.5-0.2,2.7-0.3c2.4-0.5-3.7-0.3-5-0.3C381.5,204,382.1,204.5,383.1,204.6z M406.3,206.6
		c-0.4-1.3-3.4-1.3-4.7-0.7c-0.8-0.4,0.6-1-0.3-1.3c-0.7,0.4-1.5,0.7-2.3,1c-0.8-0.5,0.7-1.1-0.7-1c-1.3,0.3-2.7,0.4-4.4,0.3
		c-5,4.1-6.6,12.4-10.4,16.7c0.9,0.4,2.3,0.4,3.7,0.3c3.2-4.8,5.7-10.4,9.4-14.7c-1.3,4.9-5.9,9.2-8,14.4c12.4-2,20-8.8,25.5-17.7
		C410.9,204.3,407.4,204.3,406.3,206.6z M385.5,223c-2.3,1-4.2,4.1-4,6.4C382.8,227.3,384.5,225.5,385.5,223z M403.6,218.3
		c5.3-4.1,13.1-7.7,14.4-13.7c-1,0.6-1.4-0.8-2.7,0.3c0-0.4,0.6-0.8,0-1c-5.9,10.2-15.3,17.1-28.8,19.8c0.1,1.4-1.4,3,0,3.7
		c-0.6,0.5-0.4,1.8-1.7,1.7c-0.6-2.1,1-3.6,0.3-4.7c-0.8,2.1-2.2,3.6-3.3,5.4c1.8,0,3.6,0,5.4,0c0.7-1.1,1.3-2.3,1.3-4
		c-0.1-1.1-1,1.3-1.3,0c0.7-1,1-2.3,2.3-2.7c1,0.5-0.5,1.7,0.3,2c0.1-0.4,1-1.6,1.3-0.7c-0.4,2.2-2.1,3-2.3,5.4
		c4-0.7,8.3-1.1,11.1-3c-2.2,0.5-6.3,1.9-8.4,0.3c-0.1-1.1,1.1-1.2,1.7-2c-0.1,0.1-0.7-0.1-0.7-0.3c1.2-3.2,8.3-2.9,10.7-6
		c0.1,1.2,3.7-1.1,3-1.7C405.6,217.7,404.7,218.2,403.6,218.3z M381.5,205.6c-0.1,0.7,0.3,1.1,1,1c-0.1-0.6,0.4-0.7,0.3-1.3
		C382.2,205.3,381.8,205.4,381.5,205.6z M381.5,213.7c2.6-1.8,4.8-5.6,5.4-8.4C383.9,206.5,382.3,212.5,381.5,213.7z M368.1,215.7
		c3.9-3.2,8.8-5.5,11.4-10c-2.1-0.1-3.4,0.6-5.4,0.7C372.8,209.9,368.8,212.5,368.1,215.7z M419.6,206c-6.1,9.6-16.8,14.7-26.1,20.1
		C404,222.6,417.8,217.9,419.6,206z M381.5,209.6c1-0.4,2.1-2.4,1.7-3C382.8,207.8,381.5,208.1,381.5,209.6z M411.3,221
		c0.9,0.5,2.4-0.9,3.3-1.7c3.4-3,6.3-7.3,8.7-10.7c-0.2-0.5,0.4-1.7-0.3-1.7c-0.3,1.1-1.2,1.6-1.7,1.7
		C419.8,213.2,415.7,218.2,411.3,221z M369.4,216.7c2.9-2.2,7.9-4.2,8.7-7.4C376.1,212.4,370.9,214.1,369.4,216.7z M377.5,217
		c2.3-1.2,4.4-4.3,4-7C380.3,212.5,378.7,214.6,377.5,217z M322.9,215.3c1.7-0.4,1.7,1,2.7,1.3c0.1-2.7-1.2-4.2-3-5
		C322,212.5,324.1,213.7,322.9,215.3z M373.4,220c1.3-0.5,2.3-1.3,3-2.3c-0.4-0.1-0.7-0.4-0.7-1c1.7-0.6,4.1-3.8,3-5
		C377.9,215.3,373.5,215.5,373.4,220z M418.3,217.3c1.1-1.5,3.8-3.1,3.3-5C421.2,214.4,418.2,215.8,418.3,217.3z M427.4,216.7
		c0.1-1.4,2.1-2.8,1-4.4C428.7,214.2,425.9,215.8,427.4,216.7z M315.8,215c1.5-0.6,2.7-1.5,4.4-2c0.8,0.2,0.9,1.1,1.7,1.3
		C321.6,211.2,315.8,212.7,315.8,215z M425.3,217.7c0.2-1.5,0.3-4.2-0.3-4.4C425.2,214.7,424.6,216.9,425.3,217.7z M307.5,222
		c3.6,0,8.1-5,7.4-8C312,216.3,310.6,220,307.5,222z M407.3,216.7c1-0.3,2.8-1.4,2.3-2C408.8,215.3,408,216,407.3,216.7z
		 M298.1,219.7c-0.8-1.4,0.4-3.5,0-4.4C296.9,216.6,296,218.8,298.1,219.7z M370.4,219c0.7-1.2,2.8-1,3-2.7c-0.1-0.3,0-0.7-0.3-0.7
		C372.5,216.9,369.2,217.1,370.4,219z M327.6,220c-2.2-0.5-2.2-3.2-4.4-3.7C322.9,219,325.4,222,327.6,220z M348,220.3
		c-2.7,1.5-3.3,5.1-6,6.7c0.8-2.9,4.1-5.1,4.4-7.4c-2.1,2.2-3.9,4.6-5.4,7.4c3.6,2.5,7.6,2.5,13.7,2.3c0.8-2.1-0.7-4.9,0.3-7
		c-0.1,0.8,0.1,1.3,0.7,1.3c0-1.9,1.7-2.1,2.7-3c-0.4,3.1-0.7,6.2-0.3,7.7c-1.8-1.2,0.4-5-1-6c-1.1,1.6-1.2,4.1-1.3,6.7
		c2.2,0.1,3.9-0.3,5.4-1c-1.4,0,0-2.9-1-3.3c-0.1,0.8-0.2,1.6-1.3,1.3c1.1-1.6,1.3-4.1,3-5c-0.1,2.5-1.7,5.1,0.3,7
		c0.4-0.7,1.5-0.7,2.3-1c-1.5-1.9,1.2-5.1-1-5.7c0.3-0.7,1.3-0.7,1.3-1.7c-0.8-0.4-1.4,1-1.7,0c0.1-0.5,1.9-0.9,1-1.3
		C358.7,220.2,354.7,221.1,348,220.3z M369.8,220c0.5,1.7-1.1,3.5,0.3,4c0.2-2.1,2.6-3.7,2-5.4C371.6,219.4,370.5,219.5,369.8,220z
		 M338.3,225c0.6,0.6,0.9,1.4,2,1.3c1-2.3,2.9-3.8,3.7-6.4c-2.4,0.5-1.8,4-4.4,4.4c0-2,2.8-3,2-4.7
		C340.3,221.3,339.7,223.5,338.3,225z M365.1,226.7c1.5-0.1,2.2-1.2,3.7-1.3c-0.6-1.6-0.1-2.6,0-4.4
		C365.9,221.3,366.7,225.2,365.1,226.7z M375.4,227.4c0.7,0,0.4,0.9,1.3,0.7c1.5-1.4,2-5.3,4-5c-0.6,2.3-2.7,3.1-2.7,6
		c1-0.2,1,0.6,2,0.3c0.5-2.8,3.1-4.7,3.3-6.7c-0.9-0.3-0.9,0.5-1.7,0.3C380.4,219,377,225.5,375.4,227.4z M365.7,223.7
		c-0.4-1.3,0.8-1,0.7-2c-0.3,0-0.7,0-1,0C365.4,222.7,364,223.6,365.7,223.7z M404.2,223c0.9-0.4,1.8-0.6,2.3-1.3
		C405.5,221.6,403.9,222.7,404.2,223z M402.2,224.7c-2.5,0-5.6,1.1-6,2c2.9-1,7.1-0.7,8.7-3C403.7,223.7,403.4,224.7,402.2,224.7z
		 M350.7,144.7c2.2-0.5,4.9-2.2,5.4-3.3C354.5,142.7,351.8,142.9,350.7,144.7z"/>
	<path fill-rule="evenodd" clip-rule="evenodd" fill="#594118" d="M27.9,119.9c-3.1,2.3-8.5,3.2-12.1,6.7
		C17.7,123.6,22.9,121,27.9,119.9z"/>
	<path fill-rule="evenodd" clip-rule="evenodd" fill="#594118" d="M317.8,138.6c-1.5-0.6-0.5,2.3-2.3,2c4.2-6.2,9.4-11.4,14.7-16.4
		c-3.3,3.9-6.5,8-10.4,11.4c-3.8,8.3-5.4,18.7-9,27.1C313.1,154.7,315.3,146.5,317.8,138.6z"/>
	<path fill-rule="evenodd" clip-rule="evenodd" fill="#594118" d="M390.2,124.9c-15.8,4-32.8,11.4-45.5,20.4
		c-4.4,3.1-8.2,7.4-13.4,8.4C348.4,141.6,365,129,390.2,124.9z"/>
	<path fill-rule="evenodd" clip-rule="evenodd" fill="#594118" d="M40.6,124.9c-2.6,1.7-6.5,3.4-10.4,5.4
		C33,127.8,36.5,126.1,40.6,124.9z"/>
	<path fill-rule="evenodd" clip-rule="evenodd" fill="#594118" d="M253.6,126.6c1.2,0.2,2.5-1.5,4.7-1.3c-2.4,2.1-5.5,3.5-7.7,5.7
		c-0.9-0.4,0.9-0.9,1-1.3c-7.4,4.4-14.8,8.8-23.1,12.4C235.2,136.8,247.3,132.9,253.6,126.6z"/>
	<path fill-rule="evenodd" clip-rule="evenodd" fill="#594118" d="M270.3,125.2c-0.2,2.6-4.3,4.1-5.7,6.7
		C264.9,129.4,268.9,127.7,270.3,125.2z"/>
	<path fill-rule="evenodd" clip-rule="evenodd" fill="#594118" d="M276.3,126.9c-0.9,2.8-5.2,5.1-7.4,7.7
		C270,131.9,274.3,129.7,276.3,126.9z"/>
	<path fill-rule="evenodd" clip-rule="evenodd" fill="#594118" d="M249.2,127.3c-1.5,2.2-6.5,3.8-9.7,5.4
		C242.2,130.3,246.3,129.4,249.2,127.3z"/>
	<path fill-rule="evenodd" clip-rule="evenodd" fill="#594118" d="M300.8,127.9c1.1,0-1.6,1.3-2.3,1.7
		C297.5,128.7,300.5,128.7,300.8,127.9z"/>
	<path fill-rule="evenodd" clip-rule="evenodd" fill="#594118" d="M257.2,131.3c-3,1.2-5.2,3.6-7.7,5.4c-4,2.8-7.9,5.6-12.7,7.7
		c0.6,0.9,1.5,1.4,2,2.3c2.6-0.7,3.3-3.2,6.4-3.3c0.6-0.5-0.2-1.1,0.7-1.7c0.5,0.1-0.1,0.4,0,1c2.3-1.5,5-3.7,7-6.4
		c0.5,0.1-0.1,0.4,0,1c1-0.8,1.1-2.5,2.3-3c0.8,0.4-1,1-1,1.7c1.4-0.4,1.1-0.5,2.3-1c-5.2,4.8-10.7,9.2-17.4,12.4c0,1.4-0.6,1.9,0,3
		c-0.8,0.9,0-2.7-1.7-2c-0.1-0.7,0.3-1.1,1-1c-0.2-0.7-0.7-1.1-1-1.7c-0.4,0.1-0.5,0.6-1,0.7c-2.1,5.7-5.4,11.6-5.7,18.1
		c-1.6-7.1,3.5-13.2,5-19.4c-1.1,0.2-1.6,1.1-3,1c-0.4-1.9,1.6-1.5,3-1.7c8.4-4.1,15.2-9.9,22.4-15.1
		C259,131.5,254.4,135.8,257.2,131.3z"/>
	<path fill-rule="evenodd" clip-rule="evenodd" fill="#594118" d="M247.9,140.7c0.3-1.1,1.7-1,2-2
		C250.5,139.3,248.7,140.4,247.9,140.7z"/>
	<path fill-rule="evenodd" clip-rule="evenodd" fill="#594118" d="M400.9,129.6c-13.8,7-26.7,14.8-38.5,23.8
		c-0.1,0.7,1.2,0.2,1.7,0.3c-0.3,0.4-1.9,1.2-2.3,0.3c4.9-5.8,11.9-9.4,18.4-13.4C386.6,136.7,393.1,131.9,400.9,129.6z"/>
	<path fill-rule="evenodd" clip-rule="evenodd" fill="#594118" d="M263.6,131.9c0,1-2.2,2.7-3.7,3.3
		C260.9,134,262.4,133.1,263.6,131.9z"/>
	<path fill-rule="evenodd" clip-rule="evenodd" fill="#594118" d="M57.3,132.3c-2.5,3.9-10.3,5.5-14.7,8.7c1.1-2.1,4.5-3,7-4.4
		C52.3,135.2,55,133.5,57.3,132.3z"/>
	<path fill-rule="evenodd" clip-rule="evenodd" fill="#594118" d="M284.4,132.6c0.9-0.3,0.9,0.5,1.7,0.3c-2,2.2-2.9,7.7-5,10.7
		C282.1,139.9,283.8,136.9,284.4,132.6z"/>
	<path fill-rule="evenodd" clip-rule="evenodd" fill="#594118" d="M375.8,152c1.3,0.4-1.6,1.9-3,1.7c1.8-3.8,5.7-6.1,9-8.7
		c3.2-2.5,6.4-5.4,9.7-7.7c2-1.4,4.4-2.7,6.7-3.3c-0.5,1.9-2.7,2.2-3.7,3.7c-0.6,0-1.1,0-1.7,0c-6.8,4.6-13.3,9.4-19.1,15.1
		C374.4,153.3,375.5,152.7,375.8,152z"/>
	<path fill-rule="evenodd" clip-rule="evenodd" fill="#594118" d="M303.1,134c-1.4,8-6.2,15.7-8,24.4
		C296.2,150,300.4,141.9,303.1,134z"/>
	<path fill-rule="evenodd" clip-rule="evenodd" fill="#594118" d="M268,134.6c-0.9,2.5-5.4,4.2-7.4,6.7c-0.3,0.1-0.3-0.1-0.3-0.3
		C262.6,138.6,265.5,136.8,268,134.6z"/>
	<path fill-rule="evenodd" clip-rule="evenodd" fill="#594118" d="M383.5,134.6c-1.2,1.2-2.9,1.8-4.7,2.3
		C380.1,135.9,381.5,135,383.5,134.6z"/>
	<path fill-rule="evenodd" clip-rule="evenodd" fill="#594118" d="M259.2,135.3c0.4,1.2-2.2,2.2-3,3.3
		C255.9,137.5,258.6,136.5,259.2,135.3z"/>
	<path fill-rule="evenodd" clip-rule="evenodd" fill="#594118" d="M59.7,136.3c-0.1,1.9-2.8,3.2-4.7,4.4c-2,1.3-4.4,2.4-6.4,3.3
		c2.1-2.5,5.6-3.6,8-5.7c-2.8,0.6-7,2.3-9.4,3C49.6,139,56.6,138.4,59.7,136.3z"/>
	<path fill-rule="evenodd" clip-rule="evenodd" fill="#594118" d="M311.2,136.6c0.8,0-0.1,1.7-0.3,2.3c-1.7,5.7-5,16.3-7,23.1
		C305.7,153.1,308,144.4,311.2,136.6z"/>
	<path fill-rule="evenodd" clip-rule="evenodd" fill="#594118" d="M222.4,137.6c-0.3,2.2-0.8,3.1-1,5.7
		C220.8,141.8,221.3,138.6,222.4,137.6z"/>
	<path fill-rule="evenodd" clip-rule="evenodd" fill="#594118" d="M388.8,148.7c0.6,0.7-2.7,2.2-3,2c-1.3,1.2-3.6,3-5.7,2.3
		c5-6.2,11.6-11,18.4-15.4c-4.7,5.9-12.6,8.6-17.1,14.7C384.5,151.7,386.2,149.7,388.8,148.7z"/>
	<path fill-rule="evenodd" clip-rule="evenodd" fill="#594118" d="M60,167.8c1,0.9-0.9,1.8-1,2.7c-12.1-5.5-29.1-10.2-36.2-22.1
		c-1.6-2.7-3.9-5-2.3-7.7c1.5,2.1,4.2,3.2,5,6c0.3,1.1-1.1,0.5-1.3,1c5.5,11.9,20.3,14.5,31.8,20.4c-0.4-2.6-1-7.9-1.7-11.4
		c0.5,0.4,0.5,1.7,1,0.3c0.6,2.7,0.8,8,1.7,11.4C58.1,169.3,60,170,60,167.8z"/>
	<path fill-rule="evenodd" clip-rule="evenodd" fill="#594118" d="M80.4,141.7c-0.3,3.4-3.1,4.3-4.4,6.7c0.1,0.5,0.8,0.3,1.3,0.3
		c-0.3,0.6-1.4,0.4-2,0.7c0.1-3.5,2.8-4.3,4-6.7c-2.9-1-4.9,1.8-7.4,2.3C74.2,143.4,77.5,141.3,80.4,141.7z"/>
	<path fill-rule="evenodd" clip-rule="evenodd" fill="#594118" d="M401.9,141.3c-3.1,4.4-7.5,7.5-11.4,11.1c0.9,1,1.8-0.9,3-0.7
		c-1,1.3-2.9,1.6-4,2.7c-1.4-2.2,2.1-3.6,3.7-5c2.1-1.9,3.9-4.1,6-6c-1.8,0.8-3.4,1.7-5,2.7C396.4,144.1,398.6,142.1,401.9,141.3z"
		/>
	<path fill-rule="evenodd" clip-rule="evenodd" fill="#594118" d="M407.3,141.7c3.6,0.8,5.9,4.8,8.4,7.7c2.6,3,5.4,6.1,7.4,9.4
		c0.4,0.5,1.6,0.2,2,0.7c2.2,1.8,3.4,6.1,2.3,10c0.1,0.9,0.6-0.5,1.3,0c-1.2,6.7-2.4,11.4-3,15.7c4.2-6.9,6.5-19.6,2.7-29.1
		c2.4,1.4,2.5,5.9,2.7,8.7c0.8,10.7-3.8,21.1-9,27.1c0.9-5.7,3.1-10.1,4.4-15.4c-2.5,2.9-1.6,9.3-6.7,9.7c-0.9,2-1.4,4.4-2.7,6
		c-1,0-0.8-1.9-0.3-2.3c-1.1,0.4-1.1,3.6-2,3c-1.6-0.9,0.4-3.8,1-4.7c1.5-9.3,8.1-18.3,3.7-28.5c3.2,0.5,1.3,6.1,2.3,8.7
		c0,0.7,0.8-0.4,1.7,0c-2.8,5.8-4.4,12.8-6.4,19.4c3.1-6.4,5.3-15.5,8.7-20.4c0.8,2.2-1.3,4.8-2.3,7.4c-1,2.6-2,5.4-3,7.7
		c0.8,1.1,0.3-1.9,1.7-1.3c-0.4,1.3-0.7,2.6-1,4c-0.1,0.3,0.1,0.3,0.3,0.3c0.3,0.1,0.3-0.1,0.3-0.3c2-3.4,3.3-7.3,3.7-11.1
		c0.2-2.2,1.7-3,1.3-6c-0.4-4.2-4.1-8.6-7.4-12.7C414.9,149.7,411.3,145.9,407.3,141.7z M427,165.8c-0.2-2.8-1.1-5-3-6
		C424.9,161.8,425.7,164,427,165.8z"/>
	<path fill-rule="evenodd" clip-rule="evenodd" fill="#594118" d="M290.7,141.7c0.2,3.1-1.9,8.6-3.3,10
		C288.7,148.5,289.9,145.3,290.7,141.7z"/>
	<path fill-rule="evenodd" clip-rule="evenodd" fill="#594118" d="M304.8,141.7c-0.4,4.3-2.1,10.2-4.4,13.7
		C302.2,151.1,303.4,146.3,304.8,141.7z"/>
	<path fill-rule="evenodd" clip-rule="evenodd" fill="#594118" d="M201.6,147.7c-1.1-0.5-1-1.2-0.7-2c0.4,0.1,0.2,0.7,0.7,0.7
		C202.9,145,201.6,147.1,201.6,147.7z"/>
	<path fill-rule="evenodd" clip-rule="evenodd" fill="#594118" d="M253.9,147.7c-4.7,4.9-4.8,14.4-8,20.8c-0.3-3.2,1.5-7.5,2.7-11.4
		c1.2-3.9,2-8.2,4.4-10.7c2,0.7,2.2,3.2,2.3,5.7C254.4,150.6,254.9,149.3,253.9,147.7z"/>
	<path fill-rule="evenodd" clip-rule="evenodd" fill="#594118" d="M406.6,143.7c-2.3,4-6.7,5.8-8.7,10c4.1-0.9,6.6-3.5,10.4-4.7
		c-2.6,4.5-6.9,7.4-9.7,11.7c0.2,5.6-0.3,10.4-1.7,14.4c-0.2-3.6,1.6-8,1-13.1c-0.6,0.7-1.2,1.2-1.3,2.3c-1-2.2,2.6-3.4,0.7-5.7
		c0.6,0,0.9,0.2,1,0.7c2.4-2.6,4.7-5.3,7-8c-3.2,0.8-4.8,3.2-8.4,3.7c-0.9-3.9,4.7-5.3,4.7-8.4C403.5,145.9,404.4,144.1,406.6,143.7
		z"/>
	<path fill-rule="evenodd" clip-rule="evenodd" fill="#594118" d="M238.8,151.4c0.8-1.2-0.7,1.6,0.3,1.7c1.4-1.6,0.7-5.3,3.3-5.7
		c-0.2,1.7,0.4,3,0,4c-0.7,0-0.1-1.4-0.3-2c-3.1,4.2-4.1,10.4-6.7,15.1C234.4,160.6,238.2,155.8,238.8,151.4z"/>
	<path fill-rule="evenodd" clip-rule="evenodd" fill="#594118" d="M293.1,150.7c0.6,1.1-2.7,8.7-1.7,4
		C292.3,153.7,292.3,151.9,293.1,150.7z"/>
	<path fill-rule="evenodd" clip-rule="evenodd" fill="#594118" d="M261.6,152c1.4-0.1,1.3,0.4,2.3,0c-5.2,3.6-4.6,12.7-8,17.1
		C257.4,164.3,258.9,156.7,261.6,152z"/>
	<path fill-rule="evenodd" clip-rule="evenodd" fill="#594118" d="M271.3,154.7c-0.8,4.6-3.2,9.2-4.4,13.4c-0.3,1.1,0.5,2.6-1,3
		c-0.8-1,0.3-2.2,0.3-3.3c0.4-1.1-1.1-0.3-0.7-1.3C268.4,163.4,268.1,157.3,271.3,154.7z"/>
	<path fill-rule="evenodd" clip-rule="evenodd" fill="#594118" d="M381.5,155c0.5,9.9-3.6,20.9-8,27.8
		C377,175.8,380.6,165.9,381.5,155z"/>
	<path fill-rule="evenodd" clip-rule="evenodd" fill="#594118" d="M337.9,168.1c2.1-2.8,3-6.8,4.4-10.4c0.9,0.9,0.7-0.4,1.7-0.3
		c-0.7,1.4-3.3,4.1-1.7,5.7c-0.8,0.8-1.4,1.7-2,2.7c2.1,0.4,2.6-2.4,4-0.7c1.4-3.2,1.1-8.1,4-9.7c-2.1,7.8-6.1,15.4-7.4,22.8
		c0.6-0.8,0.4-2.5,1.3-3c1.8,1.9-0.6,8.2,2,9.4c2.5-2.7,3.8-6.5,5.7-9.7c-0.6,3.4-3.1,7.9-5.4,10.7c-3.6-0.2-2.2-5.6-2.3-8.4
		c-2.4,2.1-1.6,7.2-5.4,8.7c-1.4-2.1-0.1-6.8-1-9.4c-2.5,3.5-2.1,9.9-6,12.1c-0.7-3.8-0.5-11.6,0-16.4c1.2-0.5,0.2,1.1,1,1
		c3-4.1,2.7-11.6,7.4-14.1c-0.2,1.3-0.9,2.6-2,2c-2.1,9-7.6,14.3-6,26.1c3.6-4.9,5-12,7.4-18.1c0.2-0.7-0.6-0.5-0.7-1
		c1-2.7,3.1-5.3,3-8C341.3,162.3,338.5,165.7,337.9,168.1z M336.6,173.5c1.6,4-0.6,7.6,1.3,11.1c2.1-4.7,3.5-10.1,4-15.7
		c0.3-1.1,1.9-3.2,0.7-3.7C340.3,167.6,338.9,171,336.6,173.5z"/>
	<path fill-rule="evenodd" clip-rule="evenodd" fill="#594118" d="M300.4,155.7c0.4,1.2-1.1,3.4-1.3,5
		C298.5,159.4,300.1,157.3,300.4,155.7z"/>
	<path fill-rule="evenodd" clip-rule="evenodd" fill="#594118" d="M265.6,167.4c-0.8,1.7-1.3,3.6-2.3,5c-2.1-2.5,0.5-7.5,1-11.4
		c0.2-1.3-0.2-2.5,0.3-3.7c1,0,1.7-1,2.3-0.3c-1.6,4.1-2.8,8.6-3.7,13.4C264.4,171.2,264.1,167.5,265.6,167.4z"/>
	<path fill-rule="evenodd" clip-rule="evenodd" fill="#594118" d="M390.5,157.1c1.8,2.4,1.5,6.3,1.3,9.4c-0.2,3.6-2.4,7.4-3,11.1
		c-0.8,4.3,0.2,8.8-2.3,12.1c-0.4-3.6,1.1-5.3,1-8.7c-1.3,1.3-2,3.2-3,4.7c2.5-6.3,8.1-15.5,6.7-24.4
		C391,159.7,389.9,158.7,390.5,157.1z"/>
	<path fill-rule="evenodd" clip-rule="evenodd" fill="#594118" d="M367.7,158.4c0.5,3.1-1.9,7.5-1.7,10.4c-1.5-2.3,1.1-6.3,1.3-9
		c-1.5,1.4-2.3,3.5-4,4.7C364.6,162.2,366.4,160.5,367.7,158.4z"/>
	<path fill-rule="evenodd" clip-rule="evenodd" fill="#594118" d="M324.2,186.2c-2.4-2.4,0.2-9.8-1.7-12.7c-1.9,3.6-1.6,9.4-4,12.4
		c-3.4-2.7-0.9-14-1.7-20.4c-0.8-0.1,0.2,1.5-1,1c0.2-1.7,0.4-3.4,2-3.7c-0.2,2.4,0.3,4.8,0,6.4c2.6-3.2,4.2-9.2,8-10
		c-5.3,4.6-10.3,14.1-7.4,25.1c1.1-4,2.8-7.4,3-12.4c-1.6,1.5-1.3,4.7-2.7,6.4c1.1-7.2,3.9-12.6,7.4-17.4c1.2-0.1,2,0.3,2,1.3
		c-0.8,0.1-1-0.5-1.7-0.7c-2.3,1.9-2.9,5.4-3.3,9c-0.2,0.7,0.5,0.6,1,0.7c-0.9,4.2,0,9.3,0,13.7c1.1-0.1,1.5-1,2-1.7
		C326.9,182.7,325,187,324.2,186.2z"/>
	<path fill-rule="evenodd" clip-rule="evenodd" fill="#594118" d="M151.8,161.4c-0.7,0.8-2,0.9-3.3,1
		C149.1,161.6,150.7,161.8,151.8,161.4z"/>
	<path fill-rule="evenodd" clip-rule="evenodd" fill="#594118" d="M371.1,162.4c0.1,1.7-2.7,3.3-3.3,5.4
		C367.5,165.9,370.2,164.2,371.1,162.4z"/>
	<path fill-rule="evenodd" clip-rule="evenodd" fill="#594118" d="M162.1,164.8c-1,2-3.8,1.3-5,2.3c0.8-1.3-0.6-1.2-1.3-0.7
		C156.3,165.6,159.6,164.6,162.1,164.8z"/>
	<path fill-rule="evenodd" clip-rule="evenodd" fill="#594118" d="M94.2,165.1c2.4,2.9,2,8.7,3.7,12.4c0.5-0.3,1.1-0.5,1-1.3
		c0.9,0.6-0.1,2.1-0.3,2.7c-3.5-2.2-3-8.4-4.4-12.7c-1.2,0.8,0.2,2.3-0.7,3.3C92.8,168.4,93.3,165.7,94.2,165.1z"/>
	<path fill-rule="evenodd" clip-rule="evenodd" fill="#594118" d="M98.8,166.1c3.3,2,1.8,8.9,3.7,12.4c0.6,0.6,0.6-0.2,1.7,0
		c-0.1,0.8-0.3,1.4-1,1.7c-3.5-1.3-2.2-10.6-4-11C99,168.5,99.9,167.1,98.8,166.1z"/>
	<path fill-rule="evenodd" clip-rule="evenodd" fill="#594118" d="M155.1,166.4c-1.2,1.2-3.9,1-5.4,2
		C149.9,167.4,153.2,166.7,155.1,166.4z"/>
	<path fill-rule="evenodd" clip-rule="evenodd" fill="#594118" d="M425,175.1c-0.4,0.9-0.6,2.1-1.7,2.3
		C424.2,177,423.9,175.3,425,175.1z"/>
	<path fill-rule="evenodd" clip-rule="evenodd" fill="#594118" d="M315.8,198.2c0.2,2.1-2.4,3.3-4,4.7c-2.1,1.8-3.6,3.7-6,5
		c-0.1,1.6-1.3,2-2.3,2.7c0.2,0.3,0.5,0.9,0,1c-0.2-2.6,3.2-4.9,5.4-7C311.1,202.3,313.5,199.8,315.8,198.2z"/>
	<path fill-rule="evenodd" clip-rule="evenodd" fill="#594118" d="M325.6,203.3c-1.6,3.6-5.8,4.4-9,6.4
		C318.1,207.5,322.7,205.3,325.6,203.3z"/>
	<path fill-rule="evenodd" clip-rule="evenodd" fill="#594118" d="M346.6,203.9c-0.1,3.1-3.2,6.2-4.7,9
		C342.3,210.1,345.2,206.8,346.6,203.9z"/>
	<path fill-rule="evenodd" clip-rule="evenodd" fill="#594118" d="M331.2,231.4c7.9,0.6,20,1.4,28.5,2.7
		C349.6,234,341,233,331.2,231.4z"/>
	<path fill-rule="evenodd" clip-rule="evenodd" fill="#594118" d="M104.9,84.4c0.3,0.1,0.6,0.3,0.7,0.7c-3.5,6.1-8.1,11.1-12.1,16.7
		c0.4,0.4,1.9-1,2.3-1.7c-0.4,2-3.5,4.1-5,6c-1.2-0.7-0.2-1.4,0-2.3c-2.5,0.7-3.5,5.8-4.4,9.4c-1-3.3,1.8-8.5,3.7-11
		c0.7-0.1,1.1,0.3,1,1C96,97.1,100.9,91.3,104.9,84.4z"/>
	<path fill-rule="evenodd" clip-rule="evenodd" fill="#594118" d="M331.9,161.7c0,0.7,0.8-0.4,1.7,0c-0.6,0.6,0,0.8,0,1.7
		c-1.2,0.7-3.7,3.6-2.3,4.7c-3.4,1.4-3.5,6.1-5,9.4c-1.4-1.7,0.7-3.6,1.3-5.4c1.4-3.8,2-8.8,4.4-11.7
		C332.4,160.7,332.1,161.6,331.9,161.7z"/>
	<path fill-rule="evenodd" clip-rule="evenodd" fill="#594118" d="M407.9,172.5c1.7-2.8,2.2-7.9,1.3-11.4c2.7,0.2,1.6,4.3,1.3,5.7
		c-1,6.8-5.1,14.2-6.7,20.4c1.3-0.4,0.4-2.9,2-3c-1.2,2.1-1.2,6.9-4,8.4c0.2-6.3,3-11.5,4.4-16.7c0.5-1.8-0.3-4.2,2-5
		C408.4,171.6,408.2,172.1,407.9,172.5z"/>
	<path fill-rule="evenodd" clip-rule="evenodd" fill="#594118" d="M399.6,182.5c-3.8,2.3-3.1,8.9-6.4,11.7c0.3-5.2,3.6-10.2,4-16.4
		c-3.3,3.7-3.5,10.6-7,14.1c0.6-4.7,4.6-10.8,3.3-16.4c1.6,0,1.6,2.9,1,4c1.6-1.9,1.5-3.4,4-4c0.2,2.9-0.9,4.5-1,7
		c3.6-5.7,6.7-13.2,6.4-21.8c2.2,0.8,0.4,2.3,0.3,3.3c0.2,9.2-2.7,14-4.7,21.4c0.1,0.8,1-0.3,0.7-1c0.3,3-1.9,6.3-3,9
		C395.8,190.3,398.9,185.9,399.6,182.5z"/>
</g>
</svg>
