<?xml version="1.0" encoding="utf-8"?>
<!-- Generator: Adobe Illustrator 18.0.0, SVG Export Plug-In . SVG Version: 6.00 Build 0)  -->
<!DOCTYPE svg PUBLIC "-//W3C//DTD SVG 1.1//EN" "http://www.w3.org/Graphics/SVG/1.1/DTD/svg11.dtd">
<svg version="1.1" id="Layer_3" xmlns="http://www.w3.org/2000/svg" xmlns:xlink="http://www.w3.org/1999/xlink" x="0px" y="0px"
	 viewBox="0 0 443.4 295.5" enable-background="new 0 0 443.4 295.5" xml:space="preserve">
<g>
	<path fill-rule="evenodd" clip-rule="evenodd" fill="#594118" d="M285.3,266c-0.1,0.4-0.6,0.9-0.8,0.4c-0.1-3.9,0.1-6,0.4-8.9
		c-2.9,0.5-1.3,8.3-1.2,11.6c0.5,0,1,0,1.6,0C285.1,268.1,286.4,266.7,285.3,266z"/>
	<path fill-rule="evenodd" clip-rule="evenodd" fill="#594118" d="M319.4,261.4c5-4.8,15.2-6.1,19.8-10.1
		c-7.1,2.9-15.1,4.8-20.5,9.3C319.1,260.6,319,261.3,319.4,261.4z"/>
	<path fill-rule="evenodd" clip-rule="evenodd" fill="#594118" d="M292.3,256.7c8.7-1.8,19.8-5.7,28.3-7.8
		C311.9,249.4,300.5,253.3,292.3,256.7z"/>
	<path fill-rule="evenodd" clip-rule="evenodd" fill="#594118" d="M337.6,243.1c0-1-0.6-1.5-1.6-1.6c-5.3,0.8-11.8,3.2-17.8,4.7
		c-0.6-0.6-1.5-0.8-2.3-1.2c-8.5,3.5-19.8,4.3-28.3,7.8c8.7-0.7,18.8-4.6,27.5-5.9c-0.4,0.1-0.8,0.3-0.8,0.9
		c6.7-0.7,15.8-4.3,22.1-5.4c0.8,1.8-2,1.8-3.1,2.3c-4.4,1.9-11.5,3.6-12.8,7c5.1-3.1,15.2-6.5,20.9-8.9
		C340.4,241.9,338.9,243.1,337.6,243.1z M315.9,246.8c0.4-0.1,0.8-0.1,1.1-0.2C316.8,246.7,316.3,246.8,315.9,246.8z"/>
	<path fill-rule="evenodd" clip-rule="evenodd" fill="#594118" d="M207.4,232.7c-1.3,4.4-0.9,11.7,0.4,16.7c0.7,0,1.2-0.1,1.6-0.4
		C206.4,244.9,208.5,236.3,207.4,232.7z"/>
	<path fill-rule="evenodd" clip-rule="evenodd" fill="#594118" d="M366.7,246.2c-1.1-1.6-3.3,1-3.9,0c3.4-1.8,7.4-3.5,11.2-5.4
		c3.7-1.9,8-3.7,9.7-6.2c-8,4.4-17.6,7.2-24,13.2C362.7,247.9,365.5,248,366.7,246.2z"/>
	<path fill-rule="evenodd" clip-rule="evenodd" fill="#594118" d="M201.2,229.2c-2,3.1-0.4,12.1-0.4,17.1c0.5,0,0.4,0.7,0.8,0.8
		c0-0.6,1-0.3,0.8-1.2C200.2,240.4,202.1,235.4,201.2,229.2z"/>
	<path fill-rule="evenodd" clip-rule="evenodd" fill="#594118" d="M386.1,217.9c-1,2,0.5,4.6,0,7.4c-1.2,0.3-2,1.1-3.5,1.2
		c0-1,0-2.1,0-3.1c0.8-0.4,2.5-0.1,2.7-1.2c-1.9,0.2-3.2-0.4-4.7-0.4c0.6,0.1,0.4,0.9,0.4,1.6c-7.5,3.9-15.8,6.9-22.1,12
		c7.8-3.1,14.5-7.5,22.1-10.9c0.2,0.9,0.6,1.8,0.4,3.1c-3.7,1.6-7.7,3.1-11.2,5c-3.5,1.9-7.6,3.7-9.7,7c1.4,1.2,2.4-0.4,2.7-1.6
		c5.6-3.3,12.6-7.3,18.2-9.3c0.5,1.5-0.2,2,0.4,3.1c-6.7,4.4-16.9,5.4-21.7,11.2c8.9-4.4,18.3-8.3,27.5-12.4
		C386.3,227.1,388.8,220.8,386.1,217.9z M386.1,230c-0.8,0.6-2.1,0.8-2.7,1.6c-1.4-0.2,0.1-2.2-0.4-3.9c1.4-0.1,1.7-1.1,3.1-1.2
		C386.1,227.6,386.1,228.8,386.1,230z"/>
	<path fill-rule="evenodd" clip-rule="evenodd" fill="#594118" d="M398.9,206.7c0,1.9,0.4,1.9,0,3.5c-2.7,0.1-3.5,1.4-5,0.8
		c0,2.5-2.4,2.8-4.3,2.3c-1.3,4.1-7.5,3.4-10.1,6.2c3.1,0,6.7-2.9,10.1-3.9c1.5,5.7-1.1,10.4,0.8,14.3c0.5-5.6,0.9-8.9,0.8-15.1
		c1.3,0,1.3-1.3,2.7-1.2c0.7,5.5-0.9,13.6,0,17.8c1-5.6,1.4-11.8,1.2-18.6c1.4-0.3,3.2-2.2,3.9-1.9c0.4,4.9-2.7,12.4-0.8,17.4
		c0-8.7,2.9-14.7,1.6-22.1C399.6,206.6,399.3,206.8,398.9,206.7z"/>
	<path fill-rule="evenodd" clip-rule="evenodd" fill="#594118" d="M274,204c-4.3,1.3-7.9,4.5-11.2,7c-3.4,2.6-7.8,4.9-9.3,9.3
		c0.4,0,0.8,0,1.2,0C259.4,213.1,268.3,210.1,274,204z"/>
	<path fill-rule="evenodd" clip-rule="evenodd" fill="#594118" d="M407.4,211c0.4-2,0.6-4.1,1.6-5.4c0.5,4.4-1.6,8.6,0.4,12.4
		c0-4.4,1.9-10.2,0-14C407.1,205.1,406.7,208.8,407.4,211z"/>
	<path fill-rule="evenodd" clip-rule="evenodd" fill="#594118" d="M369,201.3c-5.9,2.2-11.5,3.8-17.4,5.8c-5.6,1.9-11.7,3-16.3,6.2
		c6.7-1.7,14.1-4.1,21.3-6.6c7.3-2.5,14.9-4.4,20.5-8.5c-4.2,0.4-7.4,1.9-11.2,2.7c0,1.8,3.2-1.2,3.9,0
		C369.5,201,369,200.9,369,201.3z"/>
	<path fill-rule="evenodd" clip-rule="evenodd" fill="#594118" d="M270.6,181.5c-2.2,0.6-4.3,2.2-7,3.1c-2.4,0.8-6.9,0-7,3.5
		c0.5,0,0.9,0.2,1.2,0.4C260.5,184.6,268.6,186.1,270.6,181.5z"/>
	<path fill-rule="evenodd" clip-rule="evenodd" fill="#594118" d="M72.1,171.8c0.4,1.3-0.5,4.7-0.8,6.6c-0.7-5.3-0.2-9.6-1.6-14.3
		c-2,0.8-2.6,5.1-1.9,7.4c0.6-1.5,0.5-3.7,1.6-4.7c0.8,4.7,0.2,12.2,1.9,14.7c0.3,0,0.5,0,0.8,0C71.8,178.5,74.4,171.8,72.1,171.8z"
		/>
	<path fill-rule="evenodd" clip-rule="evenodd" fill="#594118" d="M66.3,176.5c-1.1-2.9-0.3-7.7-2.3-9.7c-1.4,2.2-0.5,6.7-1.9,8.9
		c-1.4-2.5-0.4-7.3-2.7-8.9c1,2.1-1.5,4.1-0.8,6.6c1.8,0.5,0.6-2,1.6-2.3c0.3,2.8,0.3,6,3.1,6.2c0.5-2.9,0-4.3,1.2-6.6
		c1.1,2.7-0.1,7.6,2.3,8.9c0.8-2.4,1.5-5.9,0.8-7.8C66.7,173,67.1,175.4,66.3,176.5z"/>
	<path fill-rule="evenodd" clip-rule="evenodd" fill="#594118" d="M231.8,146.2c-1.5,11.8-6,20.6-8.1,31.8c0.5,0,0.5,0.5,1.2,0.4
		c0.9-1.2,0.7-1.6,0-2.7C227.1,166.3,232.8,157.2,231.8,146.2z"/>
	<path fill-rule="evenodd" clip-rule="evenodd" fill="#594118" d="M221.3,178.4c2.2-11,6.4-22.3,8.5-31c-2.9,1.2-4.1,4.2-5.8,6.6
		c0.9,1.4,1.7-1.2,2.3,0C225,161.9,220.9,171.4,221.3,178.4z"/>
	<path fill-rule="evenodd" clip-rule="evenodd" fill="#594118" d="M247.7,167.9c0.4-1.1,1.6-1.6,1.9-2.7
		C248.4,165.3,247,167.2,247.7,167.9z"/>
	<path fill-rule="evenodd" clip-rule="evenodd" fill="#594118" d="M105.4,147c-3.9,4.6-6.4,12.8-7.8,18.6
		C100.5,159.6,102.3,152.7,105.4,147z"/>
	<path fill-rule="evenodd" clip-rule="evenodd" fill="#594118" d="M94.6,161c-0.2-5.1,3.2-9.2,5-13.6
		C97.1,150.6,92.8,156.1,94.6,161z"/>
	<path fill-rule="evenodd" clip-rule="evenodd" fill="#594118" d="M305.8,149.7c4.4-3.9,10-8.5,14.3-12.4c1.2-1.1,3.6-2.8,3.1-4.3
		c-6.3,4.9-11.4,11-17.8,15.9C305.4,149.4,304.8,149.7,305.8,149.7z"/>
	<path fill-rule="evenodd" clip-rule="evenodd" fill="#594118" d="M210.1,130.7c3.4-7.5,8.7-15.1,9.7-23.6
		c-3.2,7.9-6.8,15.5-10.1,23.3C209.3,130.4,209.4,130.8,210.1,130.7z"/>
	<path fill-rule="evenodd" clip-rule="evenodd" fill="#594118" d="M242.3,89.6c0.1,1.4,0.5,1.5,0,2.7c-6.7,11.3-11.4,24.5-17.4,36.4
		c11.3-13.9,12.3-35.9,27.5-46.1c-7.9,14.8-16.4,29.1-22.5,45.7c0.5,0,0.9,0.2,1.2,0.4c6-16.8,15.5-33.3,24-48.8c2.3-1.7,5-3,7-5
		c-6.2,2.6-10.2,7.4-15.5,10.9c0.5-1.7,1.7-2.7,2.3-4.3C245.2,82.8,245.7,88.2,242.3,89.6z"/>
	<path fill-rule="evenodd" clip-rule="evenodd" fill="#594118" d="M64.3,127.6c-1.4-0.2-2,0.3-2.3,1.2
		C62.6,128.3,64.5,128.9,64.3,127.6z"/>
	<path fill-rule="evenodd" clip-rule="evenodd" fill="#594118" d="M246.1,124.5c0.4,0,0.8,0,1.2,0c3.7-8.6,9.6-15,14-22.9
		c0.9,0.1,1.5-0.1,1.9-0.4c5.8-6.3,13-11,19-17.1c-7.1,4-13.2,11.1-19,15.1c0.7-2,2.2-3.3,3.1-5
		C258.5,103.3,252.1,113.6,246.1,124.5z"/>
	<path fill-rule="evenodd" clip-rule="evenodd" fill="#594118" d="M78.7,116.8c-0.2-2.7,1.6-5.7,1.9-8.9c-2.1,2-2.6,5.4-3.1,8.9
		C77.9,116.8,78.3,116.8,78.7,116.8z"/>
	<path fill-rule="evenodd" clip-rule="evenodd" fill="#594118" d="M34.5,95.1c-2.5,1.1-3.2,4.5-4.3,7c-1.6,3.7-3.5,7.1-3.9,11.6
		c0.1,0.3,0.3,0.5,0.8,0.4c0.5-6.8,4.3-10.4,5.8-16.3C34.2,97.6,34.8,96.8,34.5,95.1z"/>
	<path fill-rule="evenodd" clip-rule="evenodd" fill="#594118" d="M231,109c3.7-7.4,8.2-15.8,11.6-23.3c1.2-2.7,3.3-5.4,3.1-7
		c-5.9,8.9-10.2,19.5-15.1,29.5C230.7,108.5,230.6,109,231,109z"/>
	<path fill-rule="evenodd" clip-rule="evenodd" fill="#594118" d="M129.4,103.2c0.4,0,0.8,0,1.2,0c1.6-6.6,6.9-12.3,10.5-18.2
		C135.6,89.5,132.1,95.9,129.4,103.2z"/>
	<path fill-rule="evenodd" clip-rule="evenodd" fill="#594118" d="M92.2,84.2c0.5,0,0.5,0.5,1.2,0.4c1.3-4.6,7.3-8.6,8.9-12.8
		C98.3,75.3,94.9,79.4,92.2,84.2z"/>
	<path fill-rule="evenodd" clip-rule="evenodd" fill="#594118" d="M82.9,83.4c0.6-0.7,1.6-1,1.9-1.9c-0.5-0.1-1.1,0.1-1.2-0.4
		c2.6-3.7,5.6-7.1,7.8-11.2c-4,3.3-6.6,8.1-9.3,12.8C82.7,82.7,82.5,83.3,82.9,83.4z"/>
	<path fill-rule="evenodd" clip-rule="evenodd" fill="#594118" d="M96.1,71c-3.5,3-5.5,7.5-8.1,11.2C91.4,79.3,94,75.4,96.1,71z"/>
	<path fill-rule="evenodd" clip-rule="evenodd" fill="#594118" d="M77.5,82.3c0.5-0.6,1-1.3,0.8-2.7c1.8-2.7,6.5-6.4,5.8-8.9
		c-2.5,3.8-6,6.7-7.8,11.2C76.8,81.9,76.9,82.4,77.5,82.3z"/>
	<path fill-rule="evenodd" clip-rule="evenodd" fill="#594118" d="M75.6,78c-1-3.7,4.5-5.7,4.3-8.5c-2.8,2.5-5.2,5.4-6.6,9.3
		C74.1,80.1,74.4,77.6,75.6,78z"/>
	<path fill-rule="evenodd" clip-rule="evenodd" fill="#594118" d="M70.8,70.5c-0.3,0.4-0.2-0.9,0.2-1.1c-2.5,0.2-3.3,3.7-4.7,5.4
		c-1,1.2-4,2.4-2.3,3.9C65.7,75.8,69.6,73.1,70.8,70.5z"/>
	<path fill-rule="evenodd" clip-rule="evenodd" fill="#594118" d="M71.7,77.2c0.2-4.4,3.9-5.2,5-8.5c-3.2,1.7-5.3,4.6-6.2,8.5
		C70.9,77.2,71.3,77.2,71.7,77.2z"/>
	<path fill-rule="evenodd" clip-rule="evenodd" fill="#594118" d="M185.7,64.4c-3.6,0.1-7.7,2.8-10.9,4.7
		C177.7,68.3,182.9,66.7,185.7,64.4z"/>
	<path fill-rule="evenodd" clip-rule="evenodd" fill="#594118" d="M150.4,61.3c6.4-3.3,14.3-5.1,20.5-8.5
		c-7.8,1.6-13.7,5.2-20.9,7.4C150.1,60.6,149.9,61.3,150.4,61.3z"/>
	<path fill-rule="evenodd" clip-rule="evenodd" fill="#594118" d="M167.8,50.5c-7.2,2.5-14.9,4.5-20.9,8.1
		C154.3,56.3,162.3,53.5,167.8,50.5z"/>
	<path fill-rule="evenodd" clip-rule="evenodd" fill="#594118" d="M123.2,55.9c8.8-1.1,17.1-7.9,27.1-7.8c-0.6-2.6-3.6-0.8-5-0.4
		c-6.2,1.7-13.9,5.7-19,5.8C125.6,54.7,124,54.8,123.2,55.9z"/>
	<path fill-rule="evenodd" clip-rule="evenodd" fill="#594118" d="M207,54.7c5.4-3,12.5-4.3,17.1-8.1c-0.9,0.1-1.5-0.1-1.9-0.4
		C218.9,50.7,209.1,50.5,207,54.7z"/>
	<path fill-rule="evenodd" clip-rule="evenodd" fill="#594118" d="M198.8,53.2c5.6-4.1,14.7-4.7,20.9-8.1c-3.4,0.2-7.4,1.9-11.2,3.1
		c-3.8,1.2-8.4,1.8-10.5,4.7C198.2,53.1,198.4,53.3,198.8,53.2z"/>
	<path fill-rule="evenodd" clip-rule="evenodd" fill="#594118" d="M110.5,47.4c-1.6,0.6-4.7,1.7-3.9,3.5c7.4-3,15.6-7,23.6-8.1
		c-8.5-0.7-14.5,4.4-21.7,6.2C108.6,47.9,110.7,48.8,110.5,47.4z"/>
	<path fill-rule="evenodd" clip-rule="evenodd" fill="#594118" d="M103.1,48.9c5.5-2.4,11.7-5.6,17.8-6.2c-9.3-2.3-17.5,3-26.4,5.4
		c7.4-0.6,13.3-4.8,19.8-5C110.8,45.1,104.4,46,103.1,48.9z"/>
	<path fill-rule="evenodd" clip-rule="evenodd" fill="#594118" d="M425.2,211c-3.4,0.6-6.2,3.9-8.5,4.3c0.5-12,2-22.6,1.9-33.3
		c-2.5-0.1-2.8-0.5-4.3-1.9c-0.6-5.4-2.2-8.7-4.7-12.4c-5.3-8.2-12.1-13.7-19.8-19c-5.9-4-11.5-9.3-17.8-10.9
		c0.5-0.1,1.1,0.1,1.2-0.4c-4.6,0.6-8.6-4.4-14.3-2.7c-1.4,0.9,1.2,2.1,0.4,2.3c-1.2,0.3-0.5-1.3-1.9-0.8c-7.9,2.7-18,5.2-25.6,7
		c3.2-12.7-4.3-20.5-8.5-29.5c-3.4-7.3-7.1-14.2-10.9-19.8c-0.3-1-1.1-1.5-1.2-2.7c-2.3-1.3-3.9-3.4-7-3.9c0.4,4-0.8,6.4-1.2,9.7
		c-1.4,0.6-2.9,1-5,0.8c-1.5,1.5-3.3,2.6-2.7,6.2c-5,6.6-3.2,20.1-3.5,31.4c-0.2,1.4-1.8,1.6-1.9,3.1c0.6,1.1,1.6-0.7,1.9,0.4
		c-0.1,3.8-0.8,7.6-1.9,10.5c4-1.5,2.7-5.7,5.4-7c-0.2,0.7-1.1,0.7-0.8,1.9c0.9,1.3,1.7-1.9,2.3-0.8c-1.7,2.7-5,3.8-5.8,7.4
		c3.3,0.2,3-5.3,6.6-6.6c-0.1,0.9-0.8,1.6,0,2.3c7.1-7.9,14.2-17.8,23.6-22.1c0.2-1.4,1.7-1.4,1.6-3.1c-1.7-0.9-1.7,1.8-2.3,0.8
		c-1.4-2.2-0.3-6.9-2.3-8.5c0.5,0,0.5-0.5,1.2-0.4c-1.2-1.2-3.7,2.7-5.8,3.1c-0.1-3.5,0.8-9.2,4.7-10.1c3.8,12,16.5,23.5,11.6,38
		c-22.6,7.3-44.4,15.3-64.7,24.8c-9,1.3-18.5,5.5-27.9,7.8c0.1-0.5,1.6-1.5,0.4-1.9c0.1,0.5-1.1,1.3-1.2,0.4
		c2.9-6.9,4.9-14.7,9.7-19.8c-1,4-3.6,8.2-3.1,12.4c4.1-5.7,2.8-21.2,11.6-22.1c-2.5,9.3-8.4,15.1-10.9,24.4
		c1.5,1.2,2.9-0.5,3.5-1.6c-1.4-0.7-2,1.3-2.3,0.4c0.8-1.6,1.6-3.1,2.3-4.7c1.2-0.2,1,1.3,1.9,0.4c1.5-7.8,5.3-12.7,7-20.2
		c0.8-0.7,2.7-0.4,3.1-1.6c-1.3-0.5-2.1,1.5-2.7,0.4c1.6-3.6,3.1-7.2,4.3-11.2c-3.9,4.2-4.3,14.1-10.9,14.3
		c1.3-4.3,2.8-8.3,5.4-11.2c-6.9,2.2-13.2,5.1-18.2,9.3c0.7,0.4,1.9,0.1,2.3,0.8c-2,5.2-4.9,11-7,15.5c-1.6,3.5-3.3,7.1-4.3,10.9
		c-0.4,1.4-1.9,4.7,0.4,5.8c0-3.1,1.5-9.4,3.5-12.8c0,2.3-2.9,5.8-1.2,7.4c2.6-4.5,1.9-12.3,6.2-15.1c0.3-1.2-1.3-0.5-0.8-1.9
		c2.4-0.3,4.7-2.8,6.2-2.7c-1.7,8.3-7.3,16.7-6.6,24.8c-7.2,2.1-14.6,6-20.5,8.1c4.4-9.7,5.7-22.4,7.4-34.9c0.1-0.8,1.1,0.6,1.2-0.8
		c-1.8,0.6,0.2-2.5-1.6-1.9c-3,13-3.4,28.6-8.9,39.2c-4.8,1.5-8.5,4.2-13.2,5.8c11.8-10.9,6.3-38.5,4.3-53.1
		c-13.8,4.9-26.5,13.9-40.3,19.4c-8.2,3.2-17.2,5.6-22.5,12.8c0.1-0.7-0.4-0.9-1.2-0.8c-2.3,4.6-3.1,8-3.1,14.7
		c-0.5,0.7-1.9-0.6-2.7,0.4c2,5.6,2.4,12.9,5.4,17.4c0,0.9-0.7,1.1-0.4,2.3c0.7,0.2,1.6,0.2,1.9,0.8c3.9,7.2,4.8,16,14.7,16.7
		c8.7,0.6,17.9-4.4,23.3-7c0.7,2.8-0.9,3.5-1.6,5c0.7,8.4,2.9,15.2,6.6,20.5c7.2,5,16.5,7.8,24.8,11.6c-9-1.4-16.2-7.7-23.6-8.1
		c2.2,2.5,5.7,3.6,8.1,5.8c1.3-0.7,1.1-0.4,2.7-0.8c16.8,6.9,37.7,12.2,56.2,17.8c9.4,2.9,19.8,6.1,28.7,6.6
		c0.1-0.5-0.1-1.1,0.4-1.2c1.5,0.3,2.8,0.8,4.3,1.2c17.9-2.4,36.8-6,50.8-13.6c-5.5,1.3-11.6,4.1-16.7,4.7c13-4.9,28.3-8.9,43-11.2
		c0.8-0.4,0.5-1.8,1.2-2.3c23.4-4.7,35.3-20.8,50.4-33.7c0.7,1.4-0.1,4.2,0.8,5.4c0.3-2,0.5-4.1,0.4-6.6
		C418.7,214.7,423.2,214.1,425.2,211z M310.1,92.3c-0.8,1.4-2.6,1.8-4.3,2.3C306.1,92.5,308.6,91,310.1,92.3z M308.9,99.7
		c-1.4-0.2-2,0.3-2.3,1.2c-0.7-1,1.9-2,1.9-3.5C309.4,97.4,308.7,99,308.9,99.7z M312.8,117.2c-0.2,0.9-7.3,9.1-8.9,9.7
		c-0.9,0.3-1.2-0.5-1.9,0c-2.2,1.5-3.3,3.9-5,5c4.3-6.4,9.9-14.9,15.9-20.9C311.8,112.3,313.2,115.6,312.8,117.2z M311.4,111
		c-1,1.3-3,2.7-3.7,4.2c-4.9-0.4-5.4,3.6-8.5,5c2.3-1.3,4.8-8.5,8.1-9.7C307.6,110.5,310.2,112,311.4,111c0.3-0.4,0.6-0.8,0.6-1.2
		C311.9,110.4,311.7,110.7,311.4,111z M300,117.5c2-3.4,5.6-10.2,8.1-13.2C307.9,111.2,302.7,113.1,300,117.5z M305.4,89.2
		c1.2-0.3,0.7,1.1,1.9,0.8c-0.5,0.7-0.8,1.5-1.9,1.6C305.4,90.8,305.4,90,305.4,89.2z M302.3,98.9c-1.5,2.3-3.9,3.6-5.4,5.8
		C295.9,101.6,298.4,98.5,302.3,98.9z M308.2,95.1c-0.8,3.5-4.1,6.3-6.6,9.3c-2.5,3.1-5.4,6-7.8,8.9
		C294.5,104.6,303.1,100.6,308.2,95.1z M293.4,114.1c0.8,0.9,1.3-0.3,2.7,0c2.9-5,7.4-8.4,11.6-12c-4,6.2-10,10.4-14,16.7
		c0.4,1.5,1.8,1.1,2.7,0.4c0.5-1.3-1.3-0.3-0.8-1.6c3.3-4,6.8-7.7,10.1-11.6c-2.7,6.1-8.2,12.7-12.8,18.2
		C293.2,121.4,292.9,116.3,293.4,114.1z M293,126.5c4.1-2.6,7.5-5.9,11.2-8.9c-2.4,3.7-7.5,8-10.9,12
		C292.6,129.3,293.3,127.4,293,126.5z M294.6,130.7c1.7-4.4,5.6-6.5,8.5-9.7c0.8-1.7,1.7-0.8,0,0c-2.6,4.9-6.2,8.7-9.7,12.8
		C292.2,132.7,293.6,130.9,294.6,130.7z M293.4,143.1c-0.6-1.5-0.9-6.1,0.4-7c0.9,0.1-0.4,1-0.4,1.6c0.7,1.3,2.8,0.5,2.3-1.6
		c2.5-2.4,5.1-4.7,7.4-7.4C303.1,135.3,296,137.9,293.4,143.1z M319.8,124.1c-4.9,2.7-8.7,6.6-12.8,10.1c-2.7-0.6-4.1,2.3-6.6,3.1
		c5.4-6.8,12.1-12.2,17.8-18.6C318.8,120.5,319.4,122.2,319.8,124.1z M318.2,116c-0.5,3.7-4.6,5.8-7,8.1c-2.5,2.5-4.9,5.2-7.4,7.8
		c-0.6-0.7,0.8-2.5,0.4-4.3C309.1,124.1,312.6,117.3,318.2,116z M308.9,110.6c-0.3-3.3,4-5,5.8-7.4c-1.9,0-4.4,2.8-5.8,4.7
		c-0.5-3.6,0.6-7.1,4.3-8.1c-1.1-1.1-2,1.4-3.5,1.2c0.1-2.9,1.1-4.2,0.8-6.6c3.3,2.8,5,7.1,7,11.2C314,106.6,311.9,109,308.9,110.6z
		 M252,138.1c-2.2,3.8-2,9.9-6.2,11.6c-0.5,0.1-0.7-0.1-0.8-0.4c1.5-4,2-6.8,3.5-10.5C249.8,138.5,250.7,137.4,252,138.1z
		 M238.4,151.7c0.1-1.1,1.8-7.2,4.3-8.5c0-0.4-0.5-0.3-0.8-0.4c0.5-1.2,1.9-1.4,3.1-1.9c-1.5,1.4,0,1,1.2,0.4
		C245.3,146.5,241.1,148.3,238.4,151.7z M239.5,153.2c-0.3-2.6,3.4-4.6,5-6.6C244.3,150.2,241.9,151.7,239.5,153.2z M241.9,159.4
		c0.5-3,1.8-5.2,2.3-8.1c1.1-0.9,2.6-1.3,3.5-2.3c0.7,1.4-1,3.7-1.2,5.4c-1.2,0.5-2,1.3-3.1,1.9
		C243.1,157.6,242.6,158.6,241.9,159.4C242.2,161,240.7,159.5,241.9,159.4z M385.7,147.8c-4.4-2.4-11.4-5.7-16.7-8.5
		C374.7,140.4,381.2,144.1,385.7,147.8z M368.6,138.1c-1.2,1.3-5.3-0.5-6.2-1.9C365,136.3,366.5,137.5,368.6,138.1z M261.3,170.3
		c0.4,0.6-2.2,1.4-3.5,1.6C258.5,170.8,260.3,170.9,261.3,170.3z M248.1,175.3c-1,1-2.9,1.2-4.7,1.6
		C244.2,175.9,246,175.8,248.1,175.3z M239.9,178c-0.6,0.2-0.6,1-1.9,0.8C240.9,176.8,245,176.5,239.9,178z M236.4,181.9
		c-1.5,0.9-3.6,1.3-5.4,1.9C233,182.6,233.3,182,236.4,181.9z M199.2,192.4c0.4-3.8,2.6-9.1,3.9-13.2
		C203.9,184.1,202.2,189.9,199.2,192.4z M196.5,197c-2.3,1.8-5.7,3.7-7.4,5C189.2,199.5,193.9,198.2,196.5,197z M184.9,200.9
		c3.4-8.2,10-13.3,15.9-19c-0.6,1.3-1,2.6-1.2,4.3C194.3,190.7,192.2,198.4,184.9,200.9z M191.5,197.8c1.1-3.6,5.8-7.1,7.8-11.2
		C199.1,191.2,196.3,196.5,191.5,197.8z M203.1,147c-0.8,2.8-1.8,5.5-3.1,7.8c-0.4-0.1-0.3-0.8-0.8-0.8c-1.5,0.7,0,4.4-2.3,4.3
		c-0.1,0.8,1.4,0.2,1.9,0.4c0.6,2.8-2,2.4-2.3,4.3c-1.3-4,0.1-8.4,3.1-9.3c0-1.4,0.6-3.5,1.6-2.7C200.5,149.6,201.8,147.5,203.1,147
		z M202.7,155.1c-0.6,0.2-2-0.5-1.9,0.4c-0.7-1.1,1.8-2.4,2.3-3.5C203.9,152.5,202.1,153.6,202.7,155.1z M200.4,163.3
		c-1-1.8-1-6.3,0.4-7c-0.1,1.9,1.9,6,0,9.7C199.5,164.4,200.7,163.9,200.4,163.3z M198.5,165.6c1.5,2-1.4,3-1.9,4.3
		C195,167.9,197.9,166.9,198.5,165.6z M198.8,161.3c0,1.2,0,2.3,0,3.5c-1.3,0.1-1.7,1.2-2.3,1.9
		C195.2,164.4,196.8,161.7,198.8,161.3z M198.8,168.7c0.8,4-1.4,5-2.7,7C195.1,172.3,196,169.7,198.8,168.7z M199.2,173.8
		c-0.1,1-0.1,1.9,0.8,1.9c-1.4,1.5-3.1,2.6-4.3,4.3C194.6,177.1,197.2,174.7,199.2,173.8z M200,166.8c0.4,0.1,0.7-0.1,0.8-0.4
		c1.6,0.6,0,2.9,0,4.3C199.1,170,200.7,168.3,200,166.8z M205.4,156.3c-0.7-1.5-0.8-3.6-0.8-5.8C206.4,151,205,154.5,205.4,156.3z
		 M205.4,159.8c1.5,8.5,1.3,17.9-0.8,23.6C204.5,177.1,206,169.1,205.4,159.8z M203.9,178.4c-0.5,0-1.1-0.1-1.2,0.4
		c-0.3-3.4-0.9-6.7,0.8-9.7c-1.6-0.9-1.4-4.1,0.4-4.7c-2.2-0.3-0.5-4.7-1.6-6.2c0.5-0.5,0.6-0.2,1.2,0c0.3-1.4-0.9-1.9,0-2.7
		C205.7,162.6,204,170.5,203.9,178.4z M147.3,168.3c-0.7,2.7-2.1,4.6-3.1,7c-0.5-0.5-1.8-0.2-2.3-0.8
		C143.1,171.9,144.6,169.5,147.3,168.3z M143,176.9c-0.1,1.7-1.3,2.3-1.6,3.9C140.7,179.7,141.6,177,143,176.9z M149.6,166.4
		c10.2-4.9,21.8-8.4,31-14.3c-4.8,5.4-13,10.7-17.8,17.4c0.9,1.1,2.1-0.1,1.2-1.2c6.3-5.3,11.4-11.9,19-15.9
		c0.1-0.5-0.1-0.7-0.4-0.8c6.5-4,13.7-7.2,20.9-10.5c-0.3,1.2,0.7,1.1,0.4,2.3c-2.9,3.3-4.9,7.5-7,11.6c0.1-2.8,2.7-6.6,4.3-9.3
		c-0.4,0.8-2.8,0.4-2.7,0.4c-3.6,1.6-3.5,6.7-6.2,10.5c-0.8,1.1-1.5,1.9-2.3,2.7c0.5,0.9-1,2.9-0.4,5c-2,1.7-3.8,3.7-5.8,5.4
		c-1.5-4.1,4.2-7,6.1-10.4c-1.9,2-3.9,3.3-5.7,4.9c-0.7-0.7,0-1,0-1.9c-2.3,2.2-2.3,7.7-6.6,7.4c-1.7,2.7-3.1,5.7-6.2,7
		c2.8-11.7,14.3-18,22.5-25.6c-10.2,6.5-19.8,16.9-28.7,26c3.2-1.8,5.2-4.9,7.8-7.4c-1.7,3.6-3.9,10.1-6.6,14c-0.3-1.4,1-2-0.4-2.3
		c-1.5,4.5-3.8,8.4-5.4,12.8c-0.7-0.9-0.3-3.1-0.8-4.3c0.9,0.2-0.2-1.8,1.2-1.2c-0.8-3.3,1.9-7,3.5-10.5c1.4-3.1,2.1-6.4,3.5-8.5
		c2.1-3.1,6.6-5.5,10.1-8.9c4.6-4.6,6.9-8.7,12-10.9c-2.2-1.1-4,1.8-5.4,3.1c-4.8,4.5-10.5,10-15.1,14.7c-0.9-1.7,2-2.9,1.9-5
		c-2.8,0.9-2.7,8.1-7.4,8.5c0.4-0.5,1-0.8,1.2-1.6c-0.9-0.5-2.1,2-2.3,3.5c0.8,0.6,2.2-1.7,3.5-1.9c-3.4,8.1-9.1,13.9-12.4,22.1
		c-0.1-1.1,1.1-2.7-0.4-3.1c-0.6,3.8-0.4,11-4.3,12.8c-1.7-7.8,4.4-12.4,5.8-19.4c0.9-0.2,0.8,0.7,1.9,0.4c0.4-1.4-1-1.1-0.8-2.3
		c3.5-5.3,5.4-12.2,8.1-18.2c-2.5,1-2.9,4.8-3.9,7.4c-3.1,7.7-8.4,15.7-11.2,24c-0.7,0,0.6-1.4-0.4-1.9c-0.8-0.1-0.2,1.4-0.4,1.9
		c-0.7-0.9-0.3-3.1-0.8-4.3c4.3-6.6,6.5-15.2,11.2-21.3c-1.2-0.6-1.6,1.4-1.9,0.4c0.8-2.4,2.1-4.3,3.9-5.8c-1.1-0.3-1,0.5-1.9,0.4
		c-4,7.7-6.7,16.5-10.9,24c-2.9-9,3.8-15,6.2-22.1c-4.4,4.8-6.3,12-9.3,18.2c-1.6-0.5-0.1-4-1.6-4.7c-0.5,4.5-0.2,11-2.7,15.1
		C137,183.9,145.9,175.6,149.6,166.4z M189.5,184.2c1.5-2,2.8-4.2,5-5.4c0.4,4.3-2.9,4.8-3.9,7.8
		C189.2,186.8,191.1,184.5,189.5,184.2z M189.1,182.3c0.5-0.6,1.7-0.4,1.2-1.9c-0.9-0.2,0.2,1.8-1.2,1.2c0.5-4,3.2-5.8,5.4-8.1
		C195.3,178.7,191.4,181.3,189.1,182.3z M181,188.5c1,2.4-0.6,5,1.2,6.6c-1.3,2.1-2.2,4.4-3.5,7.4
		C178.9,196.1,177.6,193.1,181,188.5z M177.5,204.8c-1.8-2.2-0.4-9,0.4-10.5C178.9,197.3,177.3,201.1,177.5,204.8z M177.1,195.5
		c-1.5-6.8,0.2-12.1,4.3-15.5c-2-0.1-0.5-1.1-0.4-3.1c-1.8,1.7-2,5-3.9,6.6c-2.2-6,2.3-8.5,4.7-11.2c1,4.1-0.3,7.6-0.4,11.2
		c-1.5,0.1-0.1-0.3-0.4-1.2c-2,0.4,0.1,2.5-1.9,2.7c0.9,1.1,1.6-1.2,2.7-1.2C180.4,187.9,178,190.9,177.1,195.5z M177.1,176.5
		c-0.9-4,2.7-6.9,5.4-8.5C182.6,172.6,179,173.7,177.1,176.5z M188,176.9c0.9,4-3.2,6.4-5.4,8.5C182.7,180.8,185.9,179.4,188,176.9z
		 M188.4,172.2c1,4.1-3.3,6.3-5,8.9C181.7,176.9,186.6,175.3,188.4,172.2z M188.4,180.7c0.4,5.1-3.7,8.8-6.2,8.5
		C182.9,185,186,183.3,188.4,180.7z M188,185.4c0.8,0.5,0.2,2.4,0.8,3.1c-1.5,2-3.4,3.6-4.7,5.8C183.1,191.7,187.2,187.7,188,185.4z
		 M182.9,176.5c-0.2-5.7,2.7-8.4,6.2-10.5C189.5,171.7,185.6,175.1,182.9,176.5z M189.9,177.6c-1.2-3.9,3.2-5.5,5-7.8
		C194.3,173.5,191.4,174.9,189.9,177.6z M189.9,174.1c-1.2-4.3,2.8-6.8,5-8.9C195.5,170.4,191.6,171.1,189.9,174.1z M194.6,160.6
		c1.7,4.4-2.9,5.9-4.3,8.5C188.9,164.9,192.4,162.4,194.6,160.6z M191.1,163.3c-1.2-0.8,1-3.3-0.4-4.3c2.3-2,3.9-3.8,4.3-7
		C195.7,155.7,195.1,161,191.1,163.3z M172.1,206.3c-1.9-5.3,1-11.3,3.1-15.9c1.5,5.5-0.5,10.9-2.3,14.3c-0.5-0.1-0.3-0.7-0.4-1.2
		C171.6,203.8,172.3,205.5,172.1,206.3z M171.7,177.2c1.7,0,1.5-1.8,3.1-1.9c-0.8,2.2-1.8,4.1-2.3,6.6
		C170.5,180.6,173.4,179.1,171.7,177.2z M172.1,195.8c0-5.8-1.4-14.6,3.9-16.7C176.3,184.9,175,191.3,172.1,195.8z M167.1,190.8
		c-2-4.3,1.8-9.5,3.9-12.4C171.5,184.2,170,187.7,167.1,190.8z M167.1,194.7c-1.7-1,1.2-2.9,1.2-4.7
		C169.3,191.6,166.8,192.7,167.1,194.7z M170.5,195.8c0.7,4.5-2.6,8.5-3.9,12.4C165.3,203.8,168.2,199.6,170.5,195.8z M166.7,200.9
		c-0.8-4.9,2.9-8.7,3.9-13.2C172.7,194,167.7,196.5,166.7,200.9z M165.5,203.2c-2.2-0.2-0.1-0.9-0.4-2.3
		C166,200.9,165.3,202.5,165.5,203.2z M163.2,193.9c1.7,1.2,0.5-3.9,2.3-3.9c0.3,6.1-2.8,8.8-4.3,13.2c-3-5.7,1.3-10.5,2.7-15.1
		C165.4,189,162.9,191.7,163.2,193.9z M165.1,196.6c-0.3,4.1-0.8,9.1-3.1,12C159.6,204.2,164.6,200.8,165.1,196.6z M165.1,205.2
		c1.1,3.4-2.6,5.4-2.7,8.9C159.8,210.6,164.6,208,165.1,205.2z M157.7,215.6c-0.1,0.8-1,0.8-1.2,1.6c-1.4-3.3-0.9-6.6,0.8-9.3
		c-1.3-1.5-1.6,1.2-1.9,1.9c-0.3-3.7,2.9-7.2,3.9-10.9C162.5,205.4,155.1,211.3,157.7,215.6z M158.5,213.3c-1-1.5,1.3-3.1,1.2-5
		C160.4,209.5,159,212,158.5,213.3z M158.5,186.5c0.9,1.3-0.8,3.3,0.8,4.7c-0.1,0.4-0.4,0.2-0.4,0c1.6,5.2-2,10.6-3.9,14.7
		c-1.1-0.5,0.3-1.7,0.4-2.3C152.3,198,156.5,191.4,158.5,186.5z M161.2,181.5c0.6,1-1.2,2.9-1.2,4.7
		C158.8,185.6,160.4,182.4,161.2,181.5z M153.9,207.5c1,1.1-0.8,2.8-0.8,4.3C152.3,210.8,153.6,208.6,153.9,207.5z M151.2,211.7
		c-0.6,1.5,0-3.6-1.2-4.3c1.4-2.8,1.6-6.6,3.9-8.5C154.5,204.7,152.5,207.9,151.2,211.7z M146.9,194.7c0.6,0.4,0.4,1.6,0.8,2.3
		c-1.2-0.1-0.9,1.4-1.6,1.9c-0.8-0.6-0.1-2.7-0.8-3.5C146.2,195.6,146.8,195.4,146.9,194.7z M146.5,184.2c0.2,3.2,1,6.8-0.8,8.9
		C144.9,191.4,143.4,185.5,146.5,184.2z M138.4,190.4c1.3,3.3,1.6,7.7,2.7,11.2C138.8,198.7,137.9,195.3,138.4,190.4z M141.5,200.1
		c-1-2.1,0.7-7,2.3-9.7C145.1,194.2,141.7,196.6,141.5,200.1z M146.9,212.9c-2.4-2-4.5-6-4.3-9.3c-2.1,1.1,0.9-6.3,1.6-8.5
		c1.8,4.6,0.5,9,0,14c0.8,0.8,0.8-0.2,1.6-0.4c-1.4-1.3,0.1-2.1,0-4.3C146.8,207,147.5,209.5,146.9,212.9z M147.7,201.3
		c1.1,2,1.3,4.4,0.4,6.6C146.7,205.9,147.7,203.7,147.7,201.3z M148.8,209c1.8,1.5,1.7,4.7,2.3,7.4c1.3,0.5,0.3-1.3,1.6-0.8
		c0.3-1.6-0.6-2-0.4-3.5c0.6,0.2,0.6,2.9,1.6,1.6c0.3,1.8-1.7,4.5-1.9,7C146.7,218.8,148.2,212.9,148.8,209z M153.1,221
		c-0.8-1.8,1.3-3.9,1.6-5.8c0.8,2.3,1.9,4,1.9,6.2c2.4-1.6,1.6-6.4,3.5-8.5c2,2.6,0.2,4.2-0.4,7c3.8-2.1,3.7-9,6.2-11.2
		c0,4.3-4,6.6-2.7,10.9c0.8-1.6,0.5-6.1,3.1-7c0,0.6-0.2,1.5,0.4,1.6c1.3-0.1,0.9-2.5,0-2.7c0.4-4.6,2.9-6,3.5-9.7
		c2.4,9-3.3,13.2-5,19.4C161.9,223,155.3,221.9,153.1,221z M166.3,220.7c0.4-4.2,3.4-5.9,4.3-9.7c0.7,0.2,0,1.8,1.6,1.2
		c-1-4.2,2-7.1,3.1-11.2c2.7,7-2.8,13.4-5,19C168.5,219.8,168.2,221.1,166.3,220.7z M171.7,218.7c2.3-4.3,2.6-8.6,6.2-11.2
		c4-14.2,15-21.5,22.9-31.8c0.9,0.7,0.1,3,0.4,4.3c-4.6,4.5-8.8,9.6-13.2,14.3c-1-0.6,1.4-0.9,0.8-2.3c-2.6,1.9-4.5,4.6-5.8,7.8
		c0.6-0.1,1.1-0.4,1.3-0.9c-2,6-5.9,13-9.1,18.8C173.8,217.8,173.1,218.6,171.7,218.7z M176.7,216.4c1.3-3,3.1-5.4,4.3-8.5
		C182.4,211.9,179.7,215.4,176.7,216.4z M182.6,219.9c-1.1,0.9,0.5,2.3-0.4,3.1C181.6,222.8,181.2,219.5,182.6,219.9z M182.6,229.6
		c-0.6-0.8-0.8-2-0.8-3.5C183.4,225.9,182.2,228.5,182.6,229.6z M182.9,210.6c-1.1-3.4,1.9-6.2,3.5-8.1
		C186.4,204.7,183.3,207.3,182.9,210.6z M189.5,241.6c-2.5-1.5-2.1-5.9-2.3-9.7C189.4,234.1,190.2,237.4,189.5,241.6z M213.2,255.2
		c2.8-0.8,5,1,7.8,1.9c5.7,1.9,12.4,1.5,18.2,3.1c4.8,1.3,8.8,5.2,12.8,6.2C239.3,263.9,225.9,258.8,213.2,255.2z M285.7,271.8
		c1.9-0.4,4.6-0.1,6.2-0.8C292.5,272.1,286.3,273.4,285.7,271.8z M320.3,256.2c0.2-0.1,0.4-0.2,0.6-0.3c0,0.2-0.1,0.5-0.4,0.4
		C320.5,256.3,320.4,256.3,320.3,256.2c-6.3,2.9-17.6,6.3-25.4,7.9c0.1-5.6,7.4-5.6,13.6-7.4c4.4-1.2,8.7-2.4,11.6-3.1
		C319.7,254.8,319,255.6,320.3,256.2z M332.6,261c-1,0-0.5-0.3-0.4-0.8c5-1.3,7.7-5,14-5C342.3,257.8,337.1,259,332.6,261z
		 M338,256.7c1.3-2,5.9-4.1,9.7-5C344.9,253.8,341.1,254.9,338,256.7z M346.5,256.3c0.7-0.4,1.4-1,2.3-1.2
		C349.1,256.6,347.7,256.3,346.5,256.3z M355.5,253.6c1.4,0.3,1.7-0.7,3.1-0.4C357.8,253.7,355.5,255.8,355.5,253.6z M379.9,244.7
		c4.8-3.4,12.2-7.5,17.1-12C393.5,237.4,385.9,241.3,379.9,244.7z M412.1,219.9c-2.4,1.6-4.7,3.3-7,5c-0.4-7.2,1.4-12.7,1.2-21.3
		c-1.4,5.7-3.1,16-1.9,21.7c-14.5,12.9-32.2,24.3-55,27.5c-2-0.2,1.4-0.6,0.8-1.9c-3.4-2.2-7.4,1.2-10.1,2.7
		c-12.1,6.9-24.6,15-44.2,15.5c0.3-1.7-0.7-2.2-0.4-3.9c10.1-2.7,20.3-5.3,29.1-9.3c-0.7-1.4-1.7,0.7-3.1-0.8
		c6-4.2,14.1-6.4,21.3-9.3c-3.4-1-7.4,1.7-10.9,3.1c-3.8,1.6-7.8,2.7-10.9,4.7c-6-1.1-17.6,4.1-25.6,5.8c-1.6,0.6-0.1-2-1.2-1.9
		c-1.6,2.1-0.3,4.9,0,7.4c-1,0.8-3,0.6-3.5,1.9c1.4,1.2,1.9-1,3.5-0.8c-0.3,1.6,0.4,2.2,0.4,3.5c-1.8-0.2-2.4,0.7-4.3,0.4
		c-1.1-2.5-1.4-7.9-1.2-14c-2.5,1.9-1.3,11.3,0,14.3c-18,1.7-37.3-6.9-52.7-13.6c-0.3-0.4-0.5-1-0.4-1.9c-4.6-0.9-6.8-1.7-11.2-1.6
		c0.2-3.1,0.2-8.9-1.6-11.2c-0.9,1.8,1.1,7.1,0.8,10.9c-1.6,0.3-2.2-0.4-3.5-0.4c0-2.7,0.2-2.7,0.4-5c-1.2,0.7-0.2,3.6-1.9,3.9
		c0.1-3.9-1-6-0.8-8.9c-1.7,1.9,0,6.9,0,9.7c-6.1-0.3-0.9-10.6-5.4-13.2c0.5,2.9,1.6,8.4,1.9,12.8c-7.1-1.6-13.4-4-19.4-6.6
		c0-3.4-0.3-14-1.6-18.2c-0.8,5.2,0.6,11.5,0.8,17.1c-2,0-2.5-1.3-3.9-1.9c2-5.7-2.8-9-3.9-13.2c-1.7-6.8,0.6-13.1,0.8-21.7
		c2.7-2.2,6.9-4.4,8.1-6.6c0.4,0.1,0.3,0.8,0.8,0.8c16.8-13.3,42-18.2,63.6-26.7c1.1-0.8,2.2-1.6,3.1-2.7c12-3.7,25.3-7.4,36.1-12.8
		c20.3-5.4,38.3-13.1,59.3-17.8c1.3-0.6-1.2-1.2,0-1.9c10.9,3.8,20,5.1,28.3,11.2c7.7,5.7,12.1,11.2,17.4,19.4
		c3.7,5.6,4.7,11.7,7.8,17.4c-4.8,5.9-9.9,11.6-16.3,15.9c2-3.3,7.6-6.4,10.5-10.1c-6.4,3.9-14.1,12-21.3,15.1
		c-1.1-0.7,1.5-0.8,1.2-1.9c0.1-0.9-1.1-0.4-1.2-1.2c-0.9,0.3-2.4,0.2-3.5,1.2c-0.6,0.5-0.2,1.6-0.8,1.9c-0.5,0.3-1.7,0.4-2.3,0.8
		c-3.7,2.3-6.5,6.1-10.5,8.5c-10.5,6.5-22.4,9.6-37.6,11.6c-2.3,0.3-5.5-0.5-7.4,1.9c4.3,0.7,11.5-1.7,17.4-1.9
		c-6.3,2.4-14.9,2.4-22.1,3.9c-1.1,0.1-1.1,1.2-1.9,1.6c-16.6,5-34.6,8-52.3,8.1c-5.6,0-13.1-2.4-19.4-4.3c-11.8-3.4-27.4-9.2-38-14
		c-2.9-1.3-5.9-1.6-7.8-3.1c-2.8-2.4-3.6-6.7-7.8-5.4c-0.8,3,2.9,2.6,1.6,5c0,1.9-1.1-1.1-1.9,0.4c1.6,2,1.2,2.1,3.9,2.3
		c10.2,5.8,22.2,9.5,34.1,13.6c11.8,4.1,24,8.2,36.1,11.6c6,1.7,12.1,3.3,18.2,3.5c-1.3-3.5-6.9-2.7-10.1-4.3c1.4-0.7,4.6,0,5.8,0.8
		c13.4-3.2,31.2-6.7,45.7-11.6c3.1-1.1,8.1-3.2,13.2-1.6c1-0.3,1.2-1.4,1.9-1.9c10.2-2.1,19.9-5.2,27.9-10.5
		c-0.1,0.3-0.4,0.4-0.4,0.8c5.4-2.6,10.1-8.6,16.3-11.6c1,0.9-1.2,1.3,0,2.3c8.6-4.7,17-9.6,26-14c-0.9-1.5-1.8,0.7-3.1,0.4
		c-1.4,0.7,5.3-6.1,8.5-6.2C414.7,204.2,413.2,211.8,412.1,219.9z M395.4,205.5c0.6,0.1,0.1,1.2,0.8,1.2c-3,1.9-6.3,3.5-10.1,4.7
		c2.4-1.3,6.3-5.3,8.5-4.3C395.4,206.5,394.2,206,395.4,205.5z M376.8,212.1c1.1-1.3,2.7-2,3.5-3.5
		C380.6,209.8,378.5,211.8,376.8,212.1z M322.5,236.2c-5.7,2.5-12.7,3.6-19,5.4C309.6,239.5,315.3,237.1,322.5,236.2z M288,244.3
		c0.5-1.1,2.5-0.5,4.3-1.2C291.8,244.5,289.5,244,288,244.3z M290.3,245.5c-6.2,2.2-13.4,2.5-20.5,1.2
		C276,246.2,283.3,246.7,290.3,245.5z M277.5,250.5c-6.6-0.5-14-3.6-20.9-5C263.8,245.3,270.8,248.8,277.5,250.5z M250,242.4
		c-5.5-1.3-11.6-3.5-16.3-5.4c6.4,0.9,13.6,4.5,20.5,6.2C255.4,244,251.2,242.6,250,242.4z M224,234.2c-3.6,0.5-14-5.3-18.6-6.6
		c5.6,1.1,12.7,4.1,18.2,6.6C223.8,234.2,223.9,234.2,224,234.2z"/>
	<path fill-rule="evenodd" clip-rule="evenodd" fill="#594118" d="M189.9,159.5C189.9,159.5,189.9,159.5,189.9,159.5
		c0.1-0.1,0.1-0.1,0.1-0.1C189.9,159.4,189.9,159.5,189.9,159.5z"/>
	<path fill-rule="evenodd" clip-rule="evenodd" fill="#594118" d="M378.3,221c-2.2,1-4.9,3.1-7.8,4.7c-2.8,1.5-6.7,2.6-7,5
		c5.5-3.3,12.4-6.9,17.1-9.7C380.6,220,378.6,220.9,378.3,221z"/>
	<path fill-rule="evenodd" clip-rule="evenodd" fill="#594118" d="M162.8,231.1c-7.3,0.6-14.7,2.3-20.5,0.8c0.2-1.1,2-0.6,1.6-2.3
		c-7.8-9.4-12.6-21.8-16.7-34.9c-1.1-0.5-1,2.1-1.6,0.8c-0.8-16.4,3.1-35,13.2-42.3c4.1-17.4,7.3-32,14.3-44.6
		c2.4-4.2,6.8-9.2,10.1-13.2c3.4-4.1,8.6-6.1,12.4-10.1c5.6-2.4,10.7-5.8,17.1-7.4c4.7-1.1,9.7-0.2,14-2.3c1.4-0.7,2.2-2.6,3.5-3.5
		c9-5.9,21.4-6,30.2-12c11.4-1.4,21.6-2.6,35.7-2.7c0.3,1.2,2.2,0.9,2.3,2.3c0.9,0,1.8,0,2.7,0c6.1,4.5,13,9.1,19,14.3
		c3.1,2.7,5.3,5.6,7.8,8.9c2.3,3,5.3,6.3,5.4,10.1c5.4,3.9,10.3,8.3,15.1,12.8c1.2,5.1,4.9,9.5,7,14.7c2.4,6.1,1.8,13.3,6.2,18.2
		c0.8-2.5-0.5-4.9,1.2-6.6c-1.6-8.3-6.3-13.6-7.4-22.5c-1.2-1.3-2.7-2.5-3.9-4.3c-2.5-3.5-8.1-10.2-7.8-12.8
		c-6.3-7.1-11.4-15.5-18.2-22.1c0.2,0.1,1.5,1,1.6,0c-10.8-8.9-23.3-17.1-36.1-23.6c-1.9-1-3.2-2.5-5-3.5
		c-8.9-4.9-20.6-7.4-32.2-9.3c-18.6-3.1-38-6.6-55.8-3.9c-15-5.4-34.8-3-53.9-2.3c-1.6,0.3-1.6,2-3.1,2.3
		c-10.1,0.6-19.5,0.6-28.3,2.3c-6,1.2-11.1,2.6-13.6,5.8c-1.2,0.2-0.9-1.2-2.3-0.8C74.6,41,71,45,68.2,48.2
		c-0.6,0.7-2.3,3.5-2.3,3.5c0.2-0.1-0.4-1.3-0.8-0.8c-0.2,0.3-0.1,1-0.4,1.6c-2.5,4-11.9,5.2-16.3,7c-5.6,2.3-10,7.3-13.6,11.6
		c-3.7,4.5-7.5,9.5-8.9,16.3c-5.1,1.1-5.3,7.1-7.8,10.9c0.5,20.2,4.3,39.1,11.6,54.3c-0.3-1.3,0.8-0.6,0.8,0c2.3,2.5,3,5.1,5,7.8
		c3.6,4.7,9.8,7.2,13.2,11.6c1.3,1.7,1.4,3.7,2.3,5.4c5.9,11,16.7,16.2,24.4,25.2c20,10.1,35,25.2,58.5,31.8c1.3,0.8,2,2.2,3.9,2.3
		c0.9,0.2-0.2-1.8,1.2-1.2c1,0.4,0.8,2,1.9,2.3c10,0.2,23.3-0.9,34.1-3.9c-2.5-0.5-4.9,1-6.6,0c3.8-1.1,10.4,0.6,10.5-4.3
		C173.7,229.3,168.3,230.7,162.8,231.1z M318.2,87.3c-0.6,0.9-1.9-0.6-1.9-1.6C317.6,85.7,317.1,87.3,318.2,87.3z M127.9,204.8
		c-1.3-0.8-0.8-3.3-1.6-4.7C126.9,198.7,127.4,203.6,127.9,204.8z M130.6,213.7c-1.7-1.5-2.1-4.7-2.7-6.2
		C129.6,207.2,129.6,211.9,130.6,213.7z M129.4,156.3c-0.3-1.9,2.9-6.9,5-8.9C134.9,150.9,131.6,154.1,129.4,156.3z M136,143.1
		c-0.1,0.5-0.8,0.4-0.8,0c0.5-4.8,1.4-9.2,3.1-12.8C138.6,133.8,135.6,139.4,136,143.1z M143,121c-0.5-0.9,1.3-2.8,1.6-4.3
		C145.3,117.9,143.3,119.7,143,121z M143.8,116.8c0.7-3.8,5-10.5,7.8-14.7C150.4,106.8,145.9,111.7,143.8,116.8z M174.8,82.7
		c2.2-2.2,6-2.8,8.5-4.7C182.5,80.1,177.7,81.4,174.8,82.7z M260.9,55.5c2.2-0.8,5.2-0.9,7.8-0.4C265.8,55.7,263.5,56.1,260.9,55.5z
		 M259.3,42.3c-0.9,0.6-2.7-1.1-4.3-1.2C256.3,40.2,257.9,42.2,259.3,42.3z M253.8,40.4c0.3,0,0.6,0,0.9,0
		C254.4,40.4,254.1,40.4,253.8,40.4C253.9,40.4,253.8,40.4,253.8,40.4c-3.5-0.2-7.7-2.1-11.6-2.7C245.8,37.3,250.4,39.2,253.8,40.4z
		 M252,41.9c-1.2,0.7-5.4-2.1-8.5-1.9C246.3,39.1,249.3,41.4,252,41.9z M221.3,33.8c-4.2,0.6-9.3-0.6-12.8-0.8
		C212.2,32.4,217.5,33.4,221.3,33.8z M183.7,33.4c-1.2,0.2-1.4-0.7-2.7-0.4C181.1,32.5,184.2,32.1,183.7,33.4z M188,36.1
		c-1.6,1-3.6-0.6-5.8-1.2C184.2,33.8,186,36.1,188,36.1z M170.9,29.5c1,1.4-3.6,0.2-4.7,0C167,27.8,169.8,30.7,170.9,29.5z
		 M145.7,30.3c1.1-0.2,7.1-0.8,3.1,0C147.5,30.6,142.6,30.9,145.7,30.3z M141.9,28c-5.6,1.4-13.4,0.5-18.6,2.3
		C126.8,26.6,133.5,28.6,141.9,28z M72.1,49.7c0.9,1.1-1.9,1.9-1.9,3.5C69.3,52.1,71.6,50.8,72.1,49.7z M61.6,56.3
		c0,1.3-0.5,2.1-1.2,2.7c-1.2-0.2-2.5-0.3-3.5-0.8C58.1,57.2,59.7,56.6,61.6,56.3z M51.5,61.7c1-0.4,1.9-1,1.9-2.3
		c2.1,0.7,4,1.7,6.2,2.3c0.2,1.9-2.3,1.1-3.1,1.9c-0.8-0.1-0.8-1-0.8-1.9c-9.6,2.4-14,10.1-20.9,15.1C37.9,70.9,43.2,63.8,51.5,61.7
		z M38.7,68.3c-2,3.6-5.9,8.6-8.5,12.8C30.4,77.3,35.8,71.9,38.7,68.3z M34.9,78c-0.1,2.4-3.3,4.9-5,7C29.9,82.6,33.1,80,34.9,78z
		 M70.9,191.6c-1.4,0.3-1.5-0.8-2.7-0.8c-5-5.2-10.8-9.6-14.3-16.3c1.2-0.9,2.5,0.7,4.3,0.4c-2.1-4.6-6.8-7.4-10.5-10.5
		c-3.8-3.2-7.8-6.2-11.6-9.3c-0.1-1,1.5-0.3,1.2-1.6c-11.8-11.6-13.7-34.2-15.1-55c1.8-2.3,4-4.3,4.7-7.8
		c8.7-7.5,13.1-19.8,24.8-24.4c4.8-1.9,11.2-2.9,16.3-4.7c-0.2-1.3-2.3-0.8-3.5-1.2c1.2-1.5,3.2-2.2,5-3.1c0-0.9,0-1.8,0-2.7
		c4.2-2,4.9-7.5,8.1-10.5c5-1.3,8.7-5.3,14-6.6c13.1-3.1,28,1.7,40.7,1.2c-0.3-1.4-1.7-1.6-3.5-1.6c-0.4-0.7,0.6-3.2-1.6-3.1
		c8.5-2.8,19.7-2.5,29.5-2.3c-0.3-1.3-3.8,0.7-3.5-1.2c14.5-0.9,25.5,4.3,37.2,7.4c-3.9,1.7-10.1,1.2-13.6,3.5
		c5.2,0.1,11.6-3.4,17.4-2.7c-2.5,2.4-7.7,2.1-10.9,3.9c3.8,1.6,10.8-4.8,15.1-1.6c-3.4,2.4-9,2.7-12,5.4c5.1,0,12.5-7.5,17.4-1.9
		c-3,2.4-9.3,1.6-11.2,5c1.8,0.8,3-1.3,4.7-1.9c4.4-1.7,10.1-2.2,14.3-4.3c-1.6-0.6-4.7,0.8-6.6,1.2c-1.2-0.9-1.7-2.5-2.7-3.5
		c1.8-0.3,3.2-0.9,4.7-1.6c-2-1.3-3.6,1.3-6.2,0.8c-0.3-1.2,1.3-0.5,1.2-1.6c-4.2,0.9-6.2-3.2-10.1-3.9c23.3-2.4,51.1,4.7,70.9,11.6
		c2.5,0.9,4.8,2.5,6.6,4.3c2.1,0.2,5.4,1,4.7,2.7c-12.5-0.1-24.5,1-38,4.7c-8,2.2-16.9,4-22.9,6.2c-5.4,2-8.3,6.2-14,7.8
		c-10.4,2.8-20.3,5.6-28.7,10.9c-5,3.2-10.3,7.2-14,11.6c-1.1,1.3-1.3,2.8-2.3,3.9c-0.9,0.9-2.5,1.3-3.5,2.3c-5,5.5-6.7,13-9.7,21.3
		c-2.3,6.6-7.6,12.3-6.6,23.6c-1.4-1.2-1.4-2-3.5-1.9c1-1.9,1.6-3.2,1.2-5.4c-2.3-0.1-3,1.4-3.5,3.1c-1.6-4.5,1.5-12.1,1.2-18.2
		c-1.8,7.9-4.1,15.2-7.4,21.7c-1.1-9.1,1.2-17.5,3.9-24.8c-3.9,3.4-3.7,10.8-5.4,16.3c-2.1,2.3-3.4,5.4-4.7,8.5
		c-0.8,0.4-1.8,0.5-1.9,1.6c-0.8-0.1,0.9-4.2,0.8-6.2c1.1,0.1,1.7,0.7,1.6,1.9c1.1-8.3,5.6-18.3,6.6-26.7c-3,4-2.3,11.6-5.8,15.1
		c-0.1,3.1-0.4,6.1-1.9,7.8c0.4-1.7,0.8-3.1,0.4-4.7c0-1.5-2-0.1-1.9-0.8c1.2-5.8,3-11,4.3-16.7c-3.7,4.7-3.7,13.1-6.2,19
		c-0.9-1.7,1-5.8-1.9-6.2c1.5-5.6,3.8-10.4,4.7-16.7c-3.2,6.1-4.6,14-7,20.9c-1.9-1.6,1.2-4.1,0.4-7c-0.5-1-2.2-0.3-2.3-0.8
		c1.3-6.2,3.5-11.5,5.4-17.1c-4.2,5.7-5.5,14.1-7.8,21.7c-1.8-0.8,0.5-3.5-0.8-5c-1.5-0.6-1.8,1.8-2.3,0.8c1.4-5.6,2.8-11.2,5-15.9
		c-3.9,3.2-3.9,10.3-6.2,15.1c-0.7,5.4,0.6-7.2-2.7-5.4c1.2-4.4,2.3-8.8,3.9-12.8c-3.2,2-3.2,8.1-4.7,12c-0.7,1.9-1.8,4.9-3.9,4.7
		c0.7-3.4,1.4-10.2,2.7-14.3c-3,2.7-2.7,8.7-3.5,13.6c-2.6-1.3-5.1-2.6-8.1-3.5c1.6-5.5,3.2-11.4,4.7-15.9c-1.6,0.3-1.9,2.5-2.3,3.9
		c-1.1,3.3-1.7,7.8-3.5,11.2c-1.5,0.1-3.1-1-4.3,0c0.2,1.8,1.6,2.2,3.5,2.3c-0.3-0.4-0.7-0.6-1.2-0.8c2,0.4,4.9,1.5,8.1,2.3
		c-0.1,2,1.1,5.1,1.6,7.8c2.1-0.5,2.4-2.8,3.5-4.3c2.3,0.2,2.8,2.1,5,2.3c-0.8,2.4-1.2,5.3-1.6,8.1c2.9-0.5,2-4.7,3.5-6.6
		c4.2,2.9-1.1,10.4-1.6,14.7c2.5-0.3,2.4-3.8,3.1-5.8c0.7-2.3,1.6-4.6,2.3-6.6c0.8,0.3,1.1,1.2,2.3,1.2c-0.7,3.8-3.1,7.9-2.3,12
		c2.2-2.7,2.4-7.4,4.3-10.5c1.3,0,1.3,1.3,2.7,1.2c-2.1,11.9-5.9,19.9-8.5,31.4c2.2-0.2,0.9-1.4,1.2-3.5c4.4-8.4,5.8-20.1,10.5-26.4
		c1.3,10.1-6.7,21.4-6.2,30.6c2.3-0.4-0.2-2.2,0.8-3.5c1.1-4.4,2.8-8,3.9-12.4c3.1-3.3,5-7.7,7-12c0.7,1.1-1.1,5,1.6,5
		c0,8.5-5.4,15.5-7,23.3c-1.7,8.5-1.1,16.8-2.3,26.7c2-21,6.1-37,13.6-55c0.6,11.2-5.2,19.3-7.4,29.1c4.6-8.6,7.6-22.5,12.4-28.3
		c1.4,3.5-4.1,8.8-3.9,12.4c2.5,0.3,2.3-5.1,4.7-6.2c0.1,3-3.3,6.1-3.9,9.7c0.1,1.1,1.2,0.7,1.6,0c-4.2,8.5-8.8,22.1-8.1,36.1
		c0.5,10.8,3.4,20.3,7.4,27.5c3,1.8,4.3,5.3,6.2,8.1c-11.6-2.3-21.2-10-32.2-14.3C90.6,207.8,80.1,200.3,70.9,191.6z M126.3,142.7
		c0.7-1.3,0.5-3.4,1.2-4.7C127.9,138.4,127.6,141.8,126.3,142.7z M120.9,143.1c-0.6-0.7,0.1-3.2,0.4-4.3
		C122.1,139.7,121.1,142,120.9,143.1z M114.7,137.7c-0.8-0.1-0.8-1-0.8-1.9c0.5,0.1,0.7-0.1,0.8-0.4
		C115.8,135.7,114.2,136.6,114.7,137.7z M110.8,135.4c-1,0-0.8-1.2-1.9-1.2c0.7-0.8,0.6-2.5,1.6-3.1
		C111.5,131.5,111.5,134.5,110.8,135.4z M106.6,132.3c-1.2,0-1.5-0.8-2.3-1.2c1.3-0.8,0.8-3.3,3.1-3.1
		C107.1,129.4,106.6,130.6,106.6,132.3z M101.9,129.6c-1,0.1-1.3-0.5-1.2-1.6c0.5,0.1,0.7-0.1,0.8-0.4
		C102.4,127.6,101.7,129,101.9,129.6z M98,126.8c-1.4,0.4-1.1-1-2.3-0.8c0.1-2.3-0.7-3.7,0.8-5C98.7,121.3,97.9,124.6,98,126.8z
		 M92.2,124.9c-0.4,1.1-0.5,2.6-1.9,2.7c-0.7-1.1-0.7-2.9-1.6-3.9C89.4,123.1,91.1,124.8,92.2,124.9z M124.4,180.3
		c-1.1-0.7,0.1-2.5,0.4-3.1C126.1,178.2,123.7,178.7,124.4,180.3z M124.8,201.7c-1.8-1.7-1-5.9-1.9-8.5
		C124.4,195.1,123.7,199.2,124.8,201.7z M131,229.2c1.6,0.4,3,0.9,4.3,1.6C134.1,231.9,130.3,228.6,131,229.2z M128.7,204.8
		c2.5,3.7,4.9,10.9,7.4,15.9C131.9,217.1,131,210.2,128.7,204.8z M139.5,226.9c-1.4,0.7-2.4-2.2-3.1-3.5
		C137.6,224.4,138.1,226.1,139.5,226.9z M141.1,235c-1.8-0.4-2.1-2.3-3.5-3.1c1.3-1.2,2.5,1.1,3.9,1.2
		C141.1,233.5,141,234.1,141.1,235z"/>
	<path fill-rule="evenodd" clip-rule="evenodd" fill="#594118" d="M91.1,103.6c-2.6,4.5-3.9,10.3-4.3,17.1c1.6-1.1,1.4-4.7,1.9-7.4
		c0.6-3,1.9-5.6,1.6-7.8C91.4,106,92,103.9,91.1,103.6z"/>
	<path fill-rule="evenodd" clip-rule="evenodd" fill="#594118" d="M198.1,211.4c3.1,4.9,10.6,3.3,16.7,4.7c0.2,1.2-1.3,1-0.4,1.9
		c2.8-1.8,4.7-1.1,8.1-0.8c-0.3,1.3-2.8,1.8-1.9,3.1c2.6,0.5,1.8-2.4,3.9-2.3c2.2,0.2,5.1,0.1,4.7,1.9c3-2,5.7,0.9,10.1,0.4
		c-0.6,0.8-1.9,0.9-1.9,2.3c2.7,0.3,2.2-2.4,5-1.9c1.6,0,0.6,2.5,2.3,2.3c7.9-8,18.9-12.9,27.1-20.5c-10.3,5.3-18.5,12.5-27.9,18.6
		c0-1-1.5-0.6-1.6-1.6c3.5-2.7,8-5.5,13.2-9.3c2.7-2,9.9-9.6,13.2-9.7c1.8-0.1,2.8,2,4.7,2.7c2.7,1,6.3-0.1,6.6,3.1
		c-5.8,6.6-15.6,10-23.6,14c-2.9,1.4-5.6,3.7-8.1,4.7c-4,1.4-8.3,1.5-12,1.6c-13.1,0.3-22.8-11-38-7c3.4,0.1,6.8,0.1,9.7,0.4
		c9.1,0.8,14.2,6.5,22.1,7.4c4.8,0.5,14.8,0.5,19-1.2c1.6-0.6,4.1-2.5,6.6-3.9c6.5-3.5,16.1-7.2,20.9-10.5c1.6-1.1,5.6-5.3,5.4-6.2
		c-0.4-3.3-10.7-4-12-6.2c0-0.5,0.7-0.4,0.8-0.8c-1.4-0.7-1.7,0.2-3.1,0.4c-11-3.4-23.6-9.5-35.7-7.8c-8,1.1-16,5.5-23.3,8.9
		c-5.3,2.5-10.6,5.9-14.3,9.3C194.7,210.9,195.7,211.8,198.1,211.4z M199.6,212.1c0.6-1.1,1.4-1.9,2.7-2.3
		C201.4,210.6,201.3,212.1,199.6,212.1z M265.5,199.7c0.3,1.3-3.1,3.6-5,5c-6.2,4.7-13.8,9.8-19.8,14.7c-1.8,0.2-2.2-0.9-3.9-0.8
		c6.2-5.5,14.5-10.3,21.7-15.5C260.6,201.7,262.9,198.8,265.5,199.7z M262.4,198.6c-8.5,7.4-18.9,12.9-27.9,19.8
		c-0.9,0-1.1-0.7-2.3-0.4c6.7-5.6,14.7-10.7,22.1-16.3C256.4,200.1,259.3,196.9,262.4,198.6z M258.2,196.6c-8,8.3-19,13.6-27.9,20.9
		c-1.2-0.4-2.6-0.8-4.3-0.8c7.6-5.5,15.8-10.6,23.6-16.3C252.1,198.7,254.8,196,258.2,196.6z M254.3,195.5c-1.5,1.6-3.1,3.1-5.4,3.9
		c0-0.8,0-1.6,0-2.3c-2.6,0.5-0.7,1.6-0.4,3.1c-8,5.4-16.2,10.7-24,16.3c-1.7-0.5-4-0.4-5.8-0.8c9.1-7.1,19.6-12.7,28.7-19.8
		c-5.2,1.3-9.8,5.5-15.5,9.3c-2.1,1.4-4.9,3.2-7.8,5c-3.5,2.3-6.8,6.3-11.2,4.3c0.3-1.7-0.3-0.8,3.1-3.1c6.5-4.4,12.1-8.5,19-13.2
		c2.6-1.8,6.1-4.8,7.8-5C246.5,192.6,251.1,195.9,254.3,195.5z M233.7,192.7c-6.1,5.2-14.3,9.1-22.1,14c-1.3,0.8-6.9,3.7-7,5
		c-0.1,1.8,3.7-1.1,1.9,0c9.3-5.9,20.3-13.1,29.5-19c1.3,0,2.6,0,3.9,0c-9,8.1-20.2,14-29.9,21.3c-3-0.4-4.8-0.4-7.8-1.2
		c2.4-4.7,7.7-7.2,12.4-10.1c2.2-1.3,4.7-2.8,7-4.3C225.5,196.2,228.1,193.3,233.7,192.7z M225.6,194.3c-1.8,1.5-4,4.3-6.6,2.7
		C220.7,195.7,223.1,194.9,225.6,194.3z M215.5,198.6c-2.7,2.6-13.5,5.8-15.5,10.5c5.2-3.3,10.3-6.8,16.7-8.9
		c-5.2,4.4-11.6,7.5-17.8,10.9c-1-0.3-1.2-1.4-1.9-1.9C201.9,204.3,209.1,201.8,215.5,198.6z"/>
	<path fill-rule="evenodd" clip-rule="evenodd" fill="#594118" d="M345.8,195.1c-2.6,0.4-5.6-0.1-8.1,0.8c-1.9,0.6-4.3,2.4-6.6,3.5
		c-5.4,2.5-11.3,4.3-12.8,9.3c3.8,0.7,2.9-3.3,5-4.3c0.9,2.3,2.8,1.1,5,0.8c-0.5,0.8-3.1,0.7-1.9,1.9c13.3-4.2,26.8-10.4,42.3-11.2
		c-9.3,3.7-20.3,5.9-30.2,8.9c-3.6,1.1-7.8,2.5-10.5,5c1.3,0.9,3-0.7,3.5,1.2c13.1-5.2,30.5-8.9,45-14c0.5-0.9-1-1.5,0-1.6
		c2,1.2,3.7,4.1,3.5,6.2c-3.4-0.5-7.8,0.5-10.1,2.3c0.7,0.4,1.3-1.2,1.6,0c-3.9,1.3-8,2.3-12,3.5c-0.9,0.6,0.5,0.9-0.4,1.2
		c-6,3.1-14.1,4.3-19.8,7.8c10.4-1.1,20.3-8.1,30.2-9.7c-4.8,2.4-9.8,3.5-15.9,5.8c-4.4,1.7-8.8,4.7-11.6,5
		c-8,0.9-11.5-5.5-18.6-7.4c4.8,3.7,12.4,10.5,19,8.5c6-1.8,13.5-5.3,20.5-8.1c7.3-3,15-5.6,18.6-10.1c-2-3.3-3.6-5.9-6.6-9.7
		C364.6,189.8,355.1,193.6,345.8,195.1z M327.5,204.4c2.8-1.7,7.2-1.9,10.9-2.7C335,202.9,331.5,204.9,327.5,204.4z M327.5,202.8
		c-0.6-0.8,1.9-1.6,3.5-2.3c1.5-0.7,3-1.6,4.7-2.3c8.6-3.8,21.6-3.4,30.6-5.8C353.8,196.2,340,198.9,327.5,202.8z M367.9,193.5
		c0.8-0.6,2-0.8,3.5-0.8C370.9,193.7,369.3,193.5,367.9,193.5z M372.9,194.3c-0.4,1-2.6,1.4-3.5,0.8
		C370.4,194.1,370.9,194.5,372.9,194.3z M332.2,208.6c12.7-4.6,29.6-9.7,41.9-12.4C360.6,200.9,346.9,205.2,332.2,208.6z"/>
	<path fill-rule="evenodd" clip-rule="evenodd" fill="#594118" d="M261.6,190.8c0,1-0.7,1.2,0,1.9c2,0.7,0.9-1.7,2.3-1.6
		c0.4,0.3,1,0.5,1.9,0.4c-0.6,0.5-1.4,2.5,0,2.7c1-0.2,1.1-1.2,1.6-1.9c1.9,0,3.5,0.4,4.3,1.6c-1-0.1-1.3,0.5-1.2,1.6
		c1.2,1.1,1.8-1.1,3.1-1.2c1.8,0.3,1.6,2.6,3.5,2.7c4.5-0.5,9.6,1.7,13.2,3.5c0,0.5,0,1,0,1.6c3.7,0.3,8.6,3.9,13.6,1.9
		c-0.1,1.4-2.4,0.5-2.3,1.9c10.9-3.3,21.3-10.5,31-16.3c7.3-2.1,15.6-6.6,17.8-15.1c-11.9-5.5-26.1-10.8-42.3-9.7
		c-20.4,3.1-33.2,13.8-45.4,25.2c-4.2-0.8-11.3-3.7-14.3,0C253.5,191.3,257.3,189.3,261.6,190.8z M328.3,190
		c-6.2,6.1-17.3,7.2-24,12.8c-1.4,0-2.8,0-4.3,0c1.1-2.7,3.7-4.1,6.2-5.4c0.2-0.9,1.2-0.9,0.4,0c-1.3,1.3-2.8,2.3-3.9,3.9
		c9.5-4.2,15.4-12,26-15.1C328.3,187.3,326.6,188.9,328.3,190z M323.7,166.4c9.2,1.3,18.2,5.4,25.6,8.9c-2.6,6.7-8.4,10.2-15.1,12.8
		c1.9-1.7,4.1-3.2,6.2-4.7c-2.9-1.9-5.5,4.6-7.8,3.1c-0.5,0.1-0.4,0.8,0,0.8c-1.3,0-2.1-1.4-3.1-2.7c4.8-1.9,7.3-6.1,12.4-7.8
		c-0.4-1.1-1.4-0.1-1.6-0.8c-10.3,7-21.3,13.4-32.2,19.8c-0.8,1.3-0.8,0.4,0-0.4c2.1-1.3,3.8-3,5.8-4.3c-0.3-1.4-2.2,1.2-1.9-0.8
		c6.9-5,17-10.1,23.3-17.1c-6,1.4-12.1,5.9-18.2,8.5c4.3-0.3,8.6-4,13.2-5.4c-7.3,5.5-14.9,10.7-23.3,15.1c0.5,1.9,3.7,0.6,3.9-1.2
		c1.4,1.5-1.4,2.5-2.7,3.5c-2.5,2-6,4.7-8.9,6.6c-0.3,1.2,0.4,1.4,0.4,2.3c-2.5-0.2-5.7-0.3-7-2.7c7.7-4.2,14.2-9.6,21.3-14.3
		c-0.7-1.4-1.6-0.3-2.3,0c-3.1,1.5-6.6,5-10.1,7.4c-3.7,2.5-7.3,4.8-10.9,6.6c-0.3-0.5-0.8-0.7-1.6-0.8c6-6.4,14.1-10.7,22.9-14.3
		c-0.7-1.2-2.7,0.4-3.1-0.4c7.4-5.4,16.1-9.5,23.6-14.7c-3.1-1.2-6,2.5-8.9,3.9c-0.2,0.1-0.5-0.6-0.8-0.4c-2.3,1.2-4.4,3.2-7,3.9
		c0.8,0.8,2.5-0.8,3.5-1.2c-4.2,3.4-11.3,7.3-17.1,10.5c-0.1,0.9-0.5,1.6-0.8,2.3c-5.2,2.7-10,5.8-14.3,9.3
		c-2.9-0.6-5.2-1.8-8.1-2.3c5.2-4.3,11.3-7.5,16.7-11.6c0.8,0.1-0.6,1,0.4,1.6c3.3,0,4.8-1.7,7.4-2.3c-5.9,4.6-13.2,7.7-18.6,12.8
		c1.1,2,2.9-0.6,3.5-1.6c7.2-3.9,14-9.9,20.9-12.8c-1.8-1.8-7.4,1.5-11.6,2.7c8.9-5.7,18.8-10.4,27.1-16.7c-3.7-0.4-6,2.8-10.5,3.9
		c1,1,2.4-0.9,3.5-1.2c-2.4,2.9-8.7,5.2-12.4,8.1c-1.2-1-1.9-0.1-3.1-1.2c-7.4,6.9-16.8,11.6-25.2,17.4c-0.6-0.7-1.7-0.9-2.3-1.6
		c6.4-6,15.3-9.5,23.3-14c-1.3,0.6-2.9,0.9-4.1,1.5c-0.5,0.3-0.9,0.6-1.3,0.8c0.4-0.3,0.8-0.6,1.3-0.8c5.3-3.5,13.6-11.3,20-14.3
		C315.5,165.6,321.2,166,323.7,166.4z M311.3,166.4c-0.8,1.8-4.2,2.6-5.4,3.5c-0.7,0.5-1.4,2-2.3,2.7c-5.6,4.4-15.5,9.8-22.9,14.7
		c-4.4,2.9-6.2,6.2-11.6,4.3c4.7-5.5,11.9-8.5,17.4-13.2c1.2-0.3,0.5,1.3,1.9,0.8c1.2-1.6,4-1.9,5.4-2.7
		C299,173.4,303.1,167.4,311.3,166.4z M279.9,177.2c-0.2,2.1-4.6,3.4-6.2,5.4C273.8,180.5,278.2,179.2,279.9,177.2z M282.6,178.4
		c-0.2-1.1-0.8-0.5-1.9-1.2c6.3-5.5,14.6-8.9,24.8-10.5c-4.5,3.4-9.8,5.9-14.3,9.3c-1.1,0.3-1-0.5-1.9-0.4
		c-7.7,4.7-15,9.9-22.1,15.1c-1.2,0.3-1.4-0.4-2.3-0.4C270.5,186.2,275.7,181.5,282.6,178.4z"/>
	<path fill-rule="evenodd" clip-rule="evenodd" fill="#594118" d="M386.9,180.3c2.1-0.5,3.5,0.5,4.7-1.2
		C390.2,179.5,386.7,179.8,386.9,180.3z"/>
	<path fill-rule="evenodd" clip-rule="evenodd" fill="#594118" d="M268.6,162.9c9.7-5.4,14.1-20.3,16.7-34.1c0.5-2.8,0.8-8.3,0-10.5
		c-0.9-2.6-1.9-5.8-3.1-7.8c-18.6,13.1-36.8,26.6-58.1,36.8c5.5,0,9.6-4,14-6.6c4.6-2.8,9.8-4.6,14.3-7.4
		c8.8-5.4,16.4-12.9,25.2-17.8c-3.7,4.6-11.2,9.5-15.1,12.8c-0.4,0.4-2.4,3.4-1.2,3.5c3-3.7,8-7.5,11.2-9.7
		c-2.5,5.7-8.2,6.2-10.9,12c3.3-0.6,3.5-4.2,6.6-5c-0.8,0.8-0.2,2.2,0.4,2.7c4.8-2.3,7.5-8.8,11.2-10.9c-1.9,3.5-4,5.5-7.4,8.9
		c-2.6,2.6-6,7.2-7,5.8c-0.5,1.2,0.3,1.5-0.8,2.3c0.1-1.6-0.6,0-1.2,0c0.2-2.4,2.9-4.3,2.3-6.2c-4.6,7.5-8.3,18-11.6,26.4
		c-1,2.5-4.2,6.2-1.2,8.5c0.9-0.2,0.9-1.5,1.2-2.3c-1-0.7-0.7,1.7-1.2,0.4c3.8-10,6.1-21.6,14-27.5c-3.2,9.4-9.7,17.7-10.5,28.3
		c1.5,0.1,1.8-1,1.9-2.3c-0.8-0.2-1.2,1.1-1.2-0.4c5.8-12.6,9.6-29.1,19.8-36.1c-3.7,7.7-8.1,14.7-12.4,21.7
		c1.2,0.6,1.6-1.4,1.9-0.4c-1.7,2.6-2.4,6.1-3.5,9.3c3.4-3.4,2.9-10.8,7.4-13.2c-0.7,6.6-5,13.1-5.8,20.9c1.9,0.3,1.6-1.5,2.3-2.3
		c-0.5-0.1-1.1,0.1-1.2-0.4c3-8.7,6.3-19.3,11.2-24.8c-1.2,1-2.7,3.7-3.9,3.5c1-2.7,3-5.1,4.7-7.4c1.6-2.2,3.3-5.3,6.2-6.2
		c-2.2,2.9-3.4,7-6.2,9.3c1.5-0.1,0.1,0.3,0.4,1.2c-2.3,7.4-7.9,13.5-9.7,20.2c2-1.5,2.3-4.7,4.3-6.2c-0.4,1.7-1.3,2.8-1.2,5
		c2.7-2.3,2.5-6.8,3.9-10.5c1.9-5.1,5.4-9.9,7.4-14.3c-1.3,4.2-2,10-3.1,13.6C277.7,153,271.8,157.1,268.6,162.9z M269,130.3
		c2-6,7.2-8.9,11.6-12.4C277.3,122.6,273.7,127,269,130.3z M274,136.1c2.2-4.7,3-8.4,6.2-12c0.9,0.9-0.4,0.9-0.8,1.6
		c1.5,1,1.5-2.3,2.3-3.1c-0.1-0.5-0.7-0.3-1.2-0.4c0.3-1.8,1.4-2.8,1.2-5c-3.3,0.4-5.2,2.8-8.1,3.5c2.7-2.6,4.9-5.7,8.5-7.4
		c0.7,4.6,3,7.8,1.9,13.2C279,127.7,278.3,135.3,274,136.1z"/>
	<path fill-rule="evenodd" clip-rule="evenodd" fill="#594118" d="M48,113.3C48,113.3,48,113.3,48,113.3
		C48,113.3,48.1,113.3,48,113.3C48.1,113.3,48.1,113.3,48,113.3z"/>
	<path fill-rule="evenodd" clip-rule="evenodd" fill="#594118" d="M60.1,143.1c0.5,0.4,1.4,0.4,1.6,1.2c-0.1,1.6-2.4,4.1-0.8,5
		c0.9-1.2,1.3-3.1,2.3-4.3c1.1,0.4,2.6,0.5,2.7,1.9c-1.4,0.6-1,0.9-1.2,3.1c1.7-0.1,0.8-2.8,2.3-3.1c0.9,0.4,1.7,0.9,2.3,1.6
		c0.4,1.4-1.6,2.2-0.4,3.1c0.8-0.6,0.6-2.2,1.9-2.3c1.5,0.4,1.1,1.8,0.4,2.7c1.4,0.4,1.3-0.8,1.9-1.2c1.6,1,4.1,1.8,2.7,4.7
		c1.6,0.3,0.7-1.9,2.3-1.6c0.8,1.6,3.4,1.5,3.9,3.5c-0.8,0.4-1.2,1.3-1.6,2.3c1.7,0.1,1.9-1.5,2.7-2.3c3.5,2.4,6.9,5.7,10.5,7.4
		c-1.9-1.4-3.2-3.3-5-4.7c2.6-4.8,5.7-11.1,6.6-16.3c-3.3,4.5-3.8,11.7-7.4,15.9c1.1-6.4,4.2-10.8,5-17.4c0.7-0.2,1,0.6,1.2,0
		c-2-1.4-3.4,4-4.3,7c-1,3.5-1.4,6.5-2.7,8.5c-0.4,0-0.5,0.3-0.8,0.4c-1.2-0.3-2-1.1-2.7-1.9c2.4-6.1,5-12.1,7-18.6
		c-3.7,4.9-4.6,12.8-8.1,17.8c-1.3-1.3-3.6-1.6-4.3-3.5c0.2-1,0.5-1.8,1.2-2.3c0.9-0.2,0.8,0.7,1.9,0.4c0.3-1.6-1.9-0.7-1.6-2.3
		c2.3-3.9,2.5-9.9,6.2-12.4c-3-1-3.4,3.3-4.3,5.4c-1.1,2.6-2.4,5.2-3.1,7.4c-0.7-1-2.4-1-3.1-1.9c1.6-3.2,3-6.5,4.3-10.1
		c-2.7,2.3-3.1,7-5.4,9.7c-0.7-0.6-2-0.6-2.3-1.6c2.3-4.3,2.8-8.6,6.2-11.2c-4,0.7-4.9,7.7-7.4,11.2c-0.2-1.2-2.1-0.8-2.3-1.9
		c1.4-3.1,3.9-7.2,4.3-10.1c-2.4,2.5-3,6.8-5,9.7c-1.3-0.1-1.9-0.9-2.7-1.6c1.5-2.2,2.6-4.9,3.5-7.8c0.5-0.5,2.2-0.2,1.2-1.2
		c-2.8,0.4-3.4,6.4-5.4,8.9c-0.2-1.2-2.1-0.8-2.3-1.9c2.1-3.6,3.2-8.2,6.6-10.5c-4.3,0.2-5,7.2-7.8,10.1c-0.3-0.9-2.2-0.4-1.9-1.9
		c0.8-2.2,3.3-4.7,2.7-7c-1.4,2.2-2.3,4.9-3.9,7c-0.6-0.9-2-1.1-2.7-1.9c1.4-4.3,4.9-8.5,5.4-12.4c-2.5,3.7-4.2,8.2-6.6,12
		c-0.5-0.9-1.9-0.9-2.3-1.9c2.7-4.9,4.6-10.7,8.5-14.3c-5.3,2.6-6.1,9.7-9.7,14c-0.5-0.9-1.9-0.9-2.3-1.9c2.3-4.4,5.8-9.7,7-14
		c-2.9,4.2-5.2,9-7.8,13.6c-1-0.6-2.2-0.9-2.3-2.3c1.8-3.4,4.3-6,5.4-10.1c0.8,0.8,1.7,1,1.9-0.4c-0.3-0.1-0.5-0.3-0.4-0.8
		c-4.3,2.2-5,8.1-8.5,11.2c0-4.6,3.7-8.6,4.6-13.5c-3.1,2.3-3.5,9-6.2,12c-0.9-0.8-2.1-1.3-2.3-2.7c2.7-5.4,6.3-12.1,8.5-16.7
		c-4.1,4.3-6.1,10.7-9.3,15.9c-2.6-8,5.7-13.9,7.8-20.9c-4,4.6-6.4,10.9-9.7,16.3c-0.7-0.6-1.1-1.4-1.6-2.3c2.4-5.5,5-10.8,8.1-15.5
		c-4.7,3.1-5.7,9.8-8.9,14.3c-2.9-5.7,5.1-11.7,5-17.1c-2.5,4.4-5,9-7,14c-0.8-1.3-1.7,1-1.9,0c-0.5-1.7,1.8-0.5,1.6-1.9
		c-1.5-0.2-2.3,0.3-3.1,0.8c1.7,4.8-0.3,8.7,0.4,12c0.8-1.2,0.4-3.5,1.6-4.3c1.2,1.7-0.6,3.1-0.8,4.7c1.4,1.3,1-1.6,2.3-1.6
		c2,1.8,0.1,4.8,0.4,6.6c1.4,0.1,0.7-1.9,1.9-1.9c1.5,2.1,0.4,3.7,0.8,5.8c1.5,0.1,0.4-2.4,1.6-2.7c1,0.9,2.5,1.1,2.7,2.7
		c-1.1,1.7-2.3,3.4-3.1,5.4c2.6-0.6,1.7-4.8,4.7-5c-0.1,1.8-2.9,4-1.2,5c0.9-0.9,0.9-2.7,1.9-3.5c0.8,0.6,1.8,1,1.9,2.3
		c0.3,1.8-1.4,1.7-1.2,3.5c2.1,0.4,1.1-2.3,2.3-2.7c0.9,0.9,2.7,0.9,2.3,3.1c1.4-1,3-0.6,3.9,0.8c-0.6,0.6-1.9,2.8-0.4,3.1
		c0.6-1.1,0.7-2.7,1.9-3.1c0.4,1,2.4,0.5,2.3,1.9c0,1.8-1.7,0.2-1.6,1.6c0,0.5,0,1,0,1.6c1.9-0.1,1.6-2.3,2.7-3.1
		c1.2,0,2,0.4,2.3,1.2c-0.4,1.1-2.4,3.5-0.8,4.3C59.3,146.2,58.5,143.5,60.1,143.1z M74.8,147.4c1.2,0.5,2.2,1.1,3.5,1.6
		c-0.1,1.1-0.7,1.6-0.8,2.7c-2,0.3-1.9-1.4-3.5-1.6C73.8,148.7,74.9,148.6,74.8,147.4z M71.3,145.8c1.2,0.1,1.7,0.8,2.7,1.2
		c0.1,1-0.6,1.2-0.8,1.9c-1.4,0.4-1.1-1-2.3-0.8C70.6,147,71.6,147,71.3,145.8z M70.5,145.1c0.3,1.2-0.4,1.4-0.4,2.3
		c-1-0.7-2.1-1.2-3.1-1.9C67.5,143.7,69,144.8,70.5,145.1z M67,143.9c0.1,0.3-0.2,0.4-0.4,0.4c0,0.3,0,0.5,0,0.8
		c-1.2-0.5-2.5-0.9-2.7-2.3C65.3,142.8,65.7,143.8,67,143.9z M63.5,142.7c-0.8,0.4-3.2-0.3-3.1-1.9C61.7,141.2,63,141.6,63.5,142.7z
		 M32.9,116.8c-1.7-0.5-1.6-2.3-0.8-3.5c0.6,0.7,1.2,1.4,1.2,2.7C32.2,115.4,32.9,115.7,32.9,116.8z M35.6,119.9
		c-0.6-1-2.8-1.9-1.6-3.5C34.5,117.6,36.6,118.6,35.6,119.9z M43.4,129.9c0.7-0.7,2.9,0.5,2.7,1.9C44.6,131.8,44.6,130.3,43.4,129.9
		z M49.2,135c-1.2-0.2-1.4-1.5-2.7-1.6c-0.1-0.7,0.3-0.7,0.8-0.8c0.1-0.3-0.2-0.4-0.4-0.4c0.6-0.8,1.5,1.3,2.7,1.2
		C49.6,134.1,49.1,134.3,49.2,135z M50,135c1-0.9,2.2,0.4,2.3,1.6C51.7,135.9,49.9,136.4,50,135z M53.5,137.3c2-0.4,2.1,1,3.1,1.6
		C55.7,139.7,53.5,138.6,53.5,137.3z M57.7,140.4c0.2-0.3,0.4-0.6,0.4-1.2c0.6,0.5,1.7,0.3,1.6,1.6
		C58.6,141.1,58.7,140.3,57.7,140.4z"/>
	<path fill-rule="evenodd" clip-rule="evenodd" fill="#594118" d="M50.4,112.5c-0.9,0-1.6,0.3-2.3,0.8
		C49.2,113.4,50,113.2,50.4,112.5z"/>
	<path fill-rule="evenodd" clip-rule="evenodd" fill="#594118" d="M209.3,93.9c0.3-3.8,0.1-8.1-1.2-10.1c-4.1,1.1-6.9,4.8-10.5,6.6
		c-9.8,4.9-19.5,9.3-26.4,17.4c-1.6,1.8-2.7,4.3-4.3,6.6c-1.5,2.1-3.6,4.1-5,6.2c-1.4,2-2.2,4.7-3.5,7.4c-3.6,7.6-6.9,15.2-7,25.6
		c1.7-1,1-0.1,3.1,0c-0.9-1,0.6-3.6,0.4-4.7c-0.1,0.3-1.1,1.7-1.2,0.8c1.4-5.2-0.4-7.9,1.9-13.2c0.5,0,1,0,1.6,0
		c4.2-7.9,6.5-17.5,12.8-23.3c-1.4-0.5-1.2,2.3-1.9,1.2c6.5-9.8,17.4-19.3,30.2-22.5c2.9-2.3,5.3-5,8.9-6.6
		c2.2,19.1-6.9,35.7-15.1,45.7c3-6.4,6.6-12.2,9.3-19c0-0.6-1.1-0.2-1.2-0.8c1-2.5,4-5,4.3-7c-6.1,6.1-9.3,17.4-14.3,23.3
		c1.2-13,8.9-19.6,13.6-29.1c1.1-0.2,2.1-0.4,2.3-1.6c-4.2,1.7-6.3,6.1-8.9,10.5c-3,5.1-5.4,8.7-7.8,13.2c-2.1-0.4-1.4,1.9-2.3,2.7
		c2.2,0.4,2.3-3.4,3.5-2.7c-1.9,5.9-1.7,18.2-7,19.8c0.3-4.6,1.4-8.6,2.3-12.8c1-4.3,0.9-9.2,2.3-13.2c1.1-3,4.3-6.7,6.6-10.1
		c3.6-5.4,6.3-9.7,10.1-13.2c-1-0.5-1.8,0.3-2.3,0.8c-2.1,1.9-4.8,6.2-7.4,10.1c-4.5,6.5-8.6,12.6-12,19c2.5,0,1.9-3,3.5-3.9
		c-0.5,6-2.9,13.4-3.9,19.8c-0.6,3.5,0.1,6.8-3.1,7c-1.1-7.3,2.1-16.5,2.7-24.4c0.1-1.7,0-2.8,0.4-3.5c4.5-7.7,15-19.9,20.5-26
		c-8.6,4.9-13.4,16.8-20.5,24.4c0.4-1.2,0.8-2.3,1.2-3.5c-2.7,0-1.7,3.7-2.3,5.8c-1,1.5-2.6,2.3-3.1,4.3c1.6,0.3,1.7-2.9,2.7-1.9
		c-0.5,8.9-3.7,17-2.7,26c-2,0.7-3.4,2-5.8,2.3c1.1-10.1,2.4-18.8,3.9-29.5c6.7-7.5,12.2-17.9,19.4-24c0.4-0.3,2.4,0.2,1.2-1.2
		c-4,2.2-6.6,7-12,6.6c-6.8,6.5-12.7,16-18.2,22.5c3.5-6.9,7.4-13.6,13.6-17.8c0-0.5-0.1-0.9-0.8-0.8c-6.7,5.9-12.5,14.9-16.3,22.5
		c0.5-0.8,2-3.7,2.3-1.2c-0.2,0.7-0.4-0.2-0.8-0.4c0.3,6-0.5,13.4-0.8,19.8c-0.1,1.7-1.6,4.5,0.8,5.4c1-8.6-0.9-28.2,7-31.8
		c-0.7,6.7-2.6,14.8-3.1,22.1c-0.2,2.6-0.8,7,1.2,8.9c1.4-1.4-0.1-1.8-0.4-3.5c0.6-9.5,1.9-16.4,2.7-25.2c1.6-0.2,2.1-3.5,3.1-3.1
		c-0.8,9.6-3,20.3-3.5,31.4c-3.2,1.3-6.3,3.9-9.3,3.1c-0.8-5.2,0.9-15.5,0.8-22.1c-2.3,2.7-1.3,8.1-1.6,12.8c-0.2,4-1,7.8,0,10.9
		c-1.1,0.6-2.6,1.1-3.9,0.4c-0.4-6.4,0.9-11.9,0-17.1c-1.8,5.1-0.8,14-1.2,18.6c-2.2,0.5-4.5,0.9-6.6,1.6c3.3,0.6,5.8-1.2,8.1-0.4
		c4-2.8,8.8-3.6,13.2-6.6c0.7,0.2,0.7,1.1,1.9,0.8c3.3-4,8.8-5.9,12.8-9.3c-0.7,1-0.4,3.5,1.2,3.5c-0.5-1.1-0.4-2.7-0.4-4.3
		C196.2,129.3,208,112.7,209.3,93.9z M156.6,136.1c-1-1.1,0.8-2.8,0.8-4.3C158.3,133,156.5,134.6,156.6,136.1z M161.2,125.7
		c-0.5-2.4,2.1-5.1,3.9-6.6C163.8,121.3,161.8,122.8,161.2,125.7z M189.5,130.3c3.6-3.3,5.3-8.4,7.8-12.8c0.1,5.2-6.1,9.3-5.4,15.1
		c-1.2,1.3-2.4,2.5-3.5,3.9C187.6,136.3,189.7,132.5,189.5,130.3z M184.1,106.7c-2,2.6-3.8,5.7-5.8,7.8c0.9-5.9,7.8-11.3,10.9-15.1
		C189.7,101.9,186,104.2,184.1,106.7z M173.3,117.9c-1.1-1.2,1.1-2.5,0.8-4.3c4.7-4.1,6.6-11,12.8-13.6
		C182.5,106.3,177.2,111.4,173.3,117.9z"/>
	<path fill-rule="evenodd" clip-rule="evenodd" fill="#594118" d="M303.9,148.2c-1.6,1-3,2.2-4.7,3.1c0-0.4,0.3-0.5,0.4-0.8
		c3.9-2.9,7.5-6.6,11.2-10.1c3.7-3.4,8-6.5,10.5-10.1c-9.3,7.6-18.4,15.5-26.7,24C298.8,155.2,302.3,149.9,303.9,148.2z"/>
	<path fill-rule="evenodd" clip-rule="evenodd" fill="#594118" d="M239.2,128.4c2.1-0.3,4.5,0.1,6.2-0.4c3.5-1.1,9.4-5.9,13.2-8.9
		c12.4-9.9,28-20.6,26.7-40.7c-5.4-8.1-16.8-5.8-26-6.6c-14.2-1.3-27.1,5.5-35.7,11.6c1.7,0.4,2.3-2.4,3.5-1.2
		c-2.5,1.4-3.6,4.2-5.8,5.8c-1.7,5.9-3.5,11.2-5,16.7c-2.1,7.5-6.2,12.3-8.1,19.8c-1.5,1.9-3.4,6.2-1.2,8.5c1.8-0.2,3.3-0.6,5.4-0.4
		c0,1.2,0,2.4,1.2,2.3c0.5-0.5,0.5-1.4,0-1.9C224.1,134,231.1,129.4,239.2,128.4z M284.5,82.3c0.3,1.4-1.4,1-1.9,1.6
		c0.1,0.5,1.2,0.5,1.2,0c0.3,4.3-1.4,8.8-3.5,12c-8.2,12.5-22.4,23.2-36.1,31c-0.4,0-0.8,0-1.2,0c4-10,10.4-19.2,15.9-28.7
		c0.8-0.2,1,0.3,1.6,0.4c6.2-7.7,15-14.8,22.9-19.4C284.6,79.3,284.3,81.1,284.5,82.3z M224.8,85.8c-1.6,5.7-5.6,12.5-7,19.8
		C218.4,100.2,220.5,89.8,224.8,85.8z M238.4,79.6c-4,8.9-8.3,17.5-12,26.7c-2.7-1.6-2.5,2.6-4.3,3.1c3.2-10.1,9-17.7,12.4-27.5
		c-2.9-0.2-2.7,3.8-3.5,5.8c-2.5,6.2-6.9,13.9-10.5,19.4c0.5,1.2,0.2,3.2,1.2,3.9c-3.1,6.6-6.2,13.2-8.5,20.5
		c-1.9-0.2-4.5,0.4-5.8-0.4c1.1-10.3,7.2-15.6,9.7-24.4c0.9,0.2-0.1,2.4,0.8,2.7c1.6-9.9,5.7-17.3,9.3-25.2c1.4-0.2,1.4-1.9,3.5-1.6
		c-0.3-1.4,1-2-0.4-2.3c8.8-4.8,23-10.2,31.8-6.2c7.1-2.2,16.7-1,20.2,3.9c-7.2,6.1-14.8,11.8-21.7,18.2c3.2-7.6,9.6-12.1,15.9-16.7
		c0.8-0.9,1.3,0.3,2.7,0c-4.7-1.8-9,3.7-12.8,7c-3.4,2.9-6.4,5.5-8.5,8.1c1.9,0.7,2.8-2.5,4.3-3.5c-5.6,11.5-15.5,22-20.2,35.7
		c-2.2-0.1-4.4,1.4-6.2,0.4c5.9-12.2,11.6-24.6,20.2-34.1c-2.7,7.7-9.6,16.5-12,24.4c1.4,1.2,1.1-1.8,1.6-2.7
		c5.6-7.2,8-17.1,13.2-24.4c3.6-5.1,10-7.8,13.6-12.8c-4.1,0.5-5.7,6.9-10.9,7.8c0,1,0.7,1.2,0,1.9c-0.5-0.1-0.3-0.7-0.4-1.2
		c-2.4,2.6-4.4,5.7-7,8.1c2.1-7.4,7.4-14.8,15.5-17.4c-0.6-1.2-1.7,0.3-2.7,0c-6.2,4.5-11.9,9.5-17.4,14.7c1.9-0.1,4.3-3.2,6.2-4.7
		c-5.3,14.1-15.9,26.2-21.3,41.5c-3.9,0.2-10.1,4.4-14.3,3.1c0,0,0.6-2.6-0.4-0.4c1.6-7.8,6.1-16.1,10.5-22.5
		c-3.9,1.8-5.6,6.7-7.4,10.5c-1.9,4.1-3.7,8.5-5,12.8c-1,0-2.1,0-3.1,0c2.9-9,6.5-17.3,10.9-24.8c1-0.1,0.3,1.5,1.6,1.2
		c2.9-8.5,8.1-17.9,12-26.7c-0.2-1.4,1.9-0.7,1.9-1.9C240.5,78.7,238.6,79.2,238.4,79.6z"/>
	<path fill-rule="evenodd" clip-rule="evenodd" fill="#594118" d="M255.4,116.4c-0.2,0.1-0.3,0.2-0.4,0.4
		C255.2,116.7,255.4,116.6,255.4,116.4z"/>
	<path fill-rule="evenodd" clip-rule="evenodd" fill="#594118" d="M275.2,94.3c-4.1,1-5.4,5-8.9,6.6c0.4-1.2,1.6-1.5,1.9-2.7
		c-3.6,3.3-6.4,7.3-10.1,10.5c1.6,0.2,1.5-1.4,2.7-1.6c-2.2,2.8-3.9,6.1-7.4,7.8c1.2,3.7-5,4.9-4.3,8.1c2.6-1.8,3.9-4.7,5.8-6.2
		c-0.1,0-0.2,0.1-0.3,0c1.3-1.5,1.8-3.9,4.3-4.3C261.7,103.8,269.8,100.4,275.2,94.3z"/>
	<path fill-rule="evenodd" clip-rule="evenodd" fill="#594118" d="M276.8,95.4c-0.1-1.3,0.9-1.9-0.8-1.9c-0.6,1,0.3,2.1-0.8,3.1
		c1.3,0.5,0.3-1.3,1.6-0.8c-1.5,1.5-2.3,5.1-4.7,3.5c-3.2,4.8-9.7,8.3-12.4,12.4c4.2-3.5,8-7.2,12.4-10.5c-2.3,3.8-6.9,7.3-8.5,10.5
		c2.5-2.8,5.5-5.6,8.1-8.5c2.6-2.9,6.1-5.9,6.6-9.7C278.1,94.4,277.8,95.3,276.8,95.4z"/>
	<path fill-rule="evenodd" clip-rule="evenodd" fill="#594118" d="M141.9,90.4c0.4-0.5,0.6-1.2,1.2-1.6c-2.1,5.4-6.5,8.5-8.1,14.3
		c3.2,0.3,5.2-5.9,7.8-6.2c-0.6,1.6-1.4,3-1.6,5c2.1-1.5,2.5-4.7,3.5-7.4c-3.1-0.3-5.1,5.7-7.8,5.8c3.3-4.4,6.7-8.8,8.9-14.3
		C143.5,86.4,141.7,89.1,141.9,90.4z"/>
	<path fill-rule="evenodd" clip-rule="evenodd" fill="#594118" d="M130.6,95.4c-1.2-0.2-2,2.1-2.7,1.2c0.1-1.1,1.4-0.9,1.9-1.6
		c0.5-4.5,5.8-7.4,7-12.4c-3.8,2.8-5.2,7.9-8.5,11.2c-1-0.2-1.6-0.7-2.3-1.2c2.7-3.6,5.8-6.9,7.8-11.2c-3.8,2.8-5.4,7.8-8.9,10.9
		c-0.6-0.8-2.3-0.6-2.3-1.9c3.3-4.2,6.4-8.6,9.7-12.8c-4.5,1.9-7.1,9-10.9,12.8c-1.2-0.5-2.4-1-3.1-1.9c3.1-3.9,6.1-7.9,8.9-12
		c-4.1,1.7-6.4,8.6-10.1,12c-0.8-0.6-2.1-0.8-2.7-1.6c2.2-4.2,5.9-7,7.8-11.6c-3.5,3.2-5.8,7.6-8.9,11.2c-1.2-0.6-2.9-0.7-3.5-1.9
		c1.8-2.6,4.2-4.5,5-8.1c-3.5,1.5-2.9,5.9-6.2,8.1c-0.2-0.8-1.8-0.3-1.9-1.2c1.4-3,5.3-5.6,5-8.9c-2.7,3-3.4,5.6-6.2,8.5
		c-0.5-0.4-1.2-0.6-1.6-1.2c1.8-3.4,4.7-5.7,6.2-9.3c-3.6,2.1-4.6,6.7-7.8,9.3c-0.3-0.9-1.8-0.5-1.9-1.6c1.6-2.4,3.6-4.5,5.4-6.6
		c-4.1,1.3-4.8,6.1-8.5,7.8c1.3,1.1-1.5,2.9-0.4,3.9c2,0,0.9-3.2,2.7-3.5c1.6,1.4,5,1,5.4,3.5c1.2,0.1,2.4-1.1,2.7,0.4
		c-0.8,1.3-1.9,2.2-1.9,4.3c3.2,0.2,0.1-3.2,3.5-3.9c1,0.7,2.6,0.8,3.1,1.9c-0.8,0.3-1.5,1.6-0.8,2.3c1.5-0.2,2.3-1.6,2.3-2.3
		c1.6,1.1,2.5,1.7,3.1,3.1c0.7-1.3,2.4-0.4,3.1,0.4c-0.2,1.6-2,1.7-1.6,3.9c2.4,0.2,1.3-3.1,3.1-3.5c0.8,0.6,2.1,0.8,2.7,1.6
		c-0.7,0.7-1.6,2.1-0.4,2.7c0.8-0.8,1.5-1.6,2.3-2.3c0,0.7,1.3,0.3,1.2,1.2c-0.3,1.1-1.8,2.3-0.8,3.5
		C128.7,98.2,129.3,96.4,130.6,95.4z"/>
	<path fill-rule="evenodd" clip-rule="evenodd" fill="#594118" d="M183.7,62.9c-4.2,0.8-9.4,3.2-12.4,4.7c2.6,0.3,6.7-2.9,9.7-2.3
		c0.8-0.9,6.7-2.9,8.5-1.6C188.6,61.7,185.3,62.6,183.7,62.9z"/>
	<path fill-rule="evenodd" clip-rule="evenodd" fill="#594118" d="M141.1,56.3c8.7-1.4,17.7-6,24.4-7c-1.2,0.3-1.4-0.4-2.3-0.4
		c-6.7,1.6-14.3,4.9-20.2,6.6C142.1,55.8,141.2,54.6,141.1,56.3z"/>
	<path fill-rule="evenodd" clip-rule="evenodd" fill="#594118" d="M156.2,48.2c1.4,0-0.3,1.2,1.9,0.8c-0.9-1.7-3-1-4.3-0.8
		c-7,1.2-14.9,6.2-21.7,7.8C139.8,54.5,148.8,51.1,156.2,48.2z"/>
	<path fill-rule="evenodd" clip-rule="evenodd" fill="#594118" d="M116.3,54c7.1-2.6,15.7-4.2,23.3-7.4c-6.7,0.7-13,3.9-18.6,5.4
		C119.3,52.5,116.8,51.6,116.3,54z"/>
	<path fill-rule="evenodd" clip-rule="evenodd" fill="#594118" d="M117,48.5c-1,0.9-2.9,0.9-3.1,2.7c6.7-2.2,13.6-4.1,18.6-7
		c-5.4,1.1-10.7,4.3-15.5,4.7C117.3,48.9,117.5,48.6,117,48.5z"/>
	<path fill-rule="evenodd" clip-rule="evenodd" fill="#594118" d="M271.7,218.7c-5.8,3-12,5.9-14.7,11.6c1.8,3,3.4,1,7,1.2
		c1.7,0.1,3.3,0.9,5,1.2c15.2,2.3,26.7-0.8,38-5.4c6.5-2.7,13.2-6.3,16.3-11.2c-7.2-1.3-14.2-2.8-20.9-4.7
		C290.4,212.9,280.3,214.3,271.7,218.7z M293.4,214.5c-6.3,2-14.5,3-20.2,6.6c-0.2,0.9,0.7,0.8,0.4,1.9c-2.8,0.5-3.6,2.9-7.4,2.3
		C272.6,219.2,283.2,215.3,293.4,214.5z M282.6,218.3c-2.2,1.5-4.8,2.4-7.4,3.5C277.1,220.1,279.9,219.3,282.6,218.3z M318.6,216.4
		c0.9,0,1.1,0.7,2.3,0.4c-0.1,1.9-2.2,1.7-2.7,3.1c-9.1,2.2-16.4,6.1-24.8,8.9c5.9-0.3,12.3-3.4,17.8-5.4
		c-6.4,3.9-16.5,7.6-26.7,8.9c-1.9-0.1,0.7-0.2,0-1.6c11.3-4,22.3-8.4,33.3-12.8C318.9,218.2,317.6,216.1,318.6,216.4z M310.5,214.8
		c-8.6,3.1-17.6,7.1-26,10.5c-3.8,1.5-8.8,1.7-10.5,5.8c11.8-6.4,25.9-10.6,39.2-15.5c1.8-0.2,2.4,0.7,4.3,0.4
		c-10.9,6.5-25.1,9.5-36.4,15.5c-0.1,0.3,0.2,0.4,0.4,0.4c-5.4,0.5-13.9-0.9-19.8-2.3c-0.8,0.7-2.9,0-2.3,1.9
		c-1.6-3.6,4-6.2,6.6-8.1c-0.3,0.7-1.1,1-0.8,2.3c0.2,0.9,1.9,0.2,2.7,0.4c-0.2,0.6-1.2,0.3-0.8,1.6c3,1.6,7.4-1.5,10.9-1.9
		c-2-0.7-4.7,1.2-7.8,0.8c11.6-4.9,23.9-7.5,35.7-11.6c0.7-0.1,0.7,0.3,0.8,0.8C308.3,215.3,308.8,213.2,310.5,214.8z M307,213.7
		c-11.1,2.7-19.5,5.7-29.9,8.9c3.6-2.3,9-4.5,13.2-5c0.1-0.3,6.8-3.9,9.3-3.9c0.6,0,1.4,0.8,1.9,0.8
		C303.4,214.2,304.9,212.4,307,213.7z"/>
	<path fill-rule="evenodd" clip-rule="evenodd" fill="#594118" d="M342.7,167.6c7,2.2,16.6,1.7,19,8.5c-1.1-0.4-3.3-0.7-3.5,0.8
		c0.6,0.6,3.2-0.6,3.9,0.8c-1.5,1.6-4.6,1.6-4.3,5c1.8-0.9,2.6-2.7,4.7-3.5c1.1-0.5,3,0.6,3.5-1.2c0.6,0.7,1.6,1,3.1,0.8
		c0,1-0.7,1.2,0,1.9c3.9-1.7,6.2,0.5,8.9,1.2c0.7,0.2,1.6-0.5,2.3-0.4c4.7,0.8,9.7,3.3,15.1,3.5c0,0.6-0.1,1.3,0.8,1.2
		c0.3-2,2.5-0.2,4.7-0.8c3-2.8,0.3-8.7-2.7-12c-5.4-5.8-14-13.4-22.9-16.7c-10.7-4-30.3-2.5-39.5,1.6c-1,2.5-0.1,5.9,0.8,7.8
		C338.9,166.2,341.3,166.3,342.7,167.6z M400.4,184.2c-0.4,0-0.8,0-1.2,0c-1.6-0.1,0.9-1.2-0.8-1.9c-3.2-0.3-4.4,0.9-6.6,0
		c1.9-1.7,5.1-2.2,7.4-3.5c-3.5-2.1-7.6,1.6-9.3,3.9c-2.9,0.1-4.6-1.1-7.4-1.2c2.9-2.7,10.5-2.2,14.7-4.7c-6-0.8-16.1,4.9-22.9,2.3
		c6.7-2.3,15.2-2.6,21.3-5.4c-8.1-0.7-19.2,6.4-27.9,3.9c8.3-2.5,18.2-3.5,26-6.6C397.2,173.9,402,178.9,400.4,184.2z M373.3,175.3
		c-3.7,0.8-7.1,2.4-10.1,0.4c4.1-2.2,10.1-2.4,15.5-3.5c5.2-1,10.8-3.6,14.7-1.9C387.5,171.9,380.2,173.9,373.3,175.3z M390.7,167.6
		c-7.7,3.1-19.7,5.3-27.5,5.8c3.5-2.2,8.7-2.9,13.6-3.9C381.6,168.5,386.8,166.8,390.7,167.6z M375.6,158.6c4.8,1.8,8.7,4.5,12.8,7
		c-8,3.4-19.5,3.3-27.1,7c-1.2-0.1-1.1-1.5-2.3-1.6c0-0.4,1.7-0.8,0.4-1.2c7.3-2.4,17.6-3.8,24.4-5.4c-2.7-1.1-6.1,0.2-9.3,0.8
		c-6.2,1.2-13.3,2.5-18.2,4.7c-1.8-0.8-4.6-0.6-5.8-1.9c8.8-2.5,21.1-3.3,27.9-6.6c-1.5-0.4-1.6-0.6-3.5-0.4
		C375.3,159.9,376.3,160,375.6,158.6z M345.4,167.2c8.8-2.6,19.8-6.7,28.3-7C365.8,164.1,355,165,345.4,167.2z M364.8,155.5
		c-1.5,0.4-5.9,2.4-6.6,0C359.3,155.8,362.5,155.3,364.8,155.5z M354.3,155.9c-5.8,1.9-11.6,3.6-18.2,4.7
		C338.6,155.2,349.1,156.5,354.3,155.9z M354.3,157.5c-1.8,1.3-4.8,1.4-7.4,1.9C348.8,158.2,351.7,157.9,354.3,157.5z M336.5,161.7
		c2.1-0.4,1.6,1.8,3.5,1.6c3.5-3.4,20.6-4.7,27.5-7.4c2.4,0.1,3.2,1.7,5.8,1.6c-7.6,1.3-19.1,3.9-26.7,3.9c-1.7,0-2.9,1.6-3.9,0.8
		c-0.5,3.5,3.3,1.9,4.3,0.8c5.9-1,11.6-2.1,17.8-2.7c-8.3,2.1-18.9,7.7-27.9,4.3C336.9,163.6,335.8,161.9,336.5,161.7z"/>
	<path fill-rule="evenodd" clip-rule="evenodd" fill="#594118" d="M112.4,169.9c0.7-7.7,4.4-15.4,6.6-22.9
		c-4.2,5.7-5.5,14.4-7.8,22.1c-6.3,2-3.2,12.5-4.3,19c-3.6,1.1-1.6,8-3.5,10.9c-1.2-4.1,0.1-10.7-2.7-13.2
		c-0.8,4.9-0.2,8.8-1.6,13.2c-0.9-5.3-1-11.4-1.9-16.7c-3.1,2.9-1.6,8.7-3.1,13.6c-0.7-4.5,0.3-10.6-1.9-13.6
		c-1.5,0.9,0.2,3.8-1.2,5.4c-0.4-3.2,0.4-7.7-1.6-9.3c-0.5,1.9-0.8,4.1-0.8,6.6c1.4,0.6,0.2-1.3,1.2-1.2c0.5,3.9-1.3,10.1,1.6,11.6
		c0.7-0.9,0.2-2.9,0.8-3.9c-0.7-0.2-1,0.6-1.2,0c1.1-0.6,1-2.4,1.6-3.5c0.6,3.3-0.6,8.4,1.6,10.1c2.3-3.3,0.8-9,2.7-12
		c0.8,5.1-0.7,12.6,3.1,14.7c1.3-2.1,0.8-7.1,1.2-8.9c1.5,2.6,0.5,7.8,1.9,10.5c0.4,0,0.8,0,1.2,0c1.2-4.2,0.7-8.9,2.3-12.8
		c1.1,5.4,1,9.1,3.1,11.6c-1.2-8.2-4.2-24,1.2-31.4C111.4,169.9,111.9,169.9,112.4,169.9z"/>
	<path fill-rule="evenodd" clip-rule="evenodd" fill="#594118" d="M88,189.3c-1.1-4.1-0.6-9.8-2.3-13.2c-1.1,2.2-0.9,6.8-1.6,9.3
		c-1.3-4,0.5-11.1-1.9-14c-0.5,2-1.7,3.5,0,5c-2.1,0.2-1,3.6-1.9,5c-1.3-4,0-8.3-2.3-10.9c-0.6,2.6-0.4,6.4-1.9,8.9
		c-1-4.2,0-10.4-2.3-13.2c-0.9,0.7-1.7,3.5-0.8,4.7c1.3-0.6-0.4-1.8,1.2-1.9c0.8,4.3-0.3,10.4,2.3,12.8c2-1.2,0.5-5.8,1.9-6.6
		c0.8,2.8,0,7.2,2.3,8.5c1.8-1.8-0.3-6.3,1.9-7c0.6,3.8-0.8,9.6,1.9,11.2c1-1.8,0.4-5.3,1.6-7c-0.2,4.2,1,7,1.2,10.9
		c0.5,0,1,0,1.6,0c0.5-2.4,0.9-4.8-0.4-6.2C88.1,186.8,88.8,188.8,88,189.3z"/>
	<path fill-rule="evenodd" clip-rule="evenodd" fill="#594118" d="M175.2,54c-7.4,2.3-14.2,5.2-20.9,8.1c7.5-1.3,15.2-5.7,22.9-8.1
		c0.7,1.2,3.3,0.6,3.5,2.3c-6.4,2-13.1,4.5-17.8,7c1.5,0.8,3.2-1.1,5-1.2c-0.1,1.3-2.4,0.5-1.9,2.3c7.3-1.1,15.1-9.4,21.7-5
		c-6.3,1-12,2.7-16.7,5.4c5.2-1.1,12.4-3.6,17.8-5.8c-1.2-0.6-2.4-1.2-3.5-1.9c1.6,0,1.6-1.5,3.5-1.2c-0.1,0.5-0.6,0.8,0.4,0.8
		c0.1-1-0.2-1.6-0.8-1.9c-1,0.9-2.6,1.3-4.3,1.6c0-0.5,0-1,0-1.6c-4.2,1.1-6.4-3.2-11.6-3.5c0.5,1.8-0.1,1.2-0.8,2.3
		C173.3,53.3,174.3,52.2,175.2,54z M171.7,60.9c2.6-2.3,6.8-3,10.5-4.3C179,58.4,175.6,59.9,171.7,60.9z"/>
</g>
</svg>
